<?xml version="1.0" encoding="utf-8"?>
<!-- Generator: Adobe Illustrator 24.2.3, SVG Export Plug-In . SVG Version: 6.00 Build 0)  -->
<svg version="1.1" id="Layer_1" xmlns="http://www.w3.org/2000/svg" xmlns:xlink="http://www.w3.org/1999/xlink" x="0px" y="0px"
	 viewBox="0 0 281.3 281.3" style="enable-background:new 0 0 281.3 281.3;" xml:space="preserve">
<style type="text/css">
	.st0{fill:#F9A71A;}
	.st1{fill:#EF7B22;}
	.st2{fill:#FDFDFD;}
	.st3{fill:#FEFEFE;}
	.st4{fill:#CCD0D3;}
	.st5{fill:#FAFBFB;}
	.st6{fill:#FAFAFB;}
	.st7{fill:#EF5971;}
	.st8{fill:#ED3450;}
	.st9{fill:#ED9D78;}
	.st10{fill:#EF5662;}
	.st11{fill:#D8DBDE;}
	.st12{fill:#BFC3C6;}
	.st13{fill:#FDF2A5;}
	.st14{fill:#D9DCDE;}
	.st15{fill:#D38566;}
	.st16{fill:#FEEF8B;}
	.st17{fill:#FDEF8B;}
	.st18{fill:#FCED8B;}
	.st19{fill:#FDEE8B;}
	.st20{fill:#CBCFD2;}
	.st21{fill:#FAEC8A;}
	.st22{fill:#FBED8B;}
	.st23{fill:#EC5560;}
	.st24{fill:#F8E98A;}
	.st25{fill:#F7E98B;}
	.st26{fill:#CECECB;}
	.st27{fill:#CDCECC;}
	.st28{fill:#C1C5C7;}
	.st29{fill:#BDC0C3;}
	.st30{fill:#B2B6B8;}
	.st31{fill:#DA9217;}
	.st32{fill:#656666;}
	.st33{fill:#B9BDC0;}
	.st34{fill:#423011;}
	.st35{fill:#5D4216;}
	.st36{fill:#474747;}
	.st37{fill:#C38214;}
	.st38{fill:#A6731A;}
	.st39{fill:#7C5719;}
	.st40{fill:#B9464E;}
	.st41{fill:#7A7C7E;}
	.st42{fill:#3E3019;}
	.st43{fill:#575757;}
	.st44{fill:#616263;}
	.st45{fill:#B07717;}
	.st46{fill:#7D5A1E;}
	.st47{fill:#B07816;}
	.st48{fill:#795922;}
	.st49{fill:#604C27;}
	.st50{fill:#88601C;}
	.st51{fill:#838280;}
	.st52{fill:#52504A;}
	.st53{fill:#5F461B;}
	.st54{fill:#010000;}
	.st55{fill:#41331D;}
	.st56{fill:#F2EBDE;}
	.st57{fill:#332409;}
	.st58{fill:#584119;}
	.st59{fill:#6C501F;}
	.st60{fill:#70521F;}
	.st61{fill:#8E6317;}
	.st62{fill:#6F4F19;}
	.st63{fill:#F8ECD7;}
	.st64{fill:#FDEAC9;}
	.st65{fill:#563712;}
	.st66{fill:#0A0806;}
	.st67{fill:#1E150B;}
	.st68{fill:#382B13;}
	.st69{fill:#AB9C84;}
	.st70{fill:#E2E4E6;}
	.st71{fill:#756E68;}
	.st72{fill:#E1E3E5;}
	.st73{fill:#E6E8E9;}
	.st74{fill:#D8D8D8;}
	.st75{fill:#FBF8D2;}
	.st76{fill:#FBF8D1;}
	.st77{fill:#FAF6CD;}
	.st78{fill:#FDDD00;}
	.st79{fill:#F7F2EE;}
	.st80{fill:#F8F2ED;}
	.st81{fill:#F2DFD1;}
	.st82{fill:#F6EDE7;}
	.st83{fill:#F6E9DF;}
	.st84{fill:#FAEC23;}
	.st85{fill:#FCFCFC;}
</style>
<g>
	<g>
		<circle cx="140.7" cy="140.6" r="126.1"/>
	</g>
	<g>
		<path class="st0" d="M140.7,274c-35.6,0-69.2-13.9-94.4-39.1S7.2,176.2,7.2,140.5s13.9-69.2,39.1-94.4S105,7,140.7,7
			s69.2,13.9,94.4,39.1s39.1,58.7,39.1,94.4s-13.9,69.2-39.1,94.4S176.3,274,140.7,274z M140.7,16.5c-68.4,0-124,55.6-124,124
			s55.6,124,124,124s124-55.6,124-124S209.1,16.5,140.7,16.5z"/>
	</g>
	<g>
		<g>
			<g>
				<path d="M250.6,177.7c-1.7-0.2-3.3-0.7-5-1c-0.3-0.1-0.6-0.1-1,0c1.6,2.5,3.2,5,4.9,7.5c-7.9,0.3-15.8,0.6-23.3,3.3
					c5.2,1.2,9.7,3.7,14.4,6.7c-9.5,1-18.7,2.4-27.6,6.2c6.2,1.6,10.9,5.1,15.4,9.4c-1.2,0-2.2,0-3.2,0c-8.1,0.2-16,1.6-23.5,5
					c-9.6,4.5-16.9,11.4-22.2,20.4c-0.1,0.3-0.3,0.4-0.1,0.8c2.5,4.1,2.3,8.4,0.8,12.8c-0.9,2.6-2.3,5-4,7.1c-1,1.3-2.1,2.7-3.2,4.1
					c-0.5-1.6-1-3.2-1.5-5c-2.6,4.7-6.2,8.3-10,11.8c-0.1-1.2-0.2-2.4-0.3-3.7c-2.9,3.2-6.4,5.4-9.9,7.5c0-1,0-2,0-3
					c-1.4,1.2-2.8,2.3-4.4,3.2c-1.7,1-3.4,2-5.4,2.5c-0.3,0.1-0.6,0.1-1,0c-3.3-1-6.3-2.9-8.9-5.1c-0.3-0.2-0.5-0.4-0.8-0.7
					c0,1,0,2,0,3c-3.5-2.1-7-4.4-9.9-7.5c-0.1,1.3-0.2,2.5-0.3,3.7c-3.8-3.5-7.4-7.2-10-11.8c-0.5,1.7-1,3.3-1.5,5
					c-3.5-4.4-7.2-8.6-8.2-14.3c-0.6-3.2-0.3-6.3,1.3-9.2c0.2-0.4,0.2-0.6,0-1c-6.4-10.9-15.4-18.7-27.4-22.8
					c-5.5-1.8-11-2.7-16.8-2.9c-1.5-0.1-3.1,0-4.7-0.1c4.2-4.2,9-7.8,15.2-9.4c-8.9-3.6-18.1-5.2-27.5-6.1c2.3-1.5,4.6-2.8,6.9-4
					c2.3-1.1,4.8-2.1,7.4-2.6c-1.3-0.9-7.3-2.3-11.3-2.7c-3.9-0.4-7.8-0.6-11.9-0.7c1.7-2.6,3.3-5.1,5-7.7c-1.8,0.4-3.6,0.8-5.4,1.1
					c-0.2,0.1-0.5,0.1-0.8,0.1c0-0.1,0-0.2,0-0.3c3.3-9.5,6.8-18.9,9-28.7c-0.4,0-0.6,0.2-0.8,0.4c-2,1.4-3.9,2.8-6,4.2
					c-0.2,0.2-0.5,0.5-0.8,0.3s-0.1-0.6,0.1-0.9c2.3-5.7,4.2-11.4,5.9-17.3c1.6-5.9,2.9-11.8,4-17.8c0-0.1,0.1-0.3,0-0.5
					c-0.5,0.2-1,0.6-1.5,0.8c-1.3,0.8-2.6,1.5-3.8,2.4c-0.1,0.1-0.3,0.2-0.4,0.3c-0.2,0.1-0.3,0.2-0.5,0.1c-0.2-0.1-0.1-0.3,0-0.5
					c0.3-0.7,0.6-1.4,0.9-2.1c2.9-6.7,6.3-13.2,9.6-19.7c2.1-4.2,4.5-8.4,6.8-12.5c0.3-0.5,0.2-0.9-0.1-1.3
					c-1.9-2.6-3.4-5.6-5.1-8.4c-2.2-4-4-8.3-5.4-12.7c-1.3-4.6-1.9-9.3-1.7-14.1c0.3-5.1,1.7-9.7,4.9-13.7c0.6-0.8,1.3-1.4,2-2.1
					c0.5-0.4,1.1-0.7,1.7-0.6c0.3,0,0.7,0,1,0c1.4,0,2.6,0.6,3.7,1.3c2.2,1.4,4.1,3.2,6.3,4.9c5.2,4.2,10.6,8,16.5,11.1
					c2.4,1.3,4.9,2.4,7.5,3.1c0.4,0.1,0.8,0.2,1.2,0.1c2.7-0.6,5.6-0.9,8.4-1.5c3.3-0.7,6.8-1.5,10.1-2.2c4.2-0.9,8.5-1.2,12.8-1
					c3.1,0.2,6.2,0.8,9.1,1.8c3.9,1.2,7.8,2.8,11.3,5.2c1,0.7,1.9,1.4,2.7,2.2c0.3,0.3,0.6,0.5,1,0.1c4-3.7,9-5.9,14.2-7.5
					c2.8-0.9,5.9-1.6,8.8-1.8c2.7-0.1,5.4-0.1,8.1,0.2c5.4,0.6,10.5,2,15.8,3.1c2.5,0.5,5.2,0.8,7.7,1.3c0.6,0.1,1.1,0,1.7-0.2
					c2.6-0.8,5.1-1.9,7.5-3.2c5.8-3.1,11.1-6.9,16.3-11.1c1.6-1.3,3.1-2.7,4.9-3.9c1.3-0.9,2.5-1.8,4.1-2.1c0.3,0,0.5-0.1,0.8-0.1
					s0.6,0,0.9,0c1.3-0.1,2.1,0.7,2.9,1.5c3.4,3.7,5.2,8.2,5.7,13.2c0.8,7.8-0.8,15.1-3.8,22.2c-2,5-4.7,9.5-7.6,14
					c-0.7,1.1-0.8,1.9-0.1,3c2.4,4.2,4.8,8.7,7,13.1c2.3,4.5,4.5,8.9,6.7,13.4c1,2.1,2,4.4,2.9,6.5c0,0.1,0.1,0.2,0.1,0.3
					c0.1,0.2,0.1,0.5-0.1,0.7s-0.4,0-0.6-0.1c-1.1-0.8-2.2-1.5-3.4-2.2c-0.7-0.4-1.4-0.8-2.2-1.2c0.4,2.3,0.8,4.6,1.3,6.8
					c1.6,7.7,3.6,15.3,6.3,22.7c0.6,1.9,1.4,3.7,2.1,5.6c0.1,0.3,0.2,0.5,0.3,0.8c0.1,0.5-0.1,0.7-0.6,0.5c-0.3-0.1-0.6-0.4-0.9-0.6
					c-1.9-1.4-3.9-2.8-6.1-4.4c0.4,1.5,0.7,2.9,1.1,4.4c1.7,6.4,3.8,12.5,6,18.8c0.7,2,1.6,3.9,2,6.1
					C250.6,177.6,250.6,177.7,250.6,177.7z"/>
			</g>
			<g>
				<path class="st0" d="M70.8,83.7c3-2.7,6.4-5.2,9.6-7.7c4-2.9,8.3-5.7,11.9-9.1c1.4-1.3,2.7-2.5,3.8-4c0.2-0.2,0.4-0.5,0.5-0.9
					c-2.2,0.6-4.4,1.4-6.5,1.8c-0.2,0.1-0.4,0.1-0.4-0.2c1.5-2.3,3.6-4,5.8-5.8c2.1-1.7,4.6-2.5,7.2-3c4.1-0.8,8.3-1.8,12.5-2
					c4.9-0.2,9.6,0.5,14.3,1.8c2.5,0.7,5,1.8,7.2,3.2c0.2,0.1,0.5,0.2,0.7,0.6c-1.5-0.6-3-1.2-4.6-1.7c-11.5-3.6-22.1-1.5-31.7,5.7
					c-4,3-7.6,6.7-10.4,10.9c0,0.1-0.1,0.2,0,0.2s0.1,0,0.2-0.1c4-3.6,8.5-6.6,13.5-8.8c5.4-2.4,10.9-3.8,16.8-3.8
					c4.8,0,9.4,0.9,13.9,2.8c0,0.1,0,0.2-0.2,0.2c-6.6-1.2-13-0.6-19.3,1.4c-5.4,1.7-10.1,4.5-14.5,8c-0.1,0-0.1,0.1-0.1,0.2
					c0.3,0.1,0.6-0.1,0.8-0.2c5.3-2,10.7-3.5,16.3-4.1c6-0.6,11.8-0.3,17.4,2.2c1.8,0.8,3.4,1.9,4.8,3.4c0.2,0.2,0.3,0.5,0.6,0.1
					c2.4-2.8,5.8-4.2,9.2-5.2c4.8-1.2,9.5-1.2,14.4-0.5c5.4,0.7,10.5,2.2,15.7,4.1c0.1,0,0.1,0.1,0.2,0c0.1-0.1,0-0.1,0-0.2
					c-6.5-5.3-13.8-8.6-22.1-9.7c-3.9-0.5-7.9-0.4-11.8,0.3c-0.2,0.1-0.2,0-0.2-0.1c9.4-3.9,18.9-3.6,28.3,0
					c5.7,2.2,10.7,5.5,15.4,9.5c0.2,0.2,0.3,0.4,0.6,0.4c0.1-0.2,0-0.3-0.1-0.4c-5.1-7.1-11.3-12.7-19.5-16
					c-7.9-3.1-15.9-2.8-23.9,0c-1.4,0.5-2.7,1.1-4.1,1.7c-0.2,0.1-0.2,0-0.1-0.1c2.8-2.2,6-3.4,9.4-4.5c7.4-2.1,14.8-2.1,22.3-0.4
					c2.3,0.5,4.6,1,6.9,1.5c0.3,0.1,0.6,0.1,0.8,0.3c3.1,1.9,6.2,4,8.4,7.1c0.2,0.3,0.5,0.7,0.8,1.1c-2.5-0.5-4.9-1.4-7.3-2.1
					c1,1.7,2.3,3,3.6,4.2c3.6,3.5,7.9,6.4,12,9.3c3.5,2.6,7.1,5.3,10.3,8.1c-0.3,0.4-0.6,0.1-0.9-0.1c-1.9-1-3.9-1.8-6-2.6
					c-1.4-0.5-2.8-1-4.2-1.2c0.9,0.9,1.6,2,2.3,3c1.4,2.2,2.5,4.6,3.5,7c0.1,0.3,0.2,0.5,0.1,0.8c-0.7-0.1-1-0.6-1.4-1
					c-4.1-3.4-8.9-5.7-14.3-6.4c-0.3,0-0.7-0.2-1,0.1c0.7,1.1,1,2.3,0.9,3.6c0,0.8-0.3,1-1,0.6c-1.6-0.9-3.3-1.4-5.2-1.6
					c-1.1-0.1-1.9-0.8-2.4-1.7c-0.4-0.8-0.7-1.5-1.2-2.3c-1.3-1.9-3.1-3.1-5.2-4.2c-3.2-1.7-6.6-3.2-9.9-4.8
					c-0.2-0.1-0.3-0.2-0.5-0.1c-0.1,0.6,0.2,1,0.4,1.5c0.6,1.4,1.6,2.7,2.5,3.9c0.4,0.6,0.9,1.1,1.3,1.7c0.1,0.2,0.3,0.4,0.1,0.6
					c-0.1,0.2-0.4,0.1-0.6,0.1c-0.4-0.1-0.8-0.3-1.2-0.4c-1.2-0.4-2.4-0.5-3.7-0.2c-1.7,0.4-2.6,1.5-2.6,3.3s0.7,3.3,1.8,4.8
					c0.8,1.1,1.8,2,2.4,3.2c1.5,2.6,2.1,5.4,1.3,8.3c2.4-3.1,2.3-7.4,0.2-10.6c-0.4-0.6-0.7-1.2-1-1.8c-0.3-0.7-0.5-1.4-0.4-2.2
					c0.2-2,2-3,3.7-2c1,0.5,1.8,1.4,2.5,2.3c1.3,1.4,1.6,3.2,1.7,5.1c0.1,1.8-0.3,3.5-0.9,5.3c-0.5,1.2-1,2.4-1.5,3.6
					c-0.7,1.2-1.4,2.4-2.1,3.6c-0.6,1-1.1,2.1-1.5,3.1c-0.1,0.3-0.2,0.6-0.3,0.9c-0.1,0.2-0.1,0.4-0.2,0.5c-1.1,2.1-2.6,3.9-4.4,5.7
					c-2.3,2.1-4.8,4.1-7.6,5.5c-1.2,0.5-2.4,1-3.7,0.9c-1.2,0-2.3-0.4-3.2-1.3c-1.5-1.5-2.4-3.2-2.5-5.4c0-0.2,0-0.3,0-0.5
					s0.1-0.3,0.1-0.4s-0.1,0-0.1,0c0.1,0.6-0.2,1.2,0.1,1.8c0,0.3,0.1,0.6,0.1,1c0,0.3-0.1,0.5-0.3,0.7c-1.2,1.4-2.1,3-2.9,4.7
					c-0.1,0.2-0.2,0.4-0.3,0.5c-0.3,0.4-0.6,0.4-0.8,0c-1-2.1-2.3-3.9-3.7-5.8c-0.1-0.4,0-0.8,0-1.2c0.1-0.4,0.1-0.7,0.2-1.1l0,0
					c0,0.2-0.1,0.4-0.1,0.6c-0.3,1.6-0.9,3.1-2,4.5c-1.3,1.5-3,2.1-5.1,1.7c-2.2-0.4-4.1-1.5-5.9-2.8c-2.7-1.9-5.2-4.1-7.2-6.9
					c-0.4-0.6-0.8-1.2-1.2-1.9c-0.2-0.3-0.2-0.7-0.5-1c-0.8-2.7-2.3-5-3.7-7.3c-0.6-1.6-1.4-3.2-1.9-5c-0.8-2.5-0.8-5.1,0.1-7.5
					c0.8-1.9,2.2-3.4,4.2-4.2c1.3-0.5,2.7,0.3,3,1.6c0.3,1.1,0.1,2.2-0.5,3.2c-0.3,0.6-0.7,1.2-1,1.7c-1.9,3.4-1.8,6.8,0.4,10
					c-0.5-2.1-0.2-4.2,0.5-6.4c0.4-1,0.9-1.9,1.6-2.8c0.8-1.1,1.7-2.1,2.5-3.2c0.7-1.1,1.1-2.4,1.1-3.7c0-2-1.2-3.2-3.2-3.4
					c-1.1-0.1-2.2,0.1-3.3,0.4c-0.2,0.1-0.5,0.2-0.7,0.2c-0.3,0.1-0.6,0.3-0.8,0s0.1-0.5,0.3-0.8c1.2-1.6,2.5-3.1,3.4-5
					c0.2-0.4,0.4-0.9,0.6-1.3c0.1-0.2,0.3-0.5,0-0.7c-0.6,0.1-1.1,0.4-1.6,0.7c-3.3,1.5-6.7,3-9.9,4.9c-2.2,1.3-4,3-5.1,5.5
					c-0.6,1.4-1.6,2.1-3.1,2.2c-1.7,0.2-3.3,0.8-4.8,1.6c-0.6,0.3-0.7,0.2-0.8-0.4c-0.1-1.4,0.1-2.7,0.8-3.9
					c-0.2-0.3-0.5-0.2-0.7-0.2c-3.4,0.3-6.7,1.5-9.8,3.1c-1.8,1-3.4,2.1-5,3.4c-0.3,0.2-0.5,0.6-1,0.5c-0.3-0.3-0.1-0.6,0.1-0.9
					c1.2-3,3.1-6.9,5.7-9.7c-0.7,0.1-1.3,0.3-2,0.5s-1.3,0.4-2,0.7c-0.7,0.2-1.3,0.5-1.9,0.8c-1.4,0.6-2.8,1.2-4.2,1.9
					C71.5,83.8,71.2,84,70.8,83.7z"/>
			</g>
			<g>
				<path class="st0" d="M185.8,178.1c-0.5,0-0.9,0.1-1.4,0c2.7-3,4.5-6.6,6.2-10.2c-1.6,0.8-3,1.9-4.9,2.2c2.2-2.1,3.5-4.8,4.5-7.6
					c0.9-2.8,1.3-5.8,1.6-9c-1.7,2.4-3.6,4.2-6.1,5.6c2.9-5.5,3.6-11.3,3.6-17.6c-2.4,3-4.2,6.6-7.5,8.8c2.1-4.4,2.8-9,3.4-13.8
					c-0.7,0.2-1.1,0.6-1.6,0.9c-1.1,0.8-2.1,1.6-3.2,2.4c-1.1,0.7-2.2,1.2-3.5,1.2c-0.3,0-0.4,0-0.4-0.4c0-2.4-0.6-4.7-2.2-6.6
					c-1.5-1.8-3.6-2.1-5.9-2c-1,0-2.1,0.2-3,0.7c-0.7,0.4-1.2,0.8-1.5,1.7c1.8-1.1,3.4-0.8,5.2,0.1c0.5,0.3,0.8,0.6,0.8,1.2
					c0,1.9-0.8,3.6-1.8,5.2c-1.3,1.8-2.7,3.4-4.4,5.1c-0.8,0.8-1.8,1.5-2.9,2c-0.9,0.4-1.8,0.9-2.8,1.4c-0.1-3.2,1-6.3,0.8-9.7
					c-0.4,0.5-0.5,1-0.6,1.4c-0.8,2.4-1.9,4.9-3,7.1c-0.2,0.4-0.3,0.6-0.9,0.3c-3.1-1.4-4.5-1.1-6.6,0.8c-0.3,0.3-0.6,0.5-0.9,0.9
					c-1.4,1.7-3.2,2.1-5.4,2.1c-1.4,0-2.7,0-4.1-0.3c-0.6-0.1-1.1-0.3-1.5-0.7c-0.7-0.7-1.4-1.3-2.2-2c-2.1-1.9-3.4-2.2-6.6-0.8
					c-0.5,0.2-0.6,0.2-0.8-0.3c-1.4-2.7-2.5-5.5-3.6-8.4c-0.4,3.1,0.7,6.3,0.6,9.5c-1.9-1.2-4-1.9-5.6-3.4c-1.7-1.7-3.3-3.4-4.7-5.5
					c-1-1.5-1.7-3.1-1.7-5c0-0.5,0.1-0.8,0.5-1c1.7-0.9,3.4-1.3,5.3-0.2c0.1-0.5-0.2-0.7-0.5-1c-0.8-0.8-1.8-1.2-2.8-1.3
					c-1.3-0.2-2.5-0.1-3.8,0.2c-2.6,0.6-3.9,2.4-4.8,4.8c-0.4,1.2-0.7,2.5-0.6,3.9c-1,0.2-1.9-0.1-2.9-0.5c-1.4-0.6-2.5-1.6-3.7-2.6
					c-0.6-0.5-1.3-1-2.1-1.4c0.6,4.9,1.3,9.5,3.5,13.8c-0.9-0.3-2.4-1.7-4-3.9c-1.1-1.5-2.2-3.1-3.3-4.8c-0.1,3.3,0.1,11.1,3.5,17.5
					c-1.4-0.4-3.6-2.4-6-5.3c0.2,4.4,1.6,12.3,6.1,16.4c-1.9-0.3-3.3-1.5-5.1-2.2c1.7,3.6,3.4,7.2,6.2,10.2c-0.4,0.1-0.8,0.1-1.3,0
					c-0.7-0.3-1.2-0.8-1.8-1.1c-5.9-4.8-10.4-10.5-13.3-17.6c-1.4-3.3-2.2-6.9-2.4-10.6c0-0.7-0.2-1.3-0.1-2.1
					c-1,1.4-1.8,2.7-2.4,4.2c-0.1,0.3-0.1,0.7-0.5,0.7s-0.5-0.4-0.6-0.7c-0.3-0.7-0.5-1.5-0.6-2.2c-0.6-3.3-0.1-6.7,0.6-9.9
					c0.8-3.4,1.7-6.9,2.1-10.4c0.1-0.3,0.2-0.6,0.2-0.9c0,0.1,0,0.3-0.1,0.4c-1,1.6-2.2,3-3.6,4.4c-0.2,0.2-0.5,0.5-0.8,0.3
					s-0.2-0.6-0.1-0.9c0.3-1.9,0.7-3.8,0.9-5.8c0.4-2.6,0.6-5.3,0.8-7.9c0.1-0.9,0.1-1.8,0.2-2.7c0.2-3.3,0.3-6.8,0.2-10.2
					c0-0.2,0-0.4-0.1-0.5c-0.1-0.6,0.1-1.1,0.1-1.6c0-0.2,0.1-0.3,0.1-0.5c-0.2-1.8,0.4-3.5,0.8-5.3c0.1-0.3,0.3-0.5,0.6-0.7
					c1-0.7,2.1-1.2,3.3-1.7c0.3-0.1,0.6-0.3,0.8,0c0.2,0.2,0,0.5-0.1,0.7c-1.3,1.9-2.3,4-2.9,6.3c0.9-0.7,1.7-1.5,2.6-2.2
					c0.1-0.1,0.3-0.2,0.4-0.3c0.2-0.1,0.3-0.2,0.5,0c0.2,0.1,0.1,0.3,0.1,0.5c-0.1,0.5-0.3,0.9-0.5,1.4c-2.3,4.7-3.3,9.6-4.1,14.7
					c-0.1,0.8-0.2,1.6-0.3,2.5c-0.2,0.3-0.1,0.7-0.2,1c0,0.2,0.1,0.2,0,0.2c0,0,0,0,0-0.1s0-0.3,0-0.4c0.8-3,1.9-6.1,3.2-8.9
					c0.1-0.1,0.1-0.2,0.3-0.3c1.1-0.8,2.3-1.4,3.7-1.7c0.5-0.1,1-0.4,1.5-0.1c0.2,0.3,0.1,0.6,0,0.9c-0.3,1.1-0.3,2.2-0.3,3.3
					c0,0.9,0.3,1.2,1.2,1.4c0.3,0.1,0.6,0.1,0.9,0.2c2.1,0.2,3.6,1.5,5,2.9c0.9,1,1.8,2,2.8,2.9c1.2,1.1,2.7,1.6,4.4,1.7
					c0.2,0,0.3,0,0.5,0.1c0.1,0,0.1,0.1,0.2,0.1c0.3,0.3,0.7,0.3,1.1,0.5c0.2,0.1,0.4,0.2,0.4,0.4c-0.2,0.4-0.5,0.3-0.8,0.3
					c-2,0-3.9-0.2-5.8-0.9c-1.2-0.5-2.3-1.3-3-2.3c-0.3-0.4-0.5-0.5-0.9-0.1c-5.4,4.5-9.2,9.9-11.6,16.4c-1.1,3-1.8,6.3-2.4,9.4
					c-0.1,0.2-0.2,0.4-0.2,0.7c-0.1,0.3-0.2,0.6-0.2,0.8c0-0.1,0.1-0.4,0.1-0.6c0.1-0.3,0.1-0.5,0.2-0.8c0.6-2.7,1.6-5.3,2.9-7.7
					c2.7-5,6.4-8.9,11.2-11.7c0.7-0.4,1.5-0.8,2.3-1.1c0.2-0.1,0.4-0.1,0.6,0.1c0.1,0.2,0,0.4-0.2,0.5c-0.7,0.7-1.4,1.4-2,2.2
					c-4.2,5.3-6.7,11.3-7.6,18c-0.2,1.2-0.2,2.4-0.4,3.5c-0.2,0.4,0,0.9-0.3,1.5c0.1-0.3,0.1-0.5,0.1-0.7c0.3-1.9,0.9-3.7,1.5-5.5
					c1.6-4.5,4-8.4,7.5-11.6c2.6-2.4,5.7-4.4,9.2-5.4c0.4-0.1,1.1-0.5,1.4,0c0.3,0.5-0.4,0.8-0.7,1.1c-2,1.8-3.8,3.8-5.1,6.5
					c2.1-1.9,4.4-3.6,6.7-5c4.1-2.3,8.6-3.8,13.4-4.4c0.9-0.1,1.7-0.2,2.6-0.1c0.3,0.1,0.6,0.2,0.9,0.3c0.1,0.1,0.3,0.2,0.3,0.4
					s-0.3,0.2-0.4,0.3c-0.1,0-0.2,0-0.3,0c-1.5,0.1-3,0.3-4.4,0.8c0.6-0.3,1.5-0.3,2.4-0.2c6.2,0.5,10,4.1,12.5,9.4
					c0.3,0.6,0.4,1.2,0.5,1.8c0,0.2,0.1,0.5,0.1,0.6c-0.1-0.3,0-0.7-0.2-1c-0.3-1.4-0.3-2.8-1-4.1c-1.4-3-3.6-5.2-6.7-6.5
					c-0.3-0.1-0.6-0.2-0.8-0.5c0-0.1,0-0.2,0.1-0.2c0.3-0.1,0.6-0.1,0.8-0.2c2-0.3,4-1,6.2-0.8c2.7,0.2,5.4,0.9,7.7,2.6
					c0.2,0.2,0.3,0.5,0.6,0.5c0.9,0.9,1.9,1.6,2.7,2.6c0.3,0.4,0.6,0.3,1,0c0.8-0.7,1.3-1.6,2.1-2.2c0.1-0.1,0.2-0.2,0.4-0.3
					c0.3-0.2,0.5-0.4,0.7-0.6c2.9-2,6.3-2.9,9.8-2.5c1.2,0.2,2.4,0.4,3.6,0.6c0.4,0.1,0.7,0.1,1,0.4c0.1,0.5-0.4,0.5-0.6,0.6
					c-2.5,1.2-4.6,3-6,5.5c-1,1.6-1.1,3.4-1.4,5.3c-0.2,0.3-0.1,0.7-0.2,1c0.1,0,0,0,0,0c0-0.2,0.1-0.3,0.1-0.5
					c1-4.2,3.5-7.5,7.2-9.6c2.5-1.4,5.3-2.1,8-1.6c-1.1-0.5-2.6-0.5-4-0.8c-0.4-0.6,0.2-0.6,0.4-0.8c1.5-0.3,3,0,4.6,0.3
					c6.4,1.1,12,3.7,17,8c0.4,0.3,0.7,0.7,1.1,1c-0.6-1.4-1.4-2.6-2.3-3.7c-1-1.1-2-2.1-3.1-3.1c-0.3-0.2-0.7-0.4-0.5-0.8
					c0.2-0.3,0.7-0.2,1-0.1c3,0.9,5.8,2.3,8.2,4.2c4.5,3.6,7.4,8.3,9.3,13.7c0.5,1.4,0.9,2.8,1.1,3.9c-0.1-1-0.2-2.3-0.4-3.6
					c-1-6.8-3.4-12.8-7.8-18.2c-0.5-0.6-1.1-1.1-1.6-1.6c-0.2-0.2-0.5-0.4-0.3-0.7c0.2-0.2,0.5-0.2,0.8,0c1.4,0.6,2.7,1.3,3.9,2.2
					c6,4.4,9.9,10.1,12,17.1c0.2,0.6,0.3,1.1,0.4,1.7c0.1,0.3,0.2,0.6,0.2,0.7c0-0.2,0-0.5-0.2-0.7c-0.7-4.4-1.7-8.6-3.6-12.6
					c-1.4-3.1-3.2-6-5.4-8.6c-1.5-1.9-3.2-3.6-5.2-5.2c-0.4-0.3-0.6-0.3-0.9,0.1c-1.6,2.1-3.9,2.9-6.6,3.1c-0.8,0.1-1.5,0.2-2.3,0.2
					c-0.3,0-0.6,0.1-0.8-0.3c0.1-0.3,0.3-0.4,0.6-0.5s0.6-0.2,0.8-0.3c0.1-0.1,0.2-0.1,0.3-0.2c2.7-0.1,4.9-1.4,6.6-3.5
					c0.8-1,1.8-1.9,2.8-2.9c0.7-0.7,1.6-1,2.6-1.2c0.5-0.1,1.1-0.2,1.6-0.3c0.9-0.2,1.1-0.5,1.1-1.4c0-1.2,0-2.4-0.3-3.5
					c-0.1-0.2-0.1-0.5,0-0.7c0.2-0.1,0.3-0.1,0.5-0.1c1.8,0.4,3.4,1,4.9,2.2c0.7,0.8,1,1.9,1.3,2.8c0.8,1.9,1.5,3.8,2,6
					c0,0.2,0.2,0.4,0.1,0.5c0-0.4-0.1-0.8-0.2-1.2c-0.5-5-1.5-9.7-3.2-14.4c-0.3-0.8-0.7-1.6-1-2.4c-0.2-0.4-0.4-0.8-0.5-1.2
					c-0.1-0.3-0.3-0.6,0-0.8c0.3-0.2,0.5,0.1,0.7,0.3c1,0.7,1.8,1.5,2.8,2.3c-0.6-2-1.3-3.9-2.5-5.7c-0.1-0.2-0.3-0.4-0.4-0.6
					s-0.4-0.4-0.2-0.7c0.2-0.3,0.5-0.2,0.8-0.1c1.2,0.4,2.4,1.1,3.4,1.8c0.2,0.1,0.4,0.3,0.5,0.6c0.6,1.7,0.9,3.4,0.9,5.2
					c0.1,0.4,0.1,0.7,0.1,1.1c0,0.3,0,0.6,0,0.8c0,4.5,0.2,8.8,0.4,13.3c0.2,2.3,0.4,4.7,0.7,7c0.3,2.3,0.6,4.7,1.1,6.9
					c0,0.2,0.1,0.4,0.1,0.5c0,0.2,0.1,0.5-0.1,0.6s-0.5,0-0.6-0.2c-0.4-0.3-0.8-0.7-1.2-1.1c-1-1-1.8-2.1-2.5-3.2
					c0.4,4.6,1.8,8.9,2.6,13.5c0.5,3.1,0.6,6.3-0.4,9.4c-0.1,0.4-0.2,1-0.7,1c-0.4,0-0.4-0.6-0.5-0.9c-0.6-1.4-1.3-2.6-2.3-4
					c0,1.7-0.2,3.3-0.4,4.9c-1.1,7-4,13.1-8.4,18.5c-2,2.5-4.2,4.9-6.9,6.9C187,177.3,186.3,177.7,185.8,178.1z"/>
			</g>
			<g>
				<path class="st1" d="M206.6,102c-0.3-1.1,0-2.2-0.4-3.3c-0.2-0.6-0.5-1.2-0.5-1.8c0.6-0.1,0.8,0.4,1.2,0.6c1.1,0.8,2,1.8,3,2.8
					c0.2,0.2,0.4,0.4,0.7,0.6c-0.8-3.2-2.3-6-4.4-8.5c-0.5-0.6-1.2-1-1.4-1.8c-0.8-2.3-1.8-4.6-3.1-6.7c-0.9-1.5-1.9-3-3.3-4.5
					c2,0.3,3.8,1,5.7,1.7c1.8,0.7,3.6,1.5,5.4,2.4c0.2,0.1,0.4,0.3,0.6,0.1c2.4,2,4.8,4.1,7.1,6.4c-0.7-3.1-2.2-6-4-8.7
					c0.4-0.1,0.6,0.2,0.8,0.4c4.2,3.3,8,7.3,11.6,11.3c1.2,1.3,2.4,2.7,3.6,4.1c1,1.2,1.6,2.7,2.3,4.1c1.8,3.3,3.5,6.8,5.2,10.3
					c0.1,0.3,0.2,0.5,0.2,0.9c-1-0.9-2-1.8-2.9-2.8c-1.9-1.9-3.8-3.8-5.7-5.9c-0.1-0.1-0.2-0.2-0.4-0.3c-0.3,0.4,0.2,0.7,0.2,1
					c0.4,2.3,0.8,4.8,0.9,7.2c0,0.8,0.2,1.6,0.2,2.4c0,1.2,0.1,2.3-0.1,3.5c-0.4,0.5-0.6,0-0.7-0.2c-0.7-0.9-1.4-1.7-2.1-2.6
					c-1.4-1.7-3-3.2-4.6-5s-3.1-3.6-4.4-5.8c-0.1-0.1-0.1-0.2-0.2-0.3c-0.3,1.9,0.1,3.8,1,5.6c0.8,1.7,1.9,3.3,3,5
					c1.8,2.6,3.4,5.4,4.6,8.3c0.6,1.7,1,3.5,1,5.5c0,2.4-0.1,5-0.3,7.4c0,0.3,0,0.6-0.4,0.7c-0.3,0-0.4-0.3-0.5-0.5
					c-0.6-1.4-1.1-2.8-2-4c-0.2-0.3-0.4-0.6-0.7-0.9c0.1,1.4,0.3,2.7,0.4,4c0.2,1.9,0.3,3.7,0.4,5.7c0.1,3.9,0.6,7.8,1.2,11.6
					c0.3,2.1,0.6,4.1,0.6,6.3c0,0.5-0.1,0.9-0.2,1.4c-0.4,1.8-1.5,2.7-3.4,2.7c-1.2,0-2.3-0.1-3.6-0.3c0.5,0.6,1,1,1.5,1.2
					c0.6,0.3,1.3,0.7,2,0.9c0.2,0.1,0.5,0.1,0.5,0.4c0,0.3-0.3,0.4-0.6,0.4c-1.8,0.5-3.6,1.2-5.5,2.1c-3.7,1.9-7.2,4.4-10.1,7.3
					c-1.1,1.1-2.3,2.2-3.4,3.6c0.9-0.2,1.8-0.1,2.6-0.2c0.6-0.1,1.1,0,1.7,0.1c0.4,0.1,0.4,0.3,0.1,0.5c-0.2,0.2-0.5,0.3-0.8,0.4
					c-3.7,1.8-7,4.2-10.1,7.1c-6,5.3-10.6,11.5-14.6,18.4c-1.3,2.3-2.5,4.8-3.5,7.3c-0.2,0.5-0.4,1-0.6,1.4c-1.2,2.4-2,5-2.8,7.5
					c-0.3,0.8-0.6,1.6-0.9,2.5c-0.1,0.2-0.1,0.6-0.5,0.6c-0.2-3.4,0.4-6.9,1.1-10.2c1.3-7,3.3-13.7,5.9-20.2c1.2-3,3-5.8,4.9-8.4
					c0.8-1.1,1.6-2.2,2.3-3.3c1.4-0.8,2.7-1.5,4.2-2.2c0.4,0,0.6-0.2,0.9-0.4c2.7-1.7,5.2-3.9,7.6-6c1.5-1.3,3.1-2.6,4.5-4.2
					c1.2-1.4,2.2-3,3.1-4.6c0.1-0.2,0.2-0.6,0.5-0.5c0.3,0,0.4,0.4,0.4,0.7c0.2,0.6,0.4,1.3,0.7,2c0.7-1.1,1.3-2.2,1.8-3.3
					c1.7-4,2.7-8.3,3-12.6c0.1-1.1,0.1-2.1,0.1-3.2c0-0.3,0-0.6,0.3-0.7c0.3-0.1,0.5,0.2,0.6,0.4c1,1.1,1.9,2.2,3,3.3
					c0.2-1.1,0.2-2.2,0.3-3.2c0.1-4.4-0.4-8.6-1.8-12.7c-0.2-0.6-0.5-1.2-0.7-1.7c-0.1-0.2-0.2-0.5,0-0.7s0.5,0,0.7,0.1
					c0.9,0.7,1.7,1.4,2.5,2.2c0.1,0.1,0.2,0.2,0.4,0.2c-0.1-1.2-0.3-2.3-0.6-3.5c-0.9-3.4-2.5-6.6-4.1-9.7c-2.5-4.9-5-9.7-6.8-14.9
					c-0.6-1.6-1.2-3.3-1.5-5c0-0.2-0.2,0-0.1-0.1h0.1C206.7,101.1,207.1,101.6,206.6,102z"/>
			</g>
			<g>
				<path class="st1" d="M75.2,96.7c0.1,0.5-0.2,0.8-0.3,1.3c-0.3,1.2-0.6,2.4-0.5,3.7c0,0.3,0.1,0.6-0.1,0.8
					c-0.4-0.6-0.1-1.2-0.1-1.5c-0.6,2.5-1.6,5.1-2.6,7.7c-1.6,4-3.6,7.9-5.6,11.8c-1.4,2.9-3,5.9-3.9,9c-0.4,1.4-0.6,2.8-0.8,4.4
					c0.9-0.7,1.6-1.4,2.4-2c0.1-0.1,0.2-0.2,0.3-0.2c0.3-0.2,0.6-0.6,0.9-0.3c0.4,0.3,0.1,0.7-0.1,1c-1.4,3.6-2,7.3-2.2,11.2
					c-0.1,2,0,3.9,0.2,5.9c0,0.1,0,0.3,0.1,0.4c0.8-0.9,1.6-1.9,2.4-2.8c0.3-0.4,0.6-1,1.1-0.8c0.4,0.2,0.2,0.8,0.2,1.2
					c0.2,5.8,1.3,11.4,3.8,16.7c0.3,0.6,0.6,1.1,0.9,1.6c0,0.1,0.1,0.2,0.3,0.2c0.4-0.5,0.4-1.2,0.7-1.8c0.1-0.2,0.1-0.6,0.5-0.6
					c0.3,0,0.4,0.3,0.5,0.5c1.7,3.2,4,5.8,6.9,8.1c2.3,1.9,4.6,3.9,7,5.8c0.6,0.5,1.2,1,2,1.2c0.1,0,0.3,0,0.4,0.1
					c1.3,0.8,2.7,1.4,3.9,2.2c3.1,4.2,6.3,8.5,8.1,13.7c2.5,7.3,4.7,14.8,5.9,22.4c0.3,1.9,0.5,3.9,0.4,6c-0.5-0.2-0.5-0.7-0.7-1.1
					c-0.6-1.8-1.2-3.5-1.9-5.4c-0.5-1.4-1-2.7-1.7-3.9c-0.6-1.5-1.2-2.9-1.9-4.4c-2-4.1-4.5-8.1-7.1-11.8c-2.6-3.6-5.6-7-8.8-10
					c-3.4-3.1-7.2-5.9-11.3-8c-0.1-0.1-0.2-0.1-0.3-0.2c-0.1-0.1-0.3-0.2-0.2-0.4c0-0.1,0.2-0.2,0.3-0.2c0.5-0.1,0.9-0.3,1.4-0.2
					c0.9,0.2,1.9,0,2.9,0.3c-0.1-0.4-0.3-0.6-0.5-0.8c-4.8-5.2-10.1-9.4-16.8-11.8c-0.5-0.2-1-0.3-1.5-0.5c-0.3-0.1-0.7-0.1-0.7-0.5
					c0-0.3,0.4-0.3,0.7-0.4c1.3-0.4,2.4-1,3.5-2.1c-1.3,0.2-2.4,0.3-3.6,0.3c-2,0-3.2-1.1-3.6-3.1c-0.3-1.9,0-3.8,0.2-5.8
					c0.3-2.9,0.9-5.9,1.1-8.8c0.1-1.1,0.1-2.2,0.2-3.2c0.1-3.6,0.5-7.2,0.8-10.8c-0.4,0.3-0.6,0.8-0.9,1.2s-0.5,0.9-0.7,1.4
					s-0.5,0.9-0.7,1.4s-0.3,0.9-0.6,1.4c-0.1,0.2-0.1,0.4-0.3,0.4c-0.3,0-0.3-0.3-0.3-0.5c-0.2-0.8-0.2-1.5-0.2-2.3
					c-0.1-1.6-0.2-3.3-0.2-5.1c0-2.7,0.7-5.4,1.8-7.8c1.4-3.1,3.4-6,5.4-8.8c0.9-1.4,1.7-2.9,2.1-4.6c0.3-1.1,0.4-2.2,0.1-3.5
					c-0.9,1.6-1.8,3-2.9,4.4c-1.4,1.8-3.1,3.3-4.7,5.1c-1.1,1.3-2.2,2.6-3.3,3.9c-0.2,0.2-0.3,0.7-0.8,0.4c-0.2-1.9-0.2-3.7-0.1-5.7
					c0.1-2.3,0.5-4.7,0.9-6.9c0.1-0.5,0.5-0.9,0.2-1.5c-2.4,2.6-5,5.2-7.6,7.7c-0.5,0.4-0.9,1-1.6,1.4c2.2-4.8,4.6-9.4,7-14
					c0.8-1.5,1.9-2.6,3-3.8c4-4.7,8.2-9.1,13.1-13c0.3-0.2,0.5-0.5,1-0.5c-1.8,2.7-3.3,5.6-4.1,9c2.4-2.3,4.7-4.6,7.1-6.5
					c0.4,0,0.7-0.2,1-0.4c3-1.5,6.2-2.9,9.5-3.7c0.3-0.1,0.6-0.1,1.1-0.2c-0.8,1.1-1.6,2-2.3,3c-1.6,2.3-2.8,5-3.8,7.6
					c0,0.1,0,0.3,0,0.4c-0.2,0.7-0.8,1.2-1.3,1.7c-2.1,2.5-3.6,5.3-4.5,8.5c0.5-0.4,0.9-0.8,1.3-1.2c0.8-0.8,1.7-1.6,2.6-2.3
					C74.7,96.8,74.9,96.5,75.2,96.7z"/>
			</g>
			<g>
				<path class="st2" d="M103.7,212.9c0.4,0.1,0.4,0.5,0.6,0.8c1.3,2.7,2,5.7,3.1,8.5c0.1,0.4,0.3,0.8,0.5,1.1
					c0.1,1-0.1,1.9-0.2,2.9c-0.1,0.3-0.1,0.5-0.3,0.8c-0.7,0.5-1.1,0.5-1.6-0.3c-1.6-2.5-3.3-5-5.3-7.3c-6.8-8-15.1-13.6-25.4-15.8
					c-0.9-0.2-1.8-0.4-2.7-0.5c-0.2,0-0.6,0-0.6-0.3c1.5-0.4,3-0.6,4.8-0.9c-1.1-0.9-2.2-1.5-3.3-2.3c0.1-0.4,0.5-0.4,0.8-0.4
					c1.3-0.3,2.6-0.5,4-0.7c-1.5-1.1-3-1.9-4.6-2.7c-5.3-2.7-10.8-4.6-16.8-5.4c-0.2,0-0.6,0-0.6-0.4c2.1-0.9,4.4-1.4,6.5-2
					c0.2-0.1,0.4-0.1,0.7-0.2c-0.6-0.5-1.4-0.7-2-1.1c0-0.4,0.4-0.4,0.7-0.5c1.1-0.3,2.1-0.6,3.3-0.9c-1.9-0.9-3.8-1.6-5.7-2.3
					c-5-1.8-10-3.1-15.3-3.7c-0.8-0.1-1.5-0.2-2.3-0.2c-0.3,0-0.6,0-0.8-0.1c-0.5-0.1-0.6-0.4-0.4-0.9c0.4-0.7,0.9-1.5,1.3-2.2
					c1.3-2.1,2.6-4.4,3.7-6.7c0.1-0.2,0.2-0.3,0.1-0.6c-1,0.1-1.8,0.8-2.8,0.9c-1,0.4-2,0.7-3,1.1c-0.2-0.3,0-0.6,0.1-0.9
					c3.1-7.7,5.3-15.8,7-23.9c0.1-0.3,0.1-0.7,0.4-1c0.1-0.1,0.2-0.1,0.2,0c0.2,0.3,0.2,0.6,0.2,1c-0.1,1-0.2,2.1-0.3,3.1
					c0,0.2-0.1,0.4-0.2,0.5c1-1.4,2-3,3.1-4.5c0.1-0.2,0.3-0.3,0.4-0.5c0.4-0.4,0.7-0.4,0.9,0.2c0.4,0.8,0.5,1.7,0.6,2.6
					c0.5,5.2-0.3,10.2-2.1,15.1c-0.6,1.5-1.3,2.8-2.4,4.1c0.2,0.3,0.5,0.2,0.8,0.3c5,1,9.6,2.7,14,5.3c0.9,0.5,1.6,1.1,2.4,1.7
					c0.2,0.2,0.5,0.4,0.5,0.7c-0.1,0.4-0.5,0.4-0.8,0.5c-2.6,0.6-5.3,0.9-7.9,1.3c-1,0.2-2.1,0.4-3.2,0.7c2.9,1.1,5.7,2.2,8.5,3.4
					c4.7,2,9.1,4.5,13.4,7.2c3.6,2.3,7.1,4.9,10.3,7.7c2.5,2.2,4.9,4.6,6.9,7.2c0.2,0.2,0.5,0.5,0.3,0.8s-0.5,0.2-0.8,0.2
					c-3.1,0.3-6.2,1-9.1,2.1c1.6-0.1,3.4-0.1,5.2,0.2c3.7,0.5,7.4,1.6,10.7,3.5C101,210.3,102.5,211.4,103.7,212.9z"/>
			</g>
			<g>
				<path class="st2" d="M173.1,223.7c0.6-1.6,1.2-3.1,1.7-4.8s1.2-3.3,1.9-5.1c0.1-0.3,0.2-0.6,0.5-0.9c3.1-3.7,7.3-5.7,11.9-6.8
					c2-0.5,4.1-0.8,6.3-0.8c0.7,0,1.4,0,2.2,0c0,0,0,0,0.1,0c-0.1,0,0.1,0,0,0c-3-1.1-6.2-1.8-9.3-2.1c-0.7-0.1-0.8-0.3-0.3-0.9
					c1.5-1.9,3.2-3.8,5.1-5.5c2.4-2.2,5-4.4,7.7-6.4c3.5-2.6,7.3-4.9,11.2-7c4.9-2.6,9.9-4.8,15.3-6.7c-0.6-0.2-1.1-0.3-1.6-0.4
					c-3-0.6-6.1-0.9-9.1-1.5c-0.4-0.1-1.1,0-1.2-0.5s0.4-0.8,0.8-1.1c1.8-1.4,3.8-2.5,5.9-3.4c3.3-1.5,6.8-2.6,10.4-3.2
					c0.5-0.1,0.5-0.2,0.2-0.6c-2.7-3.5-3.6-7.8-4.2-12.1c-0.2-1.1-0.2-2.2-0.2-3.3c-0.1-1.9,0.1-3.9,0.7-5.9
					c0.2-0.8,0.6-0.8,1.1-0.2c1.2,1.5,2.2,3,3.3,4.7c-0.1-1.4-0.5-2.9-0.4-4.5c0.1-0.2,0.2-0.4,0.4-0.1c0.2,0.2,0.2,0.5,0.2,0.8
					c1.6,7.8,3.6,15.6,6.6,23c0.2,0.5,0.5,1,0.6,1.5c0.1,0.2,0.2,0.5-0.3,0.4c-0.9-0.3-1.7-0.7-2.6-0.9c-1-0.1-1.8-0.7-2.8-0.9
					c0,0.4,0.2,0.7,0.3,1c1.2,2.5,2.7,4.9,4.1,7.3c0.2,0.2,0.3,0.5,0.4,0.7c0.7,1.1,0.5,1.4-0.8,1.5c-4.7,0.4-9.1,1.2-13.6,2.6
					c-2.9,0.9-5.9,1.9-8.8,3.2c-0.3,0.2-0.7,0.3-1.1,0.5c1.2,0.3,2.3,0.6,3.4,0.9c0.3,0.1,0.6,0.1,0.7,0.5c-0.7,0.3-1.4,0.7-2.2,1
					c2.3,0.6,4.5,1.2,6.6,1.9c0.3,0.1,0.5,0.2,0.8,0.3c-0.1,0.4-0.5,0.3-0.7,0.4c-5.7,0.8-11,2.5-16.1,5.2c-1.7,0.9-3.3,1.8-5.1,2.9
					c1.4,0.3,2.8,0.4,4.1,0.8c0.3,0.1,0.6,0,0.7,0.5c-1,0.7-2.2,1.3-3.2,2.2c1.7,0.3,3.3,0.5,4.9,0.9c-0.1,0.4-0.4,0.3-0.7,0.3
					c-3.4,0.6-6.8,1.4-10,2.7c-4.7,1.9-8.9,4.6-12.7,8c-3.9,3.5-7.3,7.6-10.2,12c-0.1,0.2-0.2,0.3-0.3,0.4c-0.3,0.3-0.4,0.9-1,0.7
					s-1.1-0.4-1.2-1.1C173.2,225.2,173,224.5,173.1,223.7z"/>
			</g>
			<g>
				<path class="st3" d="M104.4,237.7c0.9-1.6,2.3-2.6,3.9-3.4c0.3-0.2,0.4,0,0.5,0.3c0.3,0.8,0.7,1.6,1.2,2.4c1.6,2.6,4,4,7,4.5
					c4.7,0.7,9.4,1.1,14.2,1.4c3.2,0.2,6.3,1.2,8.9,3.1c0.3,0.2,0.4,0.3,0.8,0.1c3.1-2.4,6.8-3.1,10.6-3.3c4-0.2,8.1-0.7,12.1-1.2
					c4.1-0.5,7-2.8,8.5-6.8c0.3-0.8,0.6-0.7,1.2-0.4c1.6,0.7,2.9,1.7,3.8,3.2c0.3,0.6,0.1,1.2-0.1,1.8c-0.7,2.4-1.9,4.6-3.5,6.5
					c-0.6,0.7-0.8,0.6-1.1-0.2c-0.4-1-0.8-2.1-1.2-3.1c-0.1-0.3-0.1-0.7-0.5-0.7c-0.3,0-0.4,0.4-0.5,0.6c-1.6,3.4-3.7,6.4-6.4,9.1
					c-0.3,0.3-0.5,0.8-1,0.7c-0.4-0.1-0.3-0.7-0.4-1.1c-0.1-0.9-0.1-1.7-0.3-2.8c-0.7,1.1-1.5,2.1-2.3,3c-1.7,1.9-3.6,3.5-5.8,5
					c-0.2,0.1-0.5,0.3-0.7,0.1c-0.2-0.2-0.2-0.5-0.1-0.7c0.2-1,0.1-2,0-3.2c-1.2,1.4-2.4,2.6-3.7,3.7c-2.2,1.8-4.7,3.4-7.3,4.6
					c-0.9,0.4-1.8,0.4-2.8,0c-2.9-1.2-5.5-2.9-7.9-5c-1.1-1-2.1-1.9-3.1-3.2c-0.1,1.1,0,2-0.1,2.9c0,0.3,0.1,0.8-0.3,1
					c-0.4,0.2-0.7-0.2-1-0.4c-2.9-2-5.6-4.5-7.6-7.5c-0.1-0.1-0.1-0.2-0.3-0.2c0,0.9-0.2,1.8-0.2,2.7c0,0.4,0,0.9-0.4,1
					c-0.4,0.2-0.7-0.3-0.9-0.6c-2.5-2.7-4.8-5.7-6.4-9.1c-0.1-0.3-0.3-0.6-0.5-0.9c-0.5,0.6-0.7,1.2-0.9,1.9c-0.3,0.7-0.5,1.3-0.8,2
					c-0.3,0.9-0.5,0.9-1.2,0.2c-0.7-0.8-1.2-1.6-1.7-2.5c-0.8-1.4-1.5-2.8-1.8-4.5C104.3,238.5,104.2,238.1,104.4,237.7z"/>
			</g>
			<g>
				<path class="st4" d="M104.4,237.7c0.5,3.3,2,6.1,4.2,8.7c0.7-1.8,1.2-3.5,2.2-5.2c1.8,4.2,4.5,7.8,7.8,11.1
					c0.4-1.4,0.2-2.9,0.6-4.5c2.3,3.6,5.4,6.4,8.9,8.7c0-1.5,0-2.8,0-4.4c0.4,0.1,0.6,0.5,0.9,0.7c2.6,2.9,5.8,5.3,9.2,7.2
					c2.2,1.2,4,0.6,6-0.4c3-1.6,5.7-3.7,8-6.3c0.4-0.4,0.7-0.8,1.1-1.3c0.4,1.5,0.2,2.9,0.1,4.5c3.6-2.3,6.7-5.1,9-8.8
					c0.2,1.6,0.3,3,0.4,4.5c1-0.8,1.8-1.8,2.6-2.7c2-2.3,3.6-5,4.9-7.7c0.1-0.2,0.1-0.4,0.3-0.4c0.3,0,0.3,0.2,0.4,0.4
					c0.6,1.2,1,2.4,1.5,3.7c0.1,0.3,0.1,0.6,0.4,0.8c2-2.3,3.5-5,4.1-8c0.1-0.2,0-0.5,0-0.8c1.6,2.6,1.7,5.4,0.9,8.2
					c-0.7,2.6-2.2,5-3.9,7.2c-0.7-1.9-1.2-3.8-2.3-5.6c-1.9,4.6-4.7,8.4-8.1,12c-0.2-1.6-0.3-3.1-0.5-4.9c-2.4,3.8-5.5,6.9-9.2,9.3
					c0-1.6,0-3.1,0-4.9c-0.8,0.8-1.4,1.5-2,2.2c-3,3-6.3,5.7-10.4,7.2c-0.5,0.2-0.9,0.2-1.4,0c-3.5-1.3-6.7-3.5-9.4-6.2
					c-1-1-2-2-3-3.2c0,1.7,0,3.2,0,4.9c-3.7-2.5-6.9-5.5-9.3-9.4c-0.2,1.6-0.3,3.1-0.4,4.9c-3.5-3.5-6.2-7.5-8.1-11.9
					c-1,1.8-1.6,3.6-2.2,5.6c-2-2.4-3.6-5.1-4.2-8.1c-0.5-2.3-0.4-4.7,0.8-6.8C104.2,237.9,104.3,237.8,104.4,237.7z"/>
			</g>
			<g>
				<path class="st5" d="M173.5,165.4c-1.4,1.1-2.8,2.3-4.2,3.4c0,0.4,0.3,0.2,0.5,0.2c2.4-0.2,4.7-0.9,7-1.6
					c0.2-0.1,0.5-0.2,0.7-0.2c0.1,0.5-0.3,0.6-0.6,0.8c-1.9,1.4-4,2.6-6.4,3.6c0.6,0.1,1,0,1.5,0c0.3,0,0.6,0,0.8-0.1
					c0.8-0.1,1.6-0.3,2.4-0.4c0.3-0.1,0.5-0.1,0.8-0.1s0.7-0.2,0.8,0.2c0.1,0.3-0.2,0.5-0.4,0.7c-0.8,0.6-1.6,1.1-2.5,1.4
					c-1.2,0.4-2.5,0.8-3.7,1c-2.5,0.5-5.1,1.1-7.6,1.3c-0.3,0-0.6,0.1-0.8,0.1c-0.3,0-0.6,0-0.8,0.1c-0.2,0-0.4,0.1-0.6,0.1
					c-0.3,0-0.6,0-0.8,0.1c-0.2,0-0.4,0.1-0.6,0.1c-0.3,0-0.6,0-0.8,0.1s-0.5,0.1-0.7,0.1c-0.3,0-0.7,0-1,0.1
					c-0.4,0.1-0.7,0.1-1.1,0.1c-1.1,0-2.1,0-3.2,0c-2.8,0-5.4-0.9-7.5-2.6c-0.3-0.2-0.6-0.5-0.5-0.9c0.2-0.7,0.7-1.2,1.3-1.5
					c1.9-1,3-2.7,3.8-4.7c0.1-0.2,0.2-0.5,0.3-0.7c0.5-2.7,2.5-4.2,4.7-5.7c0.4-0.3,0.8,0,1.2-0.2c2.4-1.2,3.6-4.5,2.6-7
					c-0.2-0.5-0.2-0.7,0.3-0.9c5.6-2.8,9.8-7.1,13.1-12.4c0.1-0.1,0.1-0.2,0.2-0.3c0.4,0.1,0.3,0.5,0.3,0.7c-0.6,3.1-1.5,6.2-3.1,9
					c0,0,0,0.1,0,0.2c0.3,0,0.6-0.2,0.9-0.2c0.1,0,0.3,0,0.3,0.2c-0.1,0.5-0.5,0.9-0.8,1.4c1.3-0.2,2.3-0.7,3.4-1.3
					c2.1-1.1,4-2.6,5.8-4.2c0.2-0.2,0.4-0.4,0.6-0.5c0.3,0,0.2,0.2,0.2,0.3c-0.1,0.4-0.3,0.7-0.6,1c-1.9,2.8-4.1,5.6-6.6,8
					c-2,2-4.2,3.9-6.7,5.6c-0.4,0.3-0.8,0.5-1.1,0.6c1.7-0.5,3.5-1.2,5.3-2c0.2-0.1,0.4-0.2,0.6,0c-1.7,1.7-3.6,3.2-5.8,4.6
					c0.7,0.1,1.2-0.2,1.8-0.4c4.5-1.6,8.4-4,12.4-6.5c1.7-1,3.3-2.1,5.1-3.2c0.4,0.3,0,0.6-0.1,0.7c-0.8,1-1.6,2-2.5,2.9
					c-3,3-6.4,5.8-9.9,8.4c-0.6,0.5-1.3,0.9-2,1.4c1.4-0.2,2.8-0.4,4.1-0.8C173.1,165.1,173.4,164.9,173.5,165.4z"/>
			</g>
			<g>
				<path class="st6" d="M102.4,144.7c1.4,1,2.5,2.2,3.9,3.1c0.9,0.6,1.9,1.2,2.9,1.8c0.9,0.5,1.9,0.8,3,1.1c-0.2-0.6-0.7-1-0.8-1.5
					c0.4-0.5,0.8,0.1,1.2,0c-1-1.6-1.6-3.2-2.1-5.1c-0.4-1.3-0.8-2.7-1-4.1c-0.1-0.3-0.2-0.7,0.2-0.9c3.2,5.6,7.6,9.9,13.4,12.8
					c0.3,0.2,0.5,0.3,0.3,0.7c-0.9,2.2-0.5,4.1,1.2,5.8c0.6,0.6,1,1.4,2,1.4c0.3,0,0.6,0.1,0.8,0.3c0.3,0.3,0.7,0.5,1,0.7
					c1.7,1,2.8,2.5,3.3,4.5c0.4,1.3,1,2.6,1.9,3.7c0.6,0.8,1.3,1.4,2.2,1.9c0.7,0.4,1.2,0.8,1.4,1.6c-0.1,0.5-0.4,0.8-0.8,1
					c-1.4,1.1-3,1.7-4.8,2.1c-2.4,0.5-4.9,0.5-7.3,0.3c-0.3-0.1-0.6-0.1-0.9-0.1c-5.9-0.2-11.5-1.3-17-3.3c-0.8-0.3-1.5-0.7-2.1-1.2
					c-0.2-0.2-0.4-0.4-0.3-0.6c0.1-0.3,0.5-0.2,0.7-0.1c1.3,0.3,2.7,0.5,4.1,0.7c0.5,0.1,1.1,0.1,1.6,0c0.1,0,0-0.2,0-0.1
					c0,0,0,0-0.1,0.1c-0.2,0.1-0.4-0.1-0.6-0.1c-2.2-1-4.4-2.2-6.4-3.6c-0.2-0.2-0.5-0.3-0.6-0.6c0-0.1,0-0.3,0.2-0.2
					c2.4,0.8,4.9,1.6,7.5,1.9c0.3,0,0.6,0.1,0.8,0.1s0.4,0.2,0.3-0.2c-1.4-1.1-2.9-2.2-4.2-3.4c0.1-0.5,0.5-0.3,0.7-0.2
					c1.4,0.3,2.7,0.5,4.1,0.8c-3.1-2.3-6.3-4.8-9.2-7.4c-1.5-1.4-2.9-2.8-4.2-4.2c-0.2-0.2-0.5-0.4-0.3-0.8c2.8,1.8,5.7,3.6,8.7,5.2
					c3.1,1.5,6.3,2.9,9.6,3.9c0.2,0.1,0.3,0.1,0.5,0.1c-1.7-1.3-3.4-2.5-5-4c0.2-0.4,0.6-0.1,0.8,0c1.4,0.5,2.8,1,4.1,1.4
					c-1.1-0.7-2.1-1.5-3.2-2.3c-4.2-3.4-8.1-7.2-11.2-11.6C102.7,145.7,102.2,145.3,102.4,144.7z"/>
			</g>
			<g>
				<path class="st7" d="M140,199.3c0,2.6,0,5.4,0.1,8c0,1.6,0.2,3.2,0.3,4.9c0,0.2,0,0.4,0.2,0.6c0.2-2.3,0.3-4.7,0.4-7
					c0-2.1,0-4.2,0-6.5c0.2-0.5,0.6-0.9,1-1.1c2.6-1.5,5.4-2.3,8.4-1.8s4.7,2.4,4.8,5.5c0.1,2.8-0.5,5.4-1.6,7.9
					c-0.9,2-1.6,4.1-2.6,6.2c-0.3,0.6-0.6,0.9-1.4,0.9c-1.4,0-2.5,0.8-3.6,1.7c-0.4,0.3-0.7,0.7-1.1,1c-0.3,0.3-0.7,0.4-1.1,0.1
					c-0.7-0.4-1.5-0.8-2.3-1.2c-0.6-0.3-1.2-0.3-1.9,0c-0.7,0.4-1.4,0.7-2.1,1.1c-0.7,0.4-0.9,0.4-1.5-0.3c-0.8-1-1.8-1.7-3-2.2
					c-0.5-0.2-1.1-0.4-1.7-0.3c-0.5,0.1-0.8-0.2-1-0.6c-0.3-0.6-0.6-1.2-0.8-1.8c-1-2.6-2.4-5.2-3-8c-0.4-1.9-0.6-3.8-0.3-5.8
					c0.4-2.2,1.6-3.6,3.8-4.1c3.3-0.8,6.4,0,9.3,1.8C139.5,198.5,139.8,198.9,140,199.3z"/>
			</g>
			<g>
				<path class="st8" d="M140,199.3c-2-2.1-4.8-2.7-7.5-2.9c-1.8-0.1-3.5,0.2-5,1.5c-0.8,0.7-1.2,1.7-1.4,2.8
					c-0.5,3.1,0.2,6,1.3,8.8c0.9,2.2,1.8,4.4,2.8,6.6c0.2,0.4,0.4,0.6,1,0.5c1.3-0.1,2.4,0.7,3.4,1.4c0.3,0.2,0.6,0.5,0.9,0.7
					c0.3,0.3,0.5,1,1,1c0.4,0,0.9-0.4,1.3-0.6c2.7-1.3,2.1-1.4,5,0c1.4,0.7,1.3,0.7,2.4-0.4c1-1,2.2-1.8,3.6-2.1
					c0.1,0,0.2-0.1,0.2-0.1c1.1,0.4,1.3-0.5,1.6-1.1c1.3-3,2.7-6,3.5-9.2c0.5-1.9,0.6-3.9,0.2-6c-0.3-1.9-2-3.4-4.2-3.8
					c-3-0.5-5.8,0.2-8.4,1.8c-0.4,0.3-0.7,0.6-1.1,1c0-0.6,0-1.1-0.1-1.7c-0.1-0.9,0.3-1.6,1-2.1c1.2-1.1,2.7-1.7,4.2-2.1
					c2.4-0.7,4.9-1.1,7.4-0.9c4.8,0.5,6.9,2.8,7,7.2c0.1,2.5-0.4,5.1-1.4,7.4c-1.4,3.3-2.9,6.7-4.6,9.9c-0.3,0.5-0.5,0.8-1.2,0.7
					c-0.9-0.2-1.7,0.1-2.6,0.4c-1.7,0.7-3.2,1.7-4.6,3.1c-0.3,0.3-0.5,0.4-1,0.2c-1.1-0.6-2.3-1.1-3.5-1.7c-1-0.4-1.9-0.3-2.8,0.1
					c-1.1,0.5-2.2,1.1-3.3,1.6c-0.4,0.2-0.5,0-0.7-0.2c-1.3-1.4-2.8-2.4-4.6-3.2c-0.8-0.4-1.7-0.6-2.6-0.4c-0.6,0.1-0.8-0.1-1-0.6
					c-1.3-2.5-2.3-5.2-3.6-7.7c-1.4-2.7-2.2-5.6-2.4-8.7c-0.3-3.7,1.3-6.6,4.6-7.6c1.2-0.4,2.5-0.6,3.7-0.6c2.8,0.1,5.7,0.6,8.2,1.8
					c0.4,0.2,0.7,0.4,1.1,0.6c1.3,0.8,2.4,1.8,1.9,3.6C140,198.6,140.1,199,140,199.3z"/>
			</g>
			<g>
				<path class="st3" d="M53.3,75.6c1-0.1,2-0.1,3.1-0.4c-2.2-1.3-4.2-2.7-6-4.5c0.3-0.5,0.6-0.1,0.9,0c1.2,0.5,2.3,0.5,3.7,0.3
					c-1.9-0.9-3.1-2.3-4-4c-0.1-0.3-0.4-0.5-0.2-0.9c0.6-0.1,1.2-0.1,1.8-0.4c-1.2-0.6-2.3-1.3-3.1-2.4c-0.8-1.8-1-3.7-1.2-5.7
					c-0.1-1.6,0-3.1,0.2-4.8c0-0.3,0.1-0.7,0.5-0.7c0.4,0.7,0.9,1.4,1.3,2.1c0.8,1.5,1.4,3.2,2.3,4.8c1.5,2.3,3.3,4.1,5.6,5.8
					c0.1,0.1,0.3,0.3,0.5,0.2c0.2-0.1,0.2-0.4,0.2-0.5c0-0.7,0-1.3,0-2c0-0.3,0-0.6,0.2-0.7c0.3-0.1,0.4,0.2,0.6,0.4
					c1.6,2.1,3.5,4,5.4,5.9c2.1,2.1,4.6,3.9,7.2,5.4c0.1,0.1,0.2,0.2,0.1,0.3c-3.7,2.5-7.2,5.4-10.5,8.3c-0.5,0.5-1.1,1-1.8,1.3
					c-0.3,0.2-0.4,0.1-0.6-0.1c0.5-1.7,1.3-3.2,2-4.9c-1.4,0.4-2.8,0.7-4.2,0.5c-1.2-0.4-2.1-1.3-3-2.1
					C53.9,76.4,53.3,76.3,53.3,75.6z"/>
			</g>
			<g>
				<path class="st3" d="M231.5,63.4c-0.8,1.1-1.8,1.8-3.1,2.4c0.6,0.3,1.2,0.4,1.8,0.4c0.2,0.3,0,0.5-0.2,0.8c-1,1.7-2.1,3.2-4.1,4
					c1.4,0.2,2.6,0.1,3.8-0.3c0.3-0.1,0.6-0.4,0.9-0.1c-1.7,1.8-3.8,3.2-6.1,4.7c1.1,0.3,2.1,0.3,3,0.4c0.1,0.2,0,0.4-0.2,0.5
					c-1.2,1-2.3,2.1-3.7,2.7c-1.4,0.2-2.8,0-4.4-0.5c0.7,1.7,1.5,3.2,2,5c-0.2,0.2-0.4,0.3-0.7,0.2c-2.6-1.9-4.9-4.2-7.4-6.3
					c-1.5-1.1-3.1-2.1-4.6-3.3c-0.1-0.1-0.1-0.2-0.1-0.3c0.9-0.8,1.9-1.3,2.9-2c3.2-2.3,6.1-5.1,8.6-8.2c0.3-0.4,0.7-0.8,1-1.2
					c0.1-0.2,0.3-0.5,0.5-0.3c0.2,0.1,0.2,0.4,0.2,0.6c0,0.7,0,1.4,0,2.2c0,0.2-0.1,0.5,0.2,0.6c0.2,0.1,0.3-0.1,0.5-0.2
					c3.2-2.2,5.6-5.2,7.1-8.8c0.3-0.6,0.5-1.2,0.8-1.8c0.5-0.8,0.9-1.5,1.4-2.3c0.6,0.2,0.4,0.8,0.5,1.2c0.4,2.5,0.2,5.1-0.3,7.5
					C232.1,61.6,231.9,62.5,231.5,63.4z"/>
			</g>
			<g>
				<path class="st9" d="M126.6,150.7c1.3-0.9,2.8-1.1,4.5-1c0.4,0,0.8,0.2,1.1,0.6c0.9,1.7,2.5,2.3,4.4,2.8c3,0.7,6,0.6,9-0.2
					c1.4-0.4,2.6-1.1,3.3-2.4c0.3-0.5,0.7-0.7,1.3-0.7c1.6-0.1,3,0.2,4.4,1.1c1.4,1.3,0.5,3.8-1.5,4.1c-1.6,0.2-3,0.7-4.2,1.7
					c-1.5,1.3-2.4,2.8-1.9,4.9c0.6,2.7-0.6,4.8-2.4,6.7c-0.1,0.1-0.3,0.2-0.4,0.3c-0.5,0.3-0.8,0.2-0.9-0.4
					c-0.4-2.2-1.3-4.2-2.2-6.3c0-0.1-0.1-0.2-0.3-0.3c-0.5,1.2-1,2.4-1.4,3.6c-0.3,0.9-0.5,1.8-0.7,2.8c-0.2,0.8-0.4,0.9-1.1,0.4
					c-1.6-1.1-2.6-2.6-3.1-4.5c-0.3-0.8,0-1.6,0.1-2.5c0.4-2.8-1.1-5.1-4-5.7c-0.6-0.1-1.3-0.1-1.9-0.2c-1.1-0.2-2-0.5-2.4-1.7
					C125.5,152.6,125.8,151.6,126.6,150.7z"/>
			</g>
			<g>
				<path class="st10" d="M147.5,231.6c-0.2-0.6-0.3-1-0.4-1.5c-0.1-0.6-0.5-0.6-0.9-0.4c-0.7,0.3-1.4,0.7-1.9,1.2
					c-0.2,0.3-0.4,0.4-0.6,0c-0.8-1.5-1.4-1.2-2.2,0c-0.3,0.4-0.5,0.8-0.8,1.4c-0.3-0.6-0.7-1.1-1-1.6c-0.7-1-1.2-1-1.8,0
					c-0.3,0.5-0.5,0.6-0.9,0.1c-0.5-0.5-1.1-0.8-1.8-1.1c-0.4-0.2-0.8-0.1-0.9,0.4c-0.1,0.5-0.3,1-0.4,1.6c-0.9-0.8-1.9-1.5-3.1-1.7
					c-0.3-0.1-0.2-0.3-0.2-0.6c0.1-1.7-0.1-3.4-0.7-5.1c-0.5-1.4-1.5-2.4-3-2.7c-0.4-0.1-0.5-0.3-0.5-0.6c-0.1-2.2,1-3.1,3.2-2.4
					c2.7,0.9,4.8,2.6,6.4,5c0.1,0.2,0.3,0.4,0.4,0.6c0.2,0.2,0.3,0.4,0.6,0.2s0.2-0.4,0.1-0.7c-0.2-0.3-0.4-0.7-0.6-1.1
					c-0.2-0.3-0.2-0.6,0.2-0.7c1.2-0.5,2.3-1.1,3.5-1.6c0.5-0.2,1.1-0.2,1.6,0c1.1,0.5,2.2,1,3.3,1.5c0.4,0.2,0.5,0.4,0.2,0.8
					c-0.2,0.3-0.4,0.6-0.6,0.9c-0.2,0.3-0.4,0.6,0,0.8c0.3,0.2,0.5-0.1,0.7-0.3c0.7-1.1,1.5-2.1,2.4-3c1.5-1.3,3.1-2.4,5.2-2.7
					c1.6-0.2,2.9,1.5,2.3,3c-0.1,0.1-0.1,0.2-0.3,0.2c-2.8,0.6-3.4,2.7-3.8,5.2c-0.1,0.9-0.2,1.7-0.1,2.6c0,0.2,0.1,0.5-0.3,0.6
					C149.4,230.1,148.4,230.7,147.5,231.6z"/>
			</g>
			<g>
				<path class="st4" d="M71.8,203c1.8,0.4,3.6,0.7,5.4,1.2c5.8,1.5,11.1,4.1,15.8,7.9c4.2,3.3,7.9,7.3,10.9,11.7c0.7,1,1.3,2,2,3
					c0.4,0.7,1.1,0.7,1.6,0c0.1-0.1,0.1-0.2,0.2-0.3c-0.1,1.5-0.1,3.1,0.1,4.7c0.1,0.3-0.1,0.4-0.4,0.5c-0.6,0.3-1.2,0.5-1.7,0.9
					c-0.4,0.3-0.6,0.2-0.8-0.2c-1.9-3.1-3.9-6.2-6.4-8.9c-7.9-9.3-17.8-15.1-30.1-16.8c-0.7-0.1-1.5-0.2-2.2-0.3s-1.5-0.1-2.5-0.2
					C66.4,204.5,69,203.6,71.8,203z"/>
			</g>
			<g>
				<path class="st4" d="M173.3,226.1c0.2,0.6,0.7,0.8,1.2,1c0.4,0.2,0.4-0.1,0.6-0.3c1.1-1.7,2.3-3.4,3.5-5.1
					c5-6.5,10.9-11.6,18.3-15.1c3.8-1.8,8-2.9,12.2-3.5c0.1,0,0.1-0.1,0.2-0.1c2.3,0.4,6.9,2.1,7.7,3c-2.5,0.2-5,0.5-7.4,1
					c-9.1,1.7-16.9,6-23.6,12.3c-3.8,3.7-7,7.9-9.8,12.4c-0.3,0.5-0.5,0.6-1,0.3c-0.4-0.3-0.9-0.5-1.3-0.6c-0.6-0.2-0.8-0.5-0.7-1.2
					C173.5,229,173.4,227.5,173.3,226.1z"/>
			</g>
			<g>
				<path class="st10" d="M174.2,181.1c-1.3,4.4-2.4,8.7-3.2,13.2c-1,5.2-1.6,10.4-2,15.7c-0.3,4.2-0.3,8.6-0.5,12.8
					c-0.1,2.1-0.3,4.4-1,6.4c-1.8,5.6-5.6,9.4-12.6,8.9c-2.6-0.2-5.2-0.5-7.8-0.3c-1.7,0.1-3.4,0.2-5,0.9c-0.9,0.4-2,0.4-3,0
					c-2.4-0.9-5.1-0.9-7.7-0.9c-2.3,0-4.7,0.4-7,0.3c-4.6,0-7.6-2.3-9.7-6.2c-1.3-2.4-1.8-5.1-2-7.8c-0.3-3.6-0.2-7.3-0.3-10.9
					c-0.6-10.8-2.1-21.5-5.4-31.9c0-0.1-0.1-0.3-0.1-0.5c0.3,0,0.3,0.2,0.4,0.4c1.7,3.2,2.7,6.8,3.7,10.3c2.5,8.6,3.3,17.3,2.9,26.2
					c-0.1,2.5-0.5,5-0.4,7.5c0.2,6.4,3.8,10.4,10.2,11.1c2.6,0.3,5.2,0.2,7.8,0.2c1.9,0,3.8,0.1,5.8,0.1c1.1,0,2.1,0,3.1-0.6
					c0.1-0.1,0.2-0.1,0.3,0c1.2,0.7,2.5,0.7,3.8,0.6c3.2-0.2,6.4,0,9.6,0c1.9,0,3.8-0.2,5.8-0.7c4.7-1.4,7.4-4.9,7.7-9.8
					c0.2-2.7-0.2-5.5-0.4-8.2c-0.2-4.1-0.1-8.3,0.3-12.4c0.6-6.5,2.2-12.6,4.1-18.8c0.6-2,1.5-3.8,2.4-5.7
					C174.1,181.1,174.1,181.1,174.2,181.1z"/>
			</g>
			<g>
				<path class="st3" d="M187.3,176.8c6.7-5.5,11.5-12.1,14.2-20.3c1-3.1,1.5-6.5,1.5-9.8c0-0.1,0-0.2,0.1-0.4
					c1.2,1.6,2.3,3.3,3,5.5c0.5-1,0.8-2,1-3c0.7-3.3,0.2-6.6-0.5-9.8c-0.8-3.7-1.8-7.4-2.2-11.2c0-0.2,0-0.3-0.1-0.7
					c1.4,2,2.7,3.8,4.8,5.5c-0.9-5.1-1.6-10-1.9-15.1c-0.1-0.2,0-0.4,0.2-0.2c0.2,0.1,0.2,0.4,0.3,0.6c1.5,3.9,3.2,7.7,5.3,11.3
					c0,0.1,0.1,0.1,0.1,0.2c0.1,0.3,0.3,0.5,0.1,0.8c-0.2,0.2-0.5,0-0.7-0.1c-0.3-0.1-0.5-0.3-0.9-0.3c0,0.8,0.3,1.5,0.4,2.2
					c0.5,2.3,1,4.6,1.3,7c0,0.3,0.2,0.6-0.2,0.7c-0.2,0-0.3-0.1-0.4-0.3c-0.5-0.9-1.1-1.7-1.6-2.5c-0.1-0.1-0.1-0.3-0.1-0.3
					c0.2,1.1,0.3,2.2,0.4,3.3c0.1,0.4,0.2,0.8-0.2,1.2c-0.3-0.1-0.4-0.3-0.6-0.6c-0.6-0.9-1.2-1.8-1.8-2.8c0.2,1.9,0.5,3.8,0.6,5.8
					c0.2,3.9,0.3,8-0.8,11.8c-0.1,0.3-0.1,0.7-0.4,0.9c-0.7-0.3-0.6-1-0.7-1.5c-0.1,1-0.4,2.1-0.9,3c-0.4,0.1-0.4-0.2-0.4-0.4
					c-0.3-0.9-0.5-1.8-0.8-2.6c-1.2,4.6-3.4,8.6-6.2,12.4c-2.4,3.4-5.2,6.6-7.9,9.7c-0.3,0.4-0.7,0.8-1.3,0.7c0-0.2,0.1-0.4,0.2-0.6
					c-1,0.5-1.9,1-2.9,1.1C186.6,177.3,187.1,177.2,187.3,176.8z"/>
			</g>
			<g>
				<path class="st3" d="M76.5,128.1c-0.3,2.9-1,5.9-1.7,8.8c-0.7,2.9-1.3,5.9-1.3,8.9c0,1.8,0.3,3.6,1,5.5c0.1,0.1,0.1,0.3,0.3,0.4
					c0.6-2,1.7-3.7,3-5.5c0,2.2,0.2,4.2,0.6,6.3c1.3,7.2,4.7,13.4,9.3,18.8c1.8,2.1,3.8,3.9,6,5.7c0.2,0.3,0.6,0.5,0.3,0.9
					c-1-0.2-1.9-0.6-2.9-1.1c-0.1,0.2,0.1,0.4,0.1,0.6c-0.5,0.2-0.8-0.2-1-0.5c-1.5-1.5-2.9-3.2-4.4-5c-2.5-3-4.9-6.2-6.8-9.6
					c-1.4-2.4-2.5-5.1-3.1-7.8c-0.2,0.7-0.4,1.5-0.7,2.3c-0.1,0.3-0.1,0.7-0.6,0.7c-0.6-0.5-0.5-1.3-0.8-2c-0.1-0.3-0.1-0.5-0.2-0.8
					c0-0.1-0.2,0-0.1,0l0,0c0,0.5,0.1,1-0.6,1.2c-0.4-0.2-0.4-0.6-0.5-1c-0.5-2-0.8-3.9-0.8-6.1c-0.1-3.7,0.2-7.5,0.7-11.2
					c-0.6,0.9-1.2,1.8-1.8,2.7c-0.2,0.3-0.3,0.5-0.6,0.7c-0.4-0.2-0.3-0.6-0.2-0.9c0.1-1.1,0.2-2.1,0.4-3.3
					c-0.5,0.8-0.9,1.4-1.4,2.1c-0.1,0.2-0.2,0.5-0.6,0.6c-0.5-0.3-0.3-0.8-0.3-1.2c0.3-2.5,0.9-5.1,1.5-7.6c0.1-0.3,0.2-0.6,0.2-1
					c-0.4,0-0.7,0.3-1.1,0.4c-0.2,0.1-0.5,0.2-0.6,0s0-0.4,0.1-0.6c0.3-0.6,0.6-1.1,0.9-1.7c1.7-3.1,3.1-6.4,4.4-9.6
					c0.1-0.3,0.2-0.7,0.6-0.9c0.2,0.2,0.1,0.4,0.1,0.6c-0.3,4.9-1,9.6-1.9,14.6c1.8-1.4,3.1-3.1,4.4-5
					C76.7,127.5,76.5,127.8,76.5,128.1z"/>
			</g>
			<g>
				<path class="st11" d="M124.3,176.1c2.5,0,5.2,0.2,7.7-0.5c1.6-0.4,3.1-0.9,4.4-2c0.3-0.2,0.4-0.6,0.8-0.8
					c0.8,1.4,0.5,2.7-0.4,3.9c-0.7,1-1.8,1.6-3,2.1c-2.3,1-4.9,1.3-7.5,1.3c-3.6-0.1-7.2-0.4-10.7-1c-3.4-0.6-6.9-1.4-10.2-2.8
					c-0.9-0.4-1.8-0.9-2.5-1.9c1.7,0.4,3.3,0.8,5,0.9c0.6,0.1,1.1,0.1,1.7,0c0.1,0,0.2,0,0.5-0.1c-1.9-1-3.8-2-5.6-3.1
					s-3.4-2.4-5.1-3.8c-1.6-1.4-3-3-4-4.9c2.5,1.4,5.2,2.5,7.8,3.6c-0.1,0.4,0.2,0.4,0.4,0.5c2,1.4,4.2,2.6,6.5,3.7
					c0.2,0.1,0.5,0.3,0.7,0.5c-2.2,0.3-4.4-0.2-6.5-0.7c0.4,0.7,1.1,1.2,2.2,1.6c3,1.2,6.2,1.9,9.3,2.5c2.5,0.4,5.2,0.9,7.8,0.8
					C123.8,176.2,124.1,176,124.3,176.1z"/>
			</g>
			<g>
				<path class="st12" d="M143.8,172.8c0.3,0.7,1,1.1,1.6,1.5c1.9,1.1,3.9,1.8,6.2,1.8c1.1,0.1,2.3,0.1,3.4,0c0.4,0,0.7,0,1.1,0
					c0.3-0.2,0.6,0,0.9-0.1c0.3,0,0.5,0,0.8,0c0.2-0.2,0.5,0,0.8-0.1c0.2,0,0.4,0,0.6,0c0.2-0.2,0.5,0,0.8-0.1c0.2,0,0.4,0,0.6,0
					c0.2-0.2,0.5,0,0.8-0.1c2.1-0.2,4.4-0.6,6.5-1c1.9-0.4,3.9-0.8,5.8-1.4c0.9-0.3,1.8-0.9,2.6-1.4c0.1-0.1,0.2-0.3,0.4-0.5
					c-1.5,0.1-2.7,0.6-4.1,0.6c-0.2,0.2-0.5,0-0.8,0.1c-0.6,0-1.2,0.1-1.9-0.2c1.1-0.6,2.1-1.1,3.1-1.7c1.5-0.8,2.9-1.7,4.2-2.8
					c2.7-1.1,5.5-2.3,8.1-3.7c-1.9,2.5-4.1,4.7-6.6,6.6c-2.4,2-5.1,3.6-7.9,5.2c0.8,0.4,1.2,0.4,3.4,0c1.1-0.2,2.3-0.5,3.6-0.7
					c-0.7,1-1.6,1.5-2.5,1.9c-2,1-4.2,1.4-6.5,1.8c-5.3,1.1-10.5,1.9-15.9,2c-2.5,0-5-0.5-7.2-1.7c-0.7-0.4-1.3-0.8-1.8-1.4
					C143.1,175.8,142.9,174.5,143.8,172.8z"/>
			</g>
			<g>
				<path class="st0" d="M72,53.2c-2.4,0.8-5.1,1.2-7.7,1.5c0.3,0.4,0.7,0.5,1,0.6c2.1,0.6,4.2,0.9,6.4,1.1c2.4,0.2,4.9,0.4,7.3,0.4
					c-2,0.6-4.1,1.1-6.2,1.6c2.7,0.5,5.6,0.9,8.4,0.9c2.8,0,5.7-0.2,8.4-1.1c-1.8,2.2-3.4,4.5-4.1,7.4c-3.4-3.1-7.9-3.9-12.2-5.1
					c-2.6-0.6-5.2-1.5-7.6-2.8c-0.8-0.5-1.6-1-2.3-1.8c0,1.3,0,2.4,0,3.5c-0.4-0.1-0.5-0.4-0.7-0.6c-1.6-2-3-4.1-4.8-6.1
					c-0.7-0.7-1.1-1.6-1.4-2.6c-0.4,0.9-0.5,1.8-0.8,2.6c-2.4-1.3-5-7.1-4.5-10.6c2.8,5.7,7.7,7.6,13.6,7.9
					c-2.1,0.8-4.4,0.7-6.6,1.1c1,0.8,2.1,1,3.2,1.2c3.4,0.6,7,1,10.5,0.8C72,53,72,53.1,72,53.2z"/>
			</g>
			<g>
				<path class="st0" d="M191.6,58.1c2.9,1.2,6.1,1.2,9.2,1.2c2.5-0.1,5-0.4,7.6-0.9c-2.2-0.5-4.4-0.9-6.3-1.6
					c7.5-0.1,13.3-0.9,14.6-2c-2.6-0.3-5.2-0.6-7.6-1.5c4.7-0.1,9.3-0.2,13.8-2c-2.1-0.5-4.5-0.4-6.6-1.2c5.8-0.3,10.7-2.1,13.5-7.8
					c1,2.2-1.5,8.4-4.4,10.5c-0.4-0.8-0.4-1.8-0.8-2.7c-0.4,1.6-1.5,2.7-2.5,3.9c-1.2,1.5-2.3,3-3.5,4.6c-0.2,0.3-0.4,0.5-0.8,1
					c0-1.3,0-2.4,0-3.6c-2.8,2.5-6.4,3.6-9.9,4.6c-1.9,0.5-3.8,0.9-5.8,1.5c-2.3,0.8-4.7,1.7-6.6,3.5c-0.7-2.8-2.3-5.2-4.2-7.3
					C191.4,58.2,191.5,58.1,191.6,58.1z"/>
			</g>
			<g>
				<path class="st13" d="M169.1,179.1c-0.2,2.7-0.3,5.4-0.5,8.1c-0.4,4.5-0.8,8.8-1.7,13.2c-0.2,1.1-0.5,2.2-0.9,3.3
					c-0.1,0.3-0.3,0.7-0.5,1c-0.1,0.2-0.3,0.5-0.6,0.5s-0.4-0.4-0.4-0.7c-0.7-2.5-1.1-5.2-1.5-7.8c-0.9-5.1-1.8-10.2-3-15.2
					c-0.2-0.7-0.1-0.9,0.6-0.9C163.3,180.2,166.2,179.7,169.1,179.1z"/>
			</g>
			<g>
				<path class="st13" d="M111.9,179.1c3,0.6,6,1.1,9,1.4c0.6,0.1,0.4,0.4,0.3,0.7c-0.9,3.8-1.7,7.8-2.4,11.7
					c-0.6,3.4-1.1,7-1.9,10.4c-0.1,0.5-0.3,0.9-0.4,1.4c-0.1,0.4-0.4,0.4-0.7,0.1c-0.4-0.4-0.6-0.8-0.7-1.3
					c-0.8-2.2-1.2-4.5-1.6-6.8c-0.9-5.8-1.2-11.5-1.5-17.3C111.9,179.4,111.9,179.3,111.9,179.1z"/>
			</g>
			<g>
				<path class="st4" d="M230.7,54.4c-0.7,2.6-2.1,5-3.8,7.1c-1.2,1.5-2.6,2.6-4.1,3.7c-0.2,0.1-0.3,0.4-0.6,0.2
					c-0.3-0.1-0.1-0.4-0.1-0.6c0-1,0-1.9,0-3c-3.7,4.8-7.9,8.9-13.1,11.8c-0.5-0.2-0.1-0.5,0-0.7c0.5-1,1-2,1.4-3.1
					c0.1-0.2,0.2-0.3,0.1-0.5c-0.4,0.2-0.8,0.4-1.2,0.7c-1.6,0.9-3.3,1.4-5.2,1.8c-0.8,0.2-1.6,0.5-2.4,0.7c-1.4-0.7-2.7-1.5-4.4-2
					c0-0.3,0.3-0.3,0.5-0.4c2.7-1.9,5.8-3,9-3.8c2-0.5,4-1.3,5.8-2.5c0.2-0.1,0.3-0.4,0.5-0.2c0.2,0.2,0,0.4,0,0.6
					c-0.4,1.5-1.1,2.9-1.8,4.5c5.5-3,9.7-7.5,13.7-12.6c0,1.2,0,2.3,0,3.3c0,0.2-0.2,0.6,0.1,0.7c0.1,0.1,0.4-0.2,0.6-0.3
					C227.5,58.1,229.2,56.3,230.7,54.4z"/>
			</g>
			<g>
				<path class="st4" d="M72.3,73.6c-1.5-0.6-2.8-1.6-4-2.6c-3.4-2.6-6.4-5.7-9.1-9.2c0,1.2,0,2.2,0,3.1c0,0.2,0.1,0.5-0.1,0.6
					s-0.4-0.1-0.5-0.2c-3.5-2.4-6.2-5.7-7.7-9.7c-0.1-0.4-0.3-0.8-0.4-1.2c1.4,1.8,3,3.5,5,5c0.3,0.2,0.6,0.4,0.9,0.6
					c0-1.4,0-2.7,0-4c3.9,4.9,8.2,9.3,13.7,12.4c-0.7-1.7-1.6-3.2-2-5.4c3.1,2.5,6.9,2.9,10.4,4.2c2.1,0.8,4.7,2.1,5.6,3.1
					c-1.5,0.5-2.9,1.3-4.4,2.1c-1.7-0.7-3.5-1-5.3-1.6c-1.2-0.4-2.4-1-3.6-1.8c0.1,0.6,0.3,1.1,0.5,1.6c0.3,0.7,0.7,1.3,1,2
					C72.3,73,72.5,73.2,72.3,73.6z"/>
			</g>
			<g>
				<path class="st4" d="M53.1,103.5c0.1-0.1,0.2-0.2,0.2-0.2c0.2,0.1,0.1,0.2,0.1,0.3c-0.2,0.9-0.4,1.8-0.5,2.7
					c-0.6,3.7-0.9,7.5-0.7,11.2c0,0.2-0.1,0.2-0.2,0.1c-0.3-1.1-0.2-2.2-0.1-3.1c-2.2,4.1-3.9,8.7-4.9,13.6
					c-0.6,3.1-1.2,6.3-2.2,9.3c-0.2,0.4-0.4,0.8-0.5,1.3c-1.7,1.9-3.7,3.6-5.9,5.3c0.2-0.5,0.4-1.1,0.7-1.6c2.2-4.9,3.5-10,4.5-15.3
					c1-6.2,3.4-11.9,6.4-17.4c1-1.8,1.9-3.6,2.9-5.6C53,104,53.1,103.8,53.1,103.5z"/>
			</g>
			<g>
				<path class="st14" d="M229,114c-0.2-2.8-0.5-5.8-0.9-8.6c-0.1-0.6-0.2-1.3-0.3-1.9v-0.1h0.1c0.9,2.1,2.1,4.1,3.2,6.2
					c3.3,6.2,5.8,12.7,6.8,19.7c0.7,4.7,2.3,9.1,4.1,13.5c0.1,0.3,0.4,0.6,0.2,1.1c-1.9-1.6-3.8-3.2-5.5-5.1
					c-1.2-2.4-1.6-5.2-2.2-7.7c-0.5-2.3-0.9-4.7-1.5-6.9c-0.8-2.8-1.8-5.5-3.1-8.1C229.6,115.6,229.2,114.9,229,114z"/>
			</g>
			<g>
				<path class="st15" d="M126.6,150.7c-0.3,0.7-0.8,1.3-0.8,2.2c0,1.3,0.6,2.1,1.9,2.4c1.1,0.2,2.2,0.1,3.2,0.6
					c1.3,0.6,2.4,1.4,3,2.6c0.4,0.8,0.5,1.7,0.3,2.5c-0.8,3.1,0.6,5.4,2.9,7.2c0.4,0.3,0.6,0.5,0.7-0.3c0.4-2.4,1.3-4.7,2.3-7.2
					c0.6,1.4,1.2,2.6,1.6,3.8c0.4,1.1,0.9,2.3,1,3.5c0,0.5,0.2,0.4,0.6,0.2c1.1-0.8,1.8-1.9,2.4-3.1c0.7-1.2,0.7-2.5,0.4-3.7
					c-0.5-2.2,0.5-3.7,2.1-5.1c1.2-1,2.5-1.4,4-1.7c2-0.3,2.6-1.7,1.8-3.6c0-0.1-0.1-0.2-0.1-0.3c1.6,0.9,2.7,2.3,2.7,4.2
					c0,1.8-0.8,3.1-2.4,4.1c0.3-1.7-0.2-2.2-1.9-2.2c-2.4-0.1-6.2,3.4-5.8,5.7c0.1,0.5,0.1,1,0.2,1.5c0.5,2.2-0.3,3.9-1.8,5.5
					c-0.8,0.7-1.7,1.3-2.6,1.9c-0.4,0.3-0.6,0.1-0.6-0.3c-0.3-2.6-1-5.2-1.6-7.7c-0.3,0-0.2,0.2-0.3,0.4c-0.6,2.4-1.2,4.9-1.5,7.4
					c0,0.3,0,0.6-0.5,0.4c-1.5-0.9-2.9-1.9-3.9-3.4c-0.7-1.1-0.9-2.3-0.7-3.6c0.1-0.5,0.2-0.9,0.2-1.4c0.2-1.3-0.1-2.4-1-3.4
					c-1.1-1.1-2.1-2.3-3.7-2.6c-0.4-0.1-0.7-0.1-1.1-0.1c-1.7,0-2,0.4-1.9,2C122.3,156.1,123.7,152.1,126.6,150.7z"/>
			</g>
			<g>
				<path class="st10" d="M124.7,180.9c1.2,0,2.3,0,3.4,0c0.3,0,0.5,0.1,0.7,0.3c1.1,0.9,2.4,1,3.7,0.8c2.1-0.4,4.1-0.3,6.3,0.1
					c0.5,0.1,2.8,0.1,3.3,0c2-0.4,4.1-0.5,6.3-0.1c1.4,0.3,2.6,0.1,3.7-0.8c0.2-0.1,0.4-0.2,0.6-0.2c1.1,0,2.3,0,3.4,0
					c-0.1,0.6-0.4,0.9-1.1,1c-2.1,0.5-3.7,1.9-4.9,3.7c-0.3,0.4-0.4,0.6-0.9,0.5c-1.3-0.2-2.6,0-3.7,0.8c-0.3,0.2-0.4,0.2-0.7,0
					c-1.4-0.7-2.8-0.6-4.2,0.3c-0.2,0.2-0.3,0.1-0.5,0c-1.3-1-2.8-1-4.2-0.3c-0.3,0.1-0.4,0.2-0.7,0c-1.1-0.8-2.4-0.9-3.7-0.8
					c-0.4,0-0.6,0-0.9-0.5c-1.2-1.9-2.8-3.4-5.3-3.8C124.8,181.8,124.9,181.3,124.7,180.9z"/>
			</g>
			<g>
				<path class="st14" d="M240.3,170.3c0.5-0.1,0.1-0.4,0-0.5c-1.1-2.6-2.1-5.4-2.9-8.2c-1.6-5.2-2.9-10.4-4.1-15.7
					c-0.1-0.4-0.1-0.9-0.2-1.3c0,0,0,0,0-0.1l-0.1,0.1c-0.4-0.1-0.4-0.4-0.4-0.7c-0.1-1.8-0.3-3.6-0.4-5.6c0.2-0.6,0.5-0.3,0.7,0
					c0.6,0.7,1.2,1.5,1.9,2.1c0.2,0.2,0.4,0.5,0.8,0.3c0.4,2,0.7,3.9,1.1,6c1.8,8.4,3.9,16.7,7.2,24.6c0.2,0.5,0.4,1,0.6,1.5
					C243.3,171.8,241.8,171.1,240.3,170.3z"/>
			</g>
			<g>
				<path class="st4" d="M219.7,186.8c-1.5-0.6-3-0.9-4.8-1.4c3.8-1.8,7.8-3.2,11.7-4.4c2.8-0.8,5.9-1.4,8.8-1.8
					c1.3-0.2,2.6-0.3,3.9-0.4c0.6-0.1,0.8-0.2,0.4-0.8c-1.7-2.7-3.4-5.4-4.9-8.3c-0.2-0.4-0.4-0.9-0.6-1.5c1.2,0.4,2.3,0.7,3.3,1.3
					c0.3,1.4,1.1,2.6,1.7,3.9c1.2,2.2,2.5,4.5,3.8,6.7c0.1,0.2,0.3,0.4,0.3,0.7c-3.1,0.3-6.4,0.7-9.4,1.4
					C229.1,183.1,224.4,184.8,219.7,186.8z"/>
			</g>
			<g>
				<path class="st4" d="M43.3,169.4c1-0.6,2-0.9,3.1-1.2c0.1,0.4-0.1,0.7-0.3,1c-1.3,2.9-3,5.6-4.7,8.2c-0.2,0.4-0.7,1-0.6,1.1
					c0.3,0.4,0.9,0.3,1.4,0.3c3.4,0.3,6.9,0.9,10.3,1.7c4.6,1.1,8.9,2.7,13.2,4.7c0,0,0.1,0.1,0.2,0.2c-0.8,0.2-1.5,0.4-2.2,0.6
					c-0.8,0.2-1.6,0.3-2.3,0.8c-3.4-1.4-6.8-2.7-10.3-3.7c-4.4-1.2-8.8-2-13.3-2.4c-0.1,0-0.2,0-0.4-0.1c0.4-0.6,0.7-1.2,1-1.7
					c1.7-2.8,3.4-5.6,4.8-8.7C43.2,170,43.5,169.7,43.3,169.4z"/>
			</g>
			<g>
				<path class="st12" d="M47.9,144.7c-0.7,3.3-1.4,6.7-2.3,9.9c-1.4,5.3-2.9,10.6-5.2,15.6c0,0.1,0,0.2,0,0.2
					c-1.3,0.8-2.6,1.5-3.8,2.5c0.8-1.8,1.5-3.6,2.1-5.6c2.8-8.3,5.1-16.7,6.6-25.3c0.1-0.4,0-0.7,0.2-1.1c1-0.3,1.4-1.2,2.1-1.9
					c0.2-0.2,0.3-0.5,0.6-0.6c0.2-0.2,0.4-0.3,0.7-0.1c0.3,0.7,0,1.4,0,2.1c-0.1,1.1,0,2.2-0.3,3.2
					C48.2,144.1,48.1,144.4,47.9,144.7z"/>
			</g>
			<g>
				<path class="st4" d="M56.2,190.1c1.1,0.2,2.3,0.4,3.4,0.6c6.2,1.1,13.9,4.2,18.9,8c-1.8,0.5-3.6,0.6-5.4,1.1
					c-4.4-2.5-8.9-4.5-13.8-5.7c-3-0.8-6.1-1.3-9.2-1.5C52.1,191.6,54.2,190.6,56.2,190.1z"/>
			</g>
			<g>
				<path class="st4" d="M207.8,199.8c-1.4-0.5-2.9-0.6-4.5-0.9c-0.3-0.1-0.5-0.1-0.9-0.2c1.6-1.2,3.2-2.1,4.9-3
					c4.9-2.5,10-4.2,15.5-5.3c0.7-0.1,1.3-0.1,2-0.3c0.8,0.1,1.6,0.5,2.3,0.8c1.2,0.5,2.5,1,3.8,1.7c-3.1,0.2-6,0.7-8.8,1.3
					C217.1,195.2,212.3,197.2,207.8,199.8z"/>
			</g>
			<g>
				<path class="st2" d="M48.5,138.4c-0.8,0.8-1.6,1.7-2.5,2.5c-0.2,0.2-0.4,0.6-0.7,0.1c0.1-1.1,0.3-2.3,0.1-3.5
					c-0.4,0.5-0.8,0.9-1.2,1.4c-0.1-0.1-0.1-0.2-0.1-0.3c1.3-3.6,2-7.4,2.7-11.1c0.9-4.5,2.5-8.7,4.7-12.6c0.1-0.2,0.1-0.4,0.4-0.6
					c0,1.3,0,2.5,0,3.7c0.1,0.4-0.2,0.7-0.4,1c-1,1.7-1.7,3.6-2.4,5.6c0.7-0.8,1.4-1.5,2.1-2.2c0.2-0.2,0.4-0.5,0.8-0.5
					c0.1,0.1,0.2,0.2,0.2,0.3c0,0.2-0.1,0.4-0.2,0.6c-1.9,3.9-2.5,8.2-3,12.5c-0.1,0.6-0.1,1.3-0.2,1.9
					C49,137.6,49,138.1,48.5,138.4z"/>
			</g>
			<g>
				<path class="st2" d="M235.6,141c0,0.6-0.3,0.4-0.5,0.2c-0.9-0.8-1.6-1.6-2.3-2.5c-0.1-0.1-0.2-0.3-0.3-0.3
					c-0.3-0.2-0.2-0.4-0.2-0.7s0-0.6-0.1-0.9c-0.1-0.2-0.1-0.5-0.1-0.7c0-0.3,0-0.5-0.1-0.8c-0.3-1.7-0.5-3.4-0.8-5.1
					c-0.5-2.6-1.2-5.2-2.4-7.6c0-0.1,0,0,0-0.1c-0.1-0.3-0.4-0.6-0.1-0.8s0.5,0.1,0.7,0.3c0.8,0.8,1.7,1.6,2.4,2.5
					c-0.1-0.7-0.3-1.3-0.5-1.9c-0.5-1.3-1.1-2.5-1.8-3.7c-0.2-0.3-0.4-0.6-0.3-1c0-1.2,0-2.5,0.1-3.7c1.2,2.1,2.2,4.5,3.1,6.8
					c1.3,3.3,1.9,6.9,2.6,10.3c0.5,2.4,1,4.9,1.9,7.2c0.1,0.2,0.1,0.4,0.1,0.6c-0.4-0.5-0.8-0.9-1.3-1.4c-0.2,0.7,0,1.3-0.1,1.9
					c0.1,0.3,0,0.6,0.1,0.8C235.6,140.6,235.6,140.8,235.6,141z"/>
			</g>
			<g>
				<path class="st4" d="M74.8,157.5c0.6-1,0.7-2.3,1.2-3.5c0.3,1,0.6,1.9,0.9,2.9c1.5,4.4,3.9,8.2,6.7,11.8c2,2.7,4.2,5.4,6.6,7.9
					c0.3,0.3,0.6,0.7,1.1,0.8c0.8,1.4,1.5,2.7,2.3,4.1c-1.3-0.4-2.5-1.1-3.6-1.8c-0.3-0.2-0.5-0.3-0.8-0.5c-0.5,0-0.7-0.5-1-0.8
					c-3.1-3.7-6.3-7.5-8.9-11.5c-1.7-2.6-3.2-5.5-4.4-8.4C74.8,158.1,74.5,157.8,74.8,157.5z"/>
			</g>
			<g>
				<path class="st4" d="M189.6,177.4c0.9-0.3,1.4-1.1,2-1.8c2.9-3.3,5.9-6.8,8.2-10.5c2.1-3.3,3.9-6.8,4.9-10.7
					c0-0.1,0.1-0.3,0.2-0.5c0.4,1.3,0.8,2.5,1.1,3.7c0.2,0.3,0,0.7-0.1,1c-1.3,3.3-3,6.5-5.1,9.4c-2.5,3.7-5.5,7.2-8.4,10.6
					c-0.3,0.3-0.5,0.6-1,0.7c-1.1,0.7-2.2,1.3-3.4,1.9c-0.3,0.1-0.5,0.2-0.8,0.3C188.1,180.1,188.9,178.7,189.6,177.4z"/>
			</g>
			<g>
				<path class="st16" d="M124.5,222.3c2.5-0.2,3.8,0.7,4.6,3c0.6,2,0.6,4.1-0.1,6.2c-0.9,2.6-3.6,3.4-5.8,1.7
					c-1.7-1.4-2.7-3.2-3.4-5.3c-0.6-2-1.1-4-1.3-6.1c-0.1-0.8-0.1-1.5,0.2-2.2c0.3-0.9,0.8-1,1.4-0.3c0.8,0.8,1.3,1.8,2.2,2.6
					c0.5,0.4,1,0.9,1.6,1.2c0.3,0.2,0.7,0.5,1,0.1C125.3,222.6,124.6,222.6,124.5,222.3z"/>
			</g>
			<g>
				<path class="st16" d="M156.7,222.3c-0.4,0.3-0.9,0.4-0.6,0.9c0.2,0.4,0.6,0.1,0.9,0c1.2-0.6,2.1-1.5,2.9-2.6
					c0.4-0.5,0.7-1,1.2-1.4s0.8-0.3,1.1,0.2c0.2,0.4,0.4,0.9,0.3,1.3c-0.3,4.2-1,8.4-3.9,11.8c-1,1.2-2.2,2-3.9,1.6
					c-1.2-0.2-2.1-1.1-2.5-2.2c-1-2.6-0.9-5.3,0.3-7.8C153.1,222.7,154.4,222.1,156.7,222.3z"/>
			</g>
			<g>
				<path class="st4" d="M173.5,165.4c-0.2-0.2-0.4-0.1-0.6,0c-1.1,0.2-2.2,0.5-3.2,0.6c-0.5,0.1-1,0.3-1.5,0.1c1-0.9,2-1.5,3-2.3
					c3.2-2.4,6.5-5.1,9.3-8c0.8-0.8,1.6-1.8,2.3-2.7c0.1-0.2,0.4-0.3,0.3-0.6c1.3-0.9,2.6-1.8,3.9-2.7c0.1,0.1,0.1,0.1,0.2,0.2
					C183.9,156.2,178.9,161,173.5,165.4z"/>
			</g>
			<g>
				<path class="st4" d="M98.7,153.5c0.3,0.8,1.1,1.4,1.6,2c3.6,3.7,7.6,7.1,11.8,10.1c0.2,0.2,0.4,0.3,0.6,0.6
					c-1.5-0.2-3.1-0.4-4.7-0.8c-0.2-0.1-0.5-0.2-0.7,0c-5.4-4.6-10.3-9.4-13.8-15.7C95.3,151.1,97.1,152.2,98.7,153.5z"/>
			</g>
			<g>
				<path class="st4" d="M102.4,144.7c0.7,1.5,1.8,2.7,2.8,3.9c3.6,4.4,7.8,8.2,12.4,11.3c0.1,0.1,0.2,0.2,0.5,0.4
					c-1.8-0.4-3.3-1.1-5-1.6c-0.2-0.1-0.5-0.3-0.8-0.1c-5.4-4.8-9.9-10.1-13.2-16.6c0-0.1,0-0.1-0.1-0.2c-0.1-0.2,0-0.2,0.2-0.2
					C100.5,142.7,101.5,143.7,102.4,144.7z"/>
			</g>
			<g>
				<path class="st4" d="M169.6,158.1c-1.3,0.5-2.5,1.1-3.8,1.5c-0.8,0.3-1.7,0.6-2.6,0.8c3.3-2,6.2-4.6,8.9-7.3
					c2.4-2.5,4.7-5.2,6.5-8.1c0.1-0.1,0.2-0.2,0-0.3c1.1-1.1,2.2-2.2,3.3-3.3l0.1,0.1c-0.2,0.4-0.3,0.7-0.5,1.1
					c-3,5.9-6.9,10.9-11.6,15.4C169.7,158,169.7,158.1,169.6,158.1z"/>
			</g>
			<g>
				<path class="st4" d="M49,52.2c-0.5,0.4-0.4,1-0.4,1.4c-0.3,3-0.1,6.1,0.8,9.1c0.1,0.2,0.1,0.4,0.1,0.6c-1.6-1.9-2.5-4.1-3.2-6.6
					c-1.1-4.2-1.4-8.5-0.2-12.7c0.1-0.1,0.1-0.2,0.3-0.2C46.7,46.9,47.6,49.6,49,52.2z"/>
			</g>
			<g>
				<path class="st4" d="M231.5,63.4c0.3-1.4,0.7-2.8,0.9-4.2c0.3-2.3,0.4-4.8-0.2-7.1c1.1-2.2,2-4.7,2.4-7.2c0.1-0.3,0.1-0.7,0.1-1
					c0.1-0.1,0.2-0.1,0.3,0c1.5,6,0.8,11.7-1.9,17.2C232.6,61.9,232.1,62.8,231.5,63.4z"/>
			</g>
			<g>
				<path class="st3" d="M201.5,72.5c0.3-0.5,0.9-0.5,1.3-0.6c1.3-0.4,2.7-0.7,4-1.2c1.3-0.4,2.5-1.1,3.8-2c-0.3,1.5-0.9,2.7-1.5,4
					c-0.1,0.3-0.6,0.5-0.3,0.9c0,0.1,0,0.2,0,0.3c-0.1,0-0.4-0.3-0.3,0.1c0.2,0.6,0.4,1.2,0.6,1.8c0.2,0.7,0.4,1.3,0.4,2.1
					C207,76,204.3,74.2,201.5,72.5z"/>
			</g>
			<g>
				<path class="st3" d="M72.3,73.6c-0.3-1-0.9-1.8-1.3-2.8c-0.3-0.6-0.6-1.2-0.5-2c1,0.5,1.9,1.1,2.8,1.5c1.8,0.8,3.7,1.1,5.6,1.7
					c0.2,0.1,0.6,0,0.6,0.4c-2.7,1.7-5.5,3.5-8.1,5.6c-0.1-0.9,0.2-1.7,0.5-2.4c0.2-0.6,0.5-1.2,0.6-1.8
					C72.4,73.7,72.3,73.6,72.3,73.6z"/>
			</g>
			<g>
				<path class="st4" d="M230.7,70.5c-1.3,0.4-2.5,0.9-3.9,0.8c-0.4,0-0.8,0-1.3-0.3c2.3-1,3.7-2.7,4.8-4.9c1.4-0.1,2.8-0.5,4-1.2
					C233.8,67.2,232.4,69,230.7,70.5z"/>
			</g>
			<g>
				<path class="st4" d="M50.7,66.2c1,2.1,2.4,3.8,4.9,5c-1.6,0.4-3,0.3-4.4-0.2c-0.3-0.1-0.5-0.3-0.8-0.2c-1.7-1.6-3.1-3.4-3.8-6
					C48,65.6,49.3,66.1,50.7,66.2z"/>
			</g>
			<g>
				<path class="st17" d="M155.8,185.1c0,1.5-0.2,3-0.6,4.5c0,0.1-0.1,0.2-0.1,0.4c-0.6,1.5-0.9,1.6-2,0.4c-0.7-0.8-1.3-1.7-1.8-2.6
					c-0.4-0.6-0.4-1.2,0.1-1.8c1-1.3,2.2-2.3,3.6-2.9c0.7-0.3,0.8-0.2,0.8,0.6C155.8,184.1,155.8,184.6,155.8,185.1z"/>
			</g>
			<g>
				<path class="st17" d="M125.3,185.1c0-0.6,0-1.2,0-1.8c0-0.4,0.1-0.6,0.6-0.4c1.7,0.6,3,1.7,4,3.2c0.3,0.5,0.2,1.1-0.1,1.6
					c-0.7,1.2-1.6,2.3-2.5,3.4c-0.3,0.3-0.4,0.2-0.6,0c-0.6-0.7-0.9-1.6-1.1-2.5C125.4,187.4,125.2,186.2,125.3,185.1z"/>
			</g>
			<g>
				<path class="st4" d="M109.8,139.2c-0.3,0.5,0,1,0.1,1.4c0.3,1.5,0.8,3,1.3,4.6c0.5,1.5,1.1,2.9,2,4.2c-0.6,0.2-1.1-0.4-1.6-0.2
					c-1.2-2.3-1.9-5-2.5-7.5c-0.3-1.4-0.6-2.8-0.7-4.2c0-0.2-0.2-0.5,0.2-0.6C109,137.6,109.4,138.4,109.8,139.2z"/>
			</g>
			<g>
				<path class="st4" d="M169.4,149.3c-0.6-0.2-1,0.4-1.6,0.3c1.9-2.9,2.7-6.2,3.4-9.4c0.1-0.2,0.2-0.5-0.1-0.7
					c0.5-0.9,0.9-1.7,1.4-2.6c0.1,1.5-0.2,2.9-0.4,4.4C171.4,143.9,170.7,146.7,169.4,149.3z"/>
			</g>
			<g>
				<path class="st18" d="M129.7,232.2c0-1.5,0.4-1.8,1.7-1.1c1.1,0.5,2,1.2,2.2,2.6c0.1,0.8-0.3,1.6-1.2,1.7
					c-1,0.1-1.7-0.3-2.2-1.1C129.9,233.5,129.7,232.8,129.7,232.2z"/>
			</g>
			<g>
				<path class="st19" d="M151.3,232.1c-0.1,0.9-0.3,1.7-0.8,2.4c-0.4,0.5-0.9,0.8-1.5,0.8c-0.6,0.1-1.2-0.1-1.5-0.7
					c-0.4-0.7-0.1-1.4,0.3-2c0.6-0.9,1.4-1.4,2.4-1.7c0.8-0.3,0.9-0.2,1.1,0.7C151.3,231.7,151.3,231.9,151.3,232.1z"/>
			</g>
			<g>
				<path class="st20" d="M223.8,78.8c1-0.8,2.1-1.6,3.1-2.4c0.3-0.2,0.5-0.6,0.8-0.8c0.8-0.1,1.6-0.1,2.6-0.2
					C228.4,77.3,226.4,78.6,223.8,78.8z"/>
			</g>
			<g>
				<path class="st18" d="M148.7,187c1.5,0,1.6,0.1,1.2,1.5c-0.2,0.8-0.6,1.6-1.2,2.2c-0.4,0.4-0.9,0.4-1.3,0.1
					c-0.7-0.5-1.2-1.3-1.5-2.1c-0.1-0.5,0.1-0.8,0.5-1C147.2,187.1,148,187.1,148.7,187z"/>
			</g>
			<g>
				<path class="st20" d="M53.3,75.6c1.2,1.3,2.6,2.2,4,3.2c-2.6-0.2-4.7-1.4-6.6-3.4C51.7,75.5,52.4,75.5,53.3,75.6z"/>
			</g>
			<g>
				<path class="st18" d="M132.2,187c0.9,0,1.6,0.1,2.4,0.5c0.5,0.3,0.7,0.7,0.5,1.3c-0.3,0.8-0.7,1.4-1.4,1.9
					c-0.4,0.3-0.9,0.4-1.3,0c-0.9-0.9-1.3-2-1.4-3.2c0-0.3,0.1-0.4,0.4-0.4C131.6,187.1,131.9,187.1,132.2,187z"/>
			</g>
			<g>
				<path class="st18" d="M137.9,187.5c0.7,0.1,1.6,0.1,2,0.8s-0.1,1.4-0.5,2c-0.8,1.3-1.3,1.3-2.2,0.1c-0.4-0.5-0.7-1-0.9-1.5
					c-0.4-0.8-0.3-1,0.6-1.3C137.1,187.5,137.5,187.4,137.9,187.5z"/>
			</g>
			<g>
				<path class="st18" d="M143,187.5c0.2,0,0.3,0,0.4,0c1.5,0.1,1.8,0.6,1.1,1.9c-0.3,0.5-0.6,1-1,1.4c-0.6,0.6-0.9,0.6-1.5,0
					c-0.2-0.2-0.3-0.4-0.4-0.6c-0.3-0.6-0.8-1.2-0.4-1.9C141.6,187.5,142.4,187.5,143,187.5z"/>
			</g>
			<g>
				<path class="st21" d="M136.3,234.4c-1.5,0-2.1-0.7-1.9-2.1c0-0.2,0.1-0.3,0.1-0.5c0.4-1.5,0.1-1.4,1.5-0.6
					c0.6,0.4,1,0.9,0.9,1.7c0,0.2,0,0.4,0.1,0.5C137.2,234.1,137.1,234.4,136.3,234.4z"/>
			</g>
			<g>
				<path class="st22" d="M146.6,232.5c0,0.7-0.1,1.3-0.7,1.5c-0.6,0.3-1.3,0.3-2,0.1c-0.1,0-0.2-0.2-0.2-0.2
					c0.4-0.6,0.1-1.3,0.4-1.9c0.3-0.7,1-1,1.6-1.4c0.2-0.1,0.4-0.1,0.4,0.2C146.4,231.4,146.6,232,146.6,232.5z"/>
			</g>
			<g>
				<path class="st23" d="M126.4,235c0.6-0.2,1-0.4,1.4-0.7c0.4-0.3,0.7-0.6,1.1-1c0.3,0.8,0.5,1.5,1.2,2.2
					C128.8,235.6,127.6,235.7,126.4,235z"/>
			</g>
			<g>
				<path class="st23" d="M154.6,234.9c-1.3,0.8-2.5,0.7-3.7,0.6c0.5-0.7,0.9-1.4,1.1-2.2C152.7,234,153.5,234.7,154.6,234.9z"/>
			</g>
			<g>
				<path class="st24" d="M138.6,230.7c0.5,0.7,1,1.4,1.2,2.1c0.1,0.4,0,0.8-0.3,1c-0.4,0.3-0.8,0.2-1.1-0.1
					c-0.6-0.5-0.7-1.1-0.5-1.8C137.9,231.6,138.1,231.2,138.6,230.7z"/>
			</g>
			<g>
				<path class="st25" d="M142.4,230.7c0.5,0.5,0.7,1,0.8,1.6c0.1,0.5,0,0.9-0.3,1.3c-0.4,0.4-0.8,0.7-1.4,0.3
					c-0.5-0.3-0.5-0.9-0.2-1.4C141.6,231.9,141.9,231.3,142.4,230.7z"/>
			</g>
			<g>
				<path class="st26" d="M187.3,176.8c-0.2,0.3-0.3,0.7-0.5,1c-0.3,0.2-0.7,0.1-1.1,0.3C186.1,177.5,186.8,177.3,187.3,176.8z"/>
			</g>
			<g>
				<path class="st27" d="M94.1,177.9c-0.1-0.3-0.2-0.6-0.3-0.9c0.6,0.3,1.1,0.7,1.6,1.2C94.9,178.1,94.5,178.1,94.1,177.9z"/>
			</g>
			<g>
				<path class="st28" d="M59.5,83.3c0.2,0,0.4,0.1,0.6,0.1c-0.2,0.4-0.6,0.5-0.9,0.8C59.2,83.8,59.3,83.6,59.5,83.3z"/>
			</g>
			<g>
				<path class="st29" d="M220.8,83.5c0.2-0.1,0.4-0.1,0.7-0.2c0.2,0.3,0.3,0.6,0.3,1C221.4,84,221.1,83.7,220.8,83.5z"/>
			</g>
			<g>
				<path class="st30" d="M109.5,175.4c-0.6,0.2-1.1,0.2-1.7,0C108.4,175.4,108.9,175.4,109.5,175.4z"/>
			</g>
			<g>
				<path class="st31" d="M142.9,58.8l0.1,0.1c-0.2,0.2-0.4,0.3-0.7,0.2C142.5,59,142.7,58.9,142.9,58.8z"/>
			</g>
			<g>
				<path class="st32" d="M108.6,136.9c-0.2,0.2,0,0.4-0.2,0.6c-0.2-0.2-0.2-0.5-0.1-0.7C108.4,136.4,108.5,136.7,108.6,136.9z"/>
			</g>
			<g>
				<path class="st33" d="M99.5,141.7c-0.1,0.1-0.1,0.1-0.2,0.2c-0.1-0.2-0.3-0.4-0.4-0.7C99.2,141.3,99.3,141.5,99.5,141.7z"/>
			</g>
			<g>
				<path class="st34" d="M91.1,73.6c-0.1,0.2-0.3,0.4-0.6,0.5c0.2-0.3,0.3-0.5,0.5-0.6C91,73.5,91.1,73.5,91.1,73.6z"/>
			</g>
			<g>
				<path class="st35" d="M180.4,73.3c0.2,0.1,0.3,0.2,0.4,0.4c-0.2,0-0.4-0.1-0.6-0.2C180.3,73.4,180.3,73.3,180.4,73.3z"/>
			</g>
			<g>
				<path class="st36" d="M169.7,169.1c-0.2,0-0.3,0.1-0.5,0.1c-0.1,0-0.2,0.1-0.2-0.1c0-0.1,0.1-0.2,0.2-0.2
					C169.3,169.1,169.6,169,169.7,169.1z"/>
			</g>
			<g>
				<path class="st37" d="M146.3,63.7c0.1,0,0.1,0.1,0.2,0.1c-0.2,0.2-0.4,0.2-0.8,0.1C145.9,63.8,146.1,63.8,146.3,63.7z"/>
			</g>
			<g>
				<path class="st38" d="M135,63.9c0.1-0.1,0.1-0.1,0.2-0.2c0.2,0,0.3,0.1,0.5,0.2C135.3,64.1,135.2,64,135,63.9z"/>
			</g>
			<g>
				<path class="st39" d="M191.6,58.1c-0.1,0.1-0.1,0.1-0.2,0.2c-0.2-0.1-0.3-0.2-0.4-0.4C191.3,57.9,191.5,58,191.6,58.1z"/>
			</g>
			<g>
				<path class="st14" d="M235.6,140.4c-0.2-0.2-0.2-0.5-0.1-0.8C235.6,139.7,235.6,140.1,235.6,140.4z"/>
			</g>
			<g>
				<path class="st40" d="M174.2,181.1c-0.1,0-0.1,0-0.2,0c0-0.2,0.1-0.3,0.2-0.4C174.4,180.8,174.3,181,174.2,181.1z"/>
			</g>
			<g>
				<path class="st41" d="M46.3,43.8c-0.1,0.1-0.2,0.1-0.3,0.2c0-0.2,0-0.4,0.2-0.5C46.4,43.5,46.4,43.7,46.3,43.8z"/>
			</g>
			<g>
				<path class="st42" d="M72,53.2c0-0.1-0.1-0.1-0.1-0.2c0.1-0.1,0.3-0.2,0.4,0C72.3,53.2,72.1,53.2,72,53.2z"/>
			</g>
			<g>
				<path class="st43" d="M111.7,168.9c0.1,0,0.3,0.2,0.2,0.2c-0.2,0.2-0.4,0.1-0.6,0C111.5,169,111.6,169.1,111.7,168.9z"/>
			</g>
			<g>
				<path class="st44" d="M235,43.8c-0.1,0-0.2,0-0.3,0c0-0.1-0.1-0.3,0.1-0.4C234.9,43.5,235,43.7,235,43.8z"/>
			</g>
			<g>
				<path class="st45" d="M89.9,63.7c0.1,0.2,0.2,0.2,0.4,0.2c-0.2,0.1-0.4,0.2-0.5,0.1C89.6,63.9,89.7,63.7,89.9,63.7z"/>
			</g>
			<g>
				<path d="M204.9,90.6c2.4,2.5,4.4,5.4,5.5,8.7c0.2,0.6,0.4,1.3,0.5,2c-1.7-1.5-3.2-3.2-5.2-4.5c-1.3-1.1-2.9-1.8-4.6-2.3
					c1.6,2.2,2.7,4.8,3.5,7.6c-1.4-1.1-2.5-2.2-4-3.3c0.3,0.7,0.4,1.2,0.6,1.7c2.1,4.1,3.1,8.6,4,13.2c0.2,1.3,0.5,2.7,0.5,4.1
					c0,0.3,0.3,0.6-0.1,0.8c-0.8-2.6-1.7-5.4-2.8-7.9c-0.1-0.3-0.3-0.6-0.5-0.9c-0.6-0.7-0.9-1.6-1.4-2.3c-1.4-2.2-3.4-3.2-6.1-2.8
					c-0.9,0.1-1.7,0.3-2.6,0.6c-1.4,0.5-2.9,0.9-4.5,1.3c-0.3,0.1-0.7,0.2-1,0.3c-1.3,0.4-2,1.3-2.1,2.7c0,2-0.3,3.9-1,5.9
					c-0.5,1.2-1.2,2.2-2.2,3.1c1.4-0.2,2.4-0.9,3.5-1.7c0.3-0.2,0.6-0.6,0.9-0.3c0.4,0.3,0,0.7-0.2,0.9c-0.4,0.7-1,1.3-1.6,1.8
					c-2.4,1.7-5.1,2.1-7.8,1.6c-0.1,0-0.2,0-0.3-0.1c-3.8-1.2-7.4,0-10.9,1.5c-0.2,0.1-0.4,0.2-0.6,0.3c-0.3,0.1-0.4-0.1-0.6-0.3
					c-1-1.6-2.2-3-3.5-4.5c0-0.1,0-0.2,0-0.2c0.2-0.4,0.6-0.7,1-0.9c1.4-0.9,2.3-2.2,3.2-3.6c1-1.5,1.9-3.1,3.1-4.5
					c2.6-2.7,5.7-4.9,9.5-5.6c1.6-0.3,3.3-0.2,5,0.2c4.6,1,7.7-1.3,10.7-4c2.6-3.2,2.5-6.3,0.7-9.5c-1.4-2.5-3.3-4.7-5.6-6.5
					c0.5-0.5,1.1-0.3,1.7-0.2c5.8,0.8,10.7,3.2,15.1,7.2C204.7,90.4,204.8,90.5,204.9,90.6z"/>
			</g>
			<g>
				<path d="M75.2,96.7c-1.6,1-2.9,2.4-4.4,3.8c-0.2,0.2-0.3,0.6-0.7,0.4c1-4.1,3.1-7.6,6.1-10.6c3.6-3.3,7.8-5.7,12.5-6.9
					c1.2-0.3,2.4-0.6,3.7-0.5c0.2,0,0.5-0.1,0.6,0.2c-1.5,1.4-2.9,3-4.2,4.7c-1.1,1.5-2,3.1-2.3,5c-0.4,2.3,0.3,4.5,1.8,6.3
					c1.2,1.6,2.9,2.5,4.8,3.4c0.1,0,0,0,0.1,0c2.2,1.5,4.6,1,7,0.6c3.3-0.5,6.4,0.3,9.2,2c2.9,1.8,5.3,4.2,7,7.2
					c0.9,1.5,1.8,2.9,3.2,4c0.2,0.2,0.5,0.3,0.7,0.5c0.3,0.2,0.6,0.4,0.7,0.7c0,0.1,0,0.2,0,0.2c-0.7,0.8-1.5,1.6-2.1,2.4
					c-0.4,0.6-0.9,1.2-1.3,1.8c-0.1,0.2-0.2,0.5-0.6,0.5c-1.6-0.7-3.2-1.4-4.9-1.8c-2-0.5-4-0.7-6.1-0.1c-1.6,0.4-3.3,0.6-5,0.2
					c-1.4-0.3-2.7-0.8-3.8-1.6c-0.7-0.6-1.3-1.4-1.8-2.2c-0.1-0.2-0.2-0.4,0-0.6c0.2-0.1,0.4-0.1,0.5,0.1c1.3,1.1,2.8,1.8,4.1,2.1
					c-1.7-0.9-2.4-2.8-2.9-4.9c-0.4-1.4-0.4-2.8-0.5-4.2c0-1.3-0.6-2.3-1.9-2.6c-2.9-0.8-5.8-2-8.8-2.4c-2.1-0.2-3.9,0.5-5.3,2.3
					c-0.6,0.8-1,1.8-1.7,2.6c-1.5,2.9-2.5,6.1-3.4,9.2c-0.4-0.1-0.2-0.4-0.2-0.6c0.2-3.3,0.9-6.6,1.7-9.8c0.8-3.2,2.1-6.3,3.3-9.3
					c-1.4,0.9-2.6,2-3.9,3.1c0.2-1,0.5-1.8,0.8-2.6c0.3-0.9,0.7-1.7,1.2-2.5s0.9-1.5,1.5-2.4C78.1,94.9,76.6,95.6,75.2,96.7z"/>
			</g>
			<g>
				<path class="st1" d="M117,122.5c1.1-1.7,2.2-3.3,3.8-4.7c0.3-0.2,0.4,0.1,0.6,0.2c0.8,0.6,1.5,1.3,2.4,1.7
					c1.9,0.7,3.7,1.1,5.8,0.4c0.9-0.1,1.9-0.1,2.7-0.4c1.9-0.8,3-2.4,3.6-4.4c0.1-0.3,0-0.7,0.4-0.9c1.2,1,1.9,2.2,2.7,3.5
					c0.4,0.8,0.8,1.5,1.3,2.3c0.2-0.1,0.3-0.3,0.4-0.4c0.9-1.9,1.9-3.7,3.3-5.4c0.1-0.1,0.1-0.2,0.1-0.3c0.4,0.1,0.3,0.5,0.4,0.8
					c0.6,2.5,2,4.2,4.7,4.9c0.5,0.1,1,0,1.5,0.2c2,0.7,3.8,0.3,5.8-0.4c0.3-0.1,0.7-0.3,1-0.5c0.3-0.1,0.5-0.4,0.7-0.6
					c0.1,0,0.1-0.1,0.2-0.1c0.3-0.2,0.6-0.5,0.9-0.7c0.2-0.1,0.3-0.3,0.5-0.2c1.5,1.1,2.5,2.7,3.6,4.2c0.1,0.1,0.1,0.3,0.3,0.4
					c0.4,0.2,0.4,0.5,0.5,0.8c-0.7,0.7-1.5,1.2-2.4,1.7c0,0.4-0.6,0.2-0.5,0.7c0,0.2-0.2,0.3-0.4,0.3c-0.7,0-1.4,0.3-2.1,0.1
					c-1-0.5-1.9-1-2.9-1.5c-3.7-1.9-8.8-0.9-11.3,2.3c-0.2,0.2-0.5,0.4-0.7,0.7c-0.2,0.2-0.3,0.4-0.6,0.5c-0.9,0.9-1.8,1.8-2.6,2.7
					c-0.3,0.3-0.5,0.4-0.9,0c-0.8-0.8-1.7-1.6-2.5-2.4c-0.2-0.2-0.2-0.3-0.3-0.5c-0.3,0-0.3-0.3-0.5-0.4c-0.9-1-1.8-2-3-2.6
					c-3.4-1.8-6.8-1.6-10.1,0.3c-0.3,0.2-0.6,0.3-1,0.5c-0.2,0.1-0.4,0.1-0.6,0.2l0,0c-0.7,0.3-2.2,0.2-2.7-0.3c0.2,0,0.4,0,0.7-0.1
					c-0.4-0.4-0.8-0.4-1.2-0.6c-0.8-0.5-1.7-1-2.4-1.6C116.5,123.1,116.7,122.8,117,122.5z"/>
			</g>
			<g>
				<path d="M128.1,112.3c-1.2-2.9-1.4-5.9-0.4-8.9c0.4-1.2,1.1-2.1,2-3c1.4-1.2,2.9-2.4,4.2-3.8c1.5-1.6,2.6-3.5,2.9-5.8
					c0.3-2.1,0.9-4,1.9-6c0.3-0.6,0.6-1.1,1-1.5c0.5-0.5,0.9-0.5,1.4,0c0.7,0.7,1.1,1.6,1.5,2.4c0.6,1.5,1.2,3,1.4,4.7
					c0.3,3,1.9,5.4,4.1,7.3c0.8,0.8,1.7,1.5,2.6,2.2c2.6,2,3.2,5,3.1,8.1c-0.1,1.5-0.4,2.9-1.2,4.5c0-1.8-0.1-3.3-0.5-4.9
					c-0.6-2.8-2-4.9-4.7-6c-2.8-1.2-5-3.2-6.7-5.8c-0.3-0.4-0.4-0.5-0.8,0c-1.7,2.5-3.9,4.7-6.8,5.8c-3,1.2-4.2,3.7-4.8,6.8
					c-0.1,0.4-0.1,0.9-0.2,1.3c-0.1,0.6,0,1.2-0.1,1.9C128.3,112,128.4,112.3,128.1,112.3z"/>
			</g>
			<g>
				<path d="M170,99.1c-0.2-0.1,0-0.3,0-0.4c0.9-2.1,1.9-4.1,2.2-6.4c0.3-2,0.1-3.9-0.8-5.8c-0.8-1.5-2-2.7-3.5-3.5
					c-1.4-0.7-2.8,0.1-3.1,1.6c-0.2,0.9-0.1,1.7,0.4,2.5c0.5,0.9,1,1.7,1.4,2.6c1.8,3.2,1.4,7.4-0.9,10.3c-0.1,0.1-0.2,0.3-0.3,0.3
					c0.3-1.4,0.6-2.8,0.4-4.2c-0.2-2.4-1.2-4.5-2.7-6.3c-0.9-1.1-1.8-2.1-2.4-3.4c-0.4-0.9-0.7-1.9-0.7-2.9c0-2.2,1.3-3.5,3.4-3.7
					c1.4-0.1,2.8,0.2,4.1,0.7c0.2,0.1,0.4,0.2,0.7,0.1c-0.7-0.9-1.4-1.9-2.1-2.8c-1-1.4-2-2.8-2.5-4.6c-0.1-0.2-0.3-0.5,0.1-0.6
					c0.8,0.4,1.3,1.2,2,1.8c1.9,1.6,3.8,3.1,5.8,4.7c1.6,1.2,2.8,2.7,3.8,4.5c1.6,3.6,1.1,7.2-0.5,10.6c-1,1.9-2.4,3.4-4,4.8
					C170.5,99,170.3,99.2,170,99.1z"/>
			</g>
			<g>
				<path d="M117.2,72.5c0.6,0,0.3,0.4,0.2,0.7c-0.3,1.2-0.9,2.3-1.6,3.2c-0.8,1.1-1.6,2.2-2.4,3.2c-0.2,0.3-0.4,0.5-0.5,0.9
					c1.2-0.4,2.3-0.8,3.5-0.9c0.4,0,0.8,0,1.2,0c2.7,0.1,4,2,3.5,4.8c-0.2,1.4-0.8,2.5-1.7,3.6c-0.6,0.7-1.1,1.4-1.7,2.1
					c-2.2,2.8-2.9,6-2.1,9.5c0,0.1,0,0.2,0,0.3c-0.4-0.1-0.5-0.4-0.6-0.6c-2.1-3.2-2.2-6.5-0.5-9.9c0.4-0.8,0.9-1.5,1.3-2.3
					c0.4-0.7,0.6-1.5,0.5-2.4c-0.2-1.7-1.8-2.6-3.3-1.8c-2.3,1.3-3.8,3.2-4.2,6.1c-0.3,2.4,0.2,4.7,1,6.8c0.4,0.9,0.8,1.8,1.2,2.7
					c0.1,0.2,0.2,0.4,0.1,0.7c-0.3,0.1-0.4-0.1-0.6-0.3c-1.5-1.4-3.1-2.7-4.1-4.7c-1.2-2.6-1.9-5.4-1.4-8.3c0.1-0.9,0.4-1.7,0.8-2.5
					c1-2.1,2.6-3.8,4.6-5.3C112.8,76.5,115.1,74.6,117.2,72.5z"/>
			</g>
			<g>
				<path class="st4" d="M117.2,72.5c-0.3,0.8-1.1,1.3-1.7,1.9c-1.5,1.4-3.1,2.7-4.9,3.9c-1.9,1.4-3.6,3-4.8,5.3
					c-1.7,1-3,2.4-3.9,4.2c-2.6,0.9-5.2,2-7.3,3.7c-0.2,0.2-0.4,0.4-0.7,0.4s-0.4-0.2-0.5-0.5c-0.1-1-0.1-2.1,0.3-3.1
					c-1.7,1.7-3.3,3.3-4.6,5.5c-0.8,1.5-1.2,3.1-1,4.9c0,0.2,0.2,0.5-0.1,0.7c-2-2.4-2.4-5.1-1.4-8c0.4-1,0.9-2,1.5-2.9
					c1.2-1.6,2.5-3.1,3.9-4.6c0.2-0.2,0.5-0.4,0.8-0.6c-0.9,1.3-1.1,2.8-0.9,4.6c1.5-0.9,3.1-1.5,5-1.8c0.2,0,0.4-0.1,0.6-0.1
					c1-0.1,2-0.5,2.4-1.5c1.5-3.8,4.7-5.9,8.1-7.6c2.8-1.3,5.6-2.6,8.4-4C116.8,72.6,117,72.5,117.2,72.5z"/>
			</g>
			<g>
				<path class="st4" d="M175,83.3c-1.1-2-2.8-3.6-4.8-5.1c-2.4-1.7-4.8-3.5-6.7-5.8c1.1,0.2,2,0.8,3,1.3c2.8,1.3,5.7,2.6,8.4,4.1
					c2.5,1.4,4.6,3.2,5.7,6c0.5,1.2,1.5,1.8,2.8,1.9c1.7,0.2,3.3,0.8,4.8,1.6c0.5,0.3,0.6,0.3,0.6-0.3c0.1-1.4-0.2-2.7-1-3.9
					c0.4,0,0.6,0.2,0.8,0.4c1.9,1.8,3.6,3.7,5,6c1.9,3.4,1.6,7-0.8,9.6c-0.2-0.2-0.1-0.4-0.1-0.7c0.3-2.3-0.5-4.4-1.8-6.3
					c-1.2-1.7-2.8-3.2-4.4-4.7c-0.1,0-0.1,0.2-0.1,0.1c0,0,0,0,0.1,0s0.1,0.1,0.2,0.1c0.8,0.7,1,3.1,0.4,4.1
					c-0.3,0.1-0.5-0.1-0.7-0.3c-1.9-1.5-4-2.6-6.3-3.5c-0.8-0.3-0.8-0.3-1.1,0.5c-0.3,0.1-0.3-0.2-0.3-0.4c0-1.2-0.8-2-1.5-2.8
					C176.6,84.6,175.7,84.1,175,83.3z"/>
			</g>
			<g>
				<path d="M141.9,76.8c1.6,3.6,6,5.3,9.6,3.4c0.6-0.3,0.9-0.2,1.3,0.2c1.2,1.2,1.6,2.8,1.8,4.5c0.3,2.2,0,4.5-0.3,6.7
					c-0.3,2.6-0.5,5.2,0.3,7.8c0.4,1.3,1,2.5,2,3.6c0.1,0.1,0.2,0.2,0.2,0.3c0,0,0,0.1,0,0.2c-0.6-0.3-1.2-0.6-1.7-0.9
					c-1.9-1-3.1-2.5-4-4.5c-1.3-3-1.8-6.1-1.3-9.3c0.1-0.8,0.1-1.7,0-2.5c-0.2-1.3-0.9-2.1-2.1-2.6c-0.8-0.3-1.7-0.5-2.6-0.8
					c-1.6-0.5-3-1.3-3.4-3.1c-0.2-0.7-0.1-1.4,0-2.1C141.8,77.3,141.5,76.9,141.9,76.8z"/>
			</g>
			<g>
				<path d="M139.4,77c0,0.5,0,0.9,0.1,1.4c0.1,1.9-0.7,3.1-2.5,3.9c-0.8,0.4-1.7,0.6-2.6,0.8c-2.5,0.8-3.4,2-3.2,4.8
					c0.1,1.9,0.5,3.8,0.1,5.8c-0.4,2.2-1.1,4.2-2.3,6.2c-1.1,1.8-3,2.6-4.9,3.4c0.2-0.2,0.4-0.5,0.6-0.7c0.2-0.2,0.4-0.5,0.6-0.7
					c1.3-2.2,1.8-4.8,1.7-7.3c-0.1-3-0.8-6.2-0.5-9.2c0.1-1.8,0.6-3.5,2-5c0.3-0.3,0.6-0.4,1.1-0.2C133.3,82,137.5,80.6,139.4,77
					C139.3,76.7,139.3,76.9,139.4,77z"/>
			</g>
			<g>
				<path d="M151.1,120.5c-3.9-0.2-5.6-1.7-6.6-6.1c0-0.4,0-0.7,0-1.1c0-0.3-0.3-0.6,0.2-0.7c0.2,1.5,0.8,2.9,1.7,4.2
					c1.4,1.9,3.3,2.6,5.8,1.9c2.4-0.6,4.5-2,6.5-3.4c2.9-2.3,5.6-4.9,7.4-8.2c0.2,0,0.2,0.1,0.2,0.2c-0.1,1-0.5,1.9-0.9,2.8
					c-2.2,3.9-5.5,6.9-9.3,9.1c-1,0.6-2.1,0.9-3.2,1.2C152.1,120.6,151.6,120.6,151.1,120.5z"/>
			</g>
			<g>
				<path d="M136.5,114.7c-0.2,1.3-0.7,2.5-1.5,3.5c-1.3,1.7-3.1,2.4-5.3,2.3c-1.2,0.2-2.3-0.3-3.4-0.7c-2.1-0.9-3.9-2.2-5.8-3.7
					c-1.9-1.7-3.6-3.6-4.9-6c-0.3-0.7-0.8-1.5-0.8-2.3c0.1-0.1,0.1-0.2,0.3-0.2c2.8,4.8,6.9,8.2,11.8,10.7c0.6,0.3,1.1,0.5,1.7,0.6
					c3,0.8,5.4-0.4,6.7-3.4c0.4-0.8,0.6-1.6,0.8-2.4c0.3,0,0.2,0.2,0.2,0.3C136.6,113.7,136.5,114.3,136.5,114.7z"/>
			</g>
			<g>
				<path class="st4" d="M170,99.1c1.7-1.2,3.1-2.6,4.2-4.4c0.1-0.2,0.2-0.3,0.3-0.5c0.3,0.4,0,0.7,0,1.1c-0.7,2.7-2.3,4.8-4.5,6.5
					c-0.9,0.7-1.6,1.6-2.1,2.5c-0.4,0.8-0.9,1.4-1.3,2.2c-0.1,0.1-0.2,0.3-0.4,0.3c-0.3-0.3,0.2-0.6,0-0.9
					C167.2,103.3,168.6,101.2,170,99.1z"/>
			</g>
			<g>
				<path class="st4" d="M106.6,94.4c1.1,2,2.9,3.4,4.6,5c1.5,2.2,3,4.6,3.7,7.2c0.2,0.2,0.2,0.3,0.1,0.5c-0.3,0.2-0.3-0.1-0.4-0.2
					c-0.3-0.4-0.5-0.9-0.8-1.3c-1-1.9-2.4-3.6-4.1-5.1c-1.6-1.3-2.5-3.1-3-5.2C106.4,95,106.3,94.7,106.6,94.4z"/>
			</g>
			<g>
				<path class="st46" d="M128.1,112.3c0.3-0.5,0-1,0.1-1.5c0-0.3,0-0.6,0.2-0.8c0,0.8,0,1.5,0,2.3c0,0.1,0,0.3-0.2,0.2
					C128.1,112.5,128.1,112.4,128.1,112.3z"/>
			</g>
			<g>
				<path class="st47" d="M144.5,112.7c-0.2,0.2-0.1,0.5-0.2,0.7c-0.2-0.6-0.2-1.3,0.2-1.9C144.5,111.9,144.5,112.3,144.5,112.7z"/>
			</g>
			<g>
				<path class="st48" d="M136.6,113.3c-0.1-0.1,0-0.3-0.2-0.3c-0.1-0.3,0.1-0.6,0.2-0.8C136.7,112.5,136.8,112.9,136.6,113.3z"/>
			</g>
			<g>
				<path class="st49" d="M114.9,107.2c0-0.2-0.1-0.4-0.1-0.6c0.4,0.2,0.4,0.6,0.5,0.9c-0.1,0.1-0.1,0.1-0.2,0.2
					C114.9,107.6,114.9,107.4,114.9,107.2z"/>
			</g>
			<g>
				<path class="st50" d="M141.9,76.8c-0.3,0.1-0.1,0.5-0.3,0.6c0-0.2,0-0.4,0-0.7c0-0.1-0.1-0.3,0.1-0.3
					C141.9,76.5,141.9,76.7,141.9,76.8z"/>
			</g>
			<g>
				<path class="st51" d="M166.3,105.8c0.2,0.3-0.1,0.6,0,0.9c0.1,0.1,0,0.2-0.1,0.2s-0.1-0.1-0.2-0.2
					C166.1,106.4,166.2,106.1,166.3,105.8z"/>
			</g>
			<g>
				<path class="st52" d="M166,106.7c0.1,0.1,0.1,0.1,0.2,0.2c0.1,0.2,0.1,0.4-0.2,0.4c0-0.1-0.1-0.1-0.1-0.2
					C165.9,107,166,106.9,166,106.7z"/>
			</g>
			<g>
				<path class="st53" d="M139.4,77c-0.1,0-0.2-0.1-0.3-0.1c0-0.1,0.1-0.4,0.2-0.3C139.5,76.6,139.4,76.8,139.4,77z"/>
			</g>
			<g>
				<path d="M162.2,125.1c0.7-0.7,1.5-1.1,2.3-1.6c0.6-0.7,1.5-0.9,2.3-1.2c2.7-1.1,5.6-1.2,8.4-0.8c1.6,0.2,3.2,0.4,5,0.4
					c0.3,0,0.6,0,0.8,0.3c2.2,0.2,4.4,0,6.5-0.8c1.3-0.5,2.4-1.3,3.1-2.5c0.3-0.4,0.5-0.5,0.9-0.1c7,5.8,11.4,13.1,13.5,21.9
					c0.4,1.6,0.7,3.2,0.8,5c-0.1,0.1-0.1,0-0.2,0c-1.9-7.6-5.9-13.9-12.1-18.5c-1.5-1.1-3-2.1-4.9-2.5c6.9,7,9.8,15.6,10.1,25.2
					c-0.2-0.8-0.4-1.5-0.6-2.3c-1.5-5.5-3.9-10.4-8-14.4c-2.8-2.8-6.3-4.9-10.1-6c-0.3-0.1-0.6-0.2-1-0.1c2.5,2.3,5.2,4.6,6.3,8
					c-1.5-1.4-3.2-2.7-5-3.8c-5.4-3.5-11.2-5.5-17.7-5.8C162.4,125.1,162.3,125.1,162.2,125.1z"/>
			</g>
			<g>
				<path d="M116.5,123.4c0.8,0.5,1.6,0.9,2.2,1.6c-8.9,0.3-16.4,3.7-23,9.6c0.6-1.6,1.4-3.1,2.6-4.4c1.1-1.2,2.3-2.4,3.4-3.6
					c-0.2-0.2-0.5,0-0.7,0.1c-5.7,1.7-10.1,5.2-13.5,10c-2.6,3.7-4.2,8-5.3,12.4c-0.4-0.2-0.2-0.5-0.2-0.8
					c0.5-9.3,3.6-17.6,10.4-24.4c-0.9,0.2-1.6,0.6-2.3,1c-7,3.9-11.5,10-14.2,17.5c-0.2,0.7-0.4,1.4-0.7,2.1c-0.1,0-0.1,0-0.2,0
					c0.7-5.9,2.5-11.3,5.7-16.4c2.3-3.7,5.3-7,8.6-9.8c0.2-0.2,0.4-0.6,0.7-0.1c1.5,2.2,3.7,3.1,6.3,3.4c1.2,0.1,2.3,0.2,3.5,0.1
					c0.1-0.2,0.3-0.2,0.5-0.2c2.9,0,5.8-0.7,8.7-0.7c2.4,0,4.6,0.8,6.7,1.8C116.2,123,116.4,123.2,116.5,123.4z"/>
			</g>
			<g>
				<path d="M74.8,157.5c1,3.3,2.7,6.3,4.6,9.2c2.9,4.5,6.3,8.5,9.8,12.5c0,0.1,0.1,0.2,0.1,0.2c-0.1,0.3-0.2,0-0.3,0
					c-1-0.7-2.1-1.4-3-2.2c-2.6-2-5.1-4.2-7.5-6.4c-2-1.8-3.6-3.9-5-6.3c-0.2-0.3-0.3-0.6-0.6-0.9c-0.3,1-0.6,1.9-1.1,3
					c-3.8-6.4-5.2-13.3-5.4-20.5c-1.3,1.5-2.5,2.8-3.8,4.4c-0.5-3.3-0.4-6.6,0-9.7c0.4-3.1,1.1-6.3,2.3-9.3c-1.5,0.8-2.5,2-3.9,3.1
					c0-1.4,0.2-2.6,0.5-3.8c0.8-3.2,2.2-6.3,3.7-9.2c3.3-6.5,6.6-13,8.6-19.9c0.1-0.3,0.2-0.6,0.3-1.1c0.2,0.8,0,1.4,0.1,2.1
					c0,0.5-0.3,1-0.2,1.6c0.1,0.9,0,1.7-0.2,2.5c-0.9,4.9-2.5,9.5-4.6,14.1c-1.1,2.5-2.3,5.1-3.6,7.5c0.4,0,0.7-0.3,1-0.4
					c0.6-0.2,0.9-0.1,0.8,0.6c-0.1,0.8-0.3,1.7-0.5,2.5c-0.6,2.8-1.1,5.6-1.4,8.4c-0.1,1.2-0.1,2.4,0.2,3.5c0.7-1.2,1.3-2.6,2.4-3.7
					c0.7-1,1.4-2,2-3.1h0.1c-0.1,1.5-0.3,3.1-0.4,4.7c0.2,0.9,0,1.8,0,2.7c-0.2,5-0.2,9.9,1.9,14.6c0.1,0.2,0.1,0.5,0.4,0.6
					c0.3-0.7,0.4-1.4,0.6-2.1c0.1-0.3,0.1-0.6,0.4-0.8c0.2-0.5,0.3-1,0.5-1.6C74.2,155.3,74.3,156.4,74.8,157.5z"/>
			</g>
			<g>
				<path d="M191.6,179.3c1.4-1.2,2.4-2.6,3.5-4c3.3-4,6.5-8.1,8.9-12.7c0.8-1.6,1.6-3.2,2.1-5c0.5-1.1,0.6-2.2,1-3.4
					c0.2,0.6,0.4,1.2,0.6,1.8c0.4,0.4,0.4,1,0.6,1.5c0.1,0.4,0.2,0.8,0.5,1.4c0.6-0.9,0.8-1.8,1.1-2.6c0.8-2.5,1.2-5.2,1.2-7.9
					c0-2.2,0.1-4.5-0.2-6.7c0-0.3-0.1-0.5,0.1-0.8c0-1.6-0.3-3.1-0.5-5c0.8,1.3,1.6,2.4,2.3,3.5c0.6,0.4,0.8,1,1.2,1.6
					c0.4,0.5,0.6,1.1,1.1,1.8c0.2-0.5,0.2-0.9,0.2-1.3c0.1-3.5-0.7-7-1.4-10.4c-0.2-0.9-0.4-1.8-0.5-2.7c-0.1-0.7,0.1-0.8,0.7-0.6
					c0.3,0.1,0.6,0.3,1,0.4c-0.1-0.4-0.4-0.8-0.5-1.1c-3.4-6.6-6.3-13.3-7.6-20.5c-0.2-0.9-0.2-1.8-0.3-2.7c0-0.3,0-0.5,0-0.8
					c0-0.4,0-0.8-0.1-1.2c0-0.5,0-0.9,0-1.4h0.1c0.5,1.6,1,3.1,1.5,4.8c1.9,5.7,4.7,10.9,7.4,16.3c1.6,3.1,3.1,6.3,3.9,9.8
					c0.2,1,0.4,2,0.4,3.2c-1.3-1.1-2.4-2.3-4-3.3c2.5,6.3,3.2,12.5,2.4,19.2c-1.3-1.5-2.5-2.8-3.8-4.4c-0.2,7.3-1.4,14.3-5.4,20.6
					c-0.2-0.7-0.4-1.1-0.6-1.6s-0.3-1-0.5-1.6c-0.4,0.6-0.7,1.1-1,1.7c-1.6,2.6-3.5,5-5.9,6.9c-2.9,2.4-5.7,5.1-8.9,7.2
					C192.2,179.3,191.9,179.8,191.6,179.3z"/>
			</g>
			<g>
				<path class="st4" d="M68.2,139.3c-0.8,1.3-1.6,2.7-2.5,4.1c-0.4-1.4-0.4-2.7-0.3-4.1c0.3-3.5,1.2-7.1,1.9-10.5
					c0.1-0.3,0.1-0.6,0.2-0.9c-0.7,0.3-1.4,0.6-2.1,1c0.8-1.6,1.5-3,2.2-4.5c2.7-5.7,5-11.5,6.2-17.7c0.2-0.8,0.3-1.7,0.4-2.5
					c0.2,0.2,0.1,0.5,0.1,0.7c0,3.3,0,6.7-0.2,10c0,0.9-0.2,1.9-0.3,2.8c0-0.2,0-0.3-0.1-0.6c-1.7,4.5-3.6,8.7-5.8,13
					c0.6-0.3,1.2-0.6,1.9-0.9c-0.3,1.4-0.6,2.7-0.9,4.1c-0.3,1.7-0.7,3.5-1,5.3C68,138.8,67.9,139.1,68.2,139.3z"/>
			</g>
			<g>
				<path class="st4" d="M206.8,103.9c0.7,5.9,2.6,11.4,5,16.9c1.1,2.5,2.3,5.1,3.6,7.6c0.1,0.1,0.2,0.3,0.2,0.6
					c-0.7-0.3-1.3-0.6-2-1c0.8,5.2,2.6,10.2,1.7,15.6c-0.8-1.3-1.5-2.6-2.3-3.8c0.2-0.8,0-1.6-0.2-2.3c-0.4-2.3-0.9-4.7-1.4-7
					c-0.1-0.3-0.1-0.6-0.2-0.9c0.7,0.1,1.2,0.6,1.9,0.7c-0.2-0.7-0.6-1.3-1-1.9c-1.8-3.4-3.4-7-4.8-10.7c0-0.1-0.1-0.1-0.1-0.2
					c0,0.1-0.1,0.1-0.1,0.2c-0.3-0.9-0.2-1.8-0.2-2.7C206.7,111,206.5,107.5,206.8,103.9C206.7,103.9,206.7,103.9,206.8,103.9z"/>
			</g>
			<g>
				<path d="M197.1,107.5c0.3,1.3,0.5,2.6,0.5,4c-0.1,1.3-0.3,1.6-1.6,1.9c-0.5,0.1-1.1,0.1-1.6,0.3c-1.1,0.3-2.1,0.8-2.9,1.6
					c-0.8,0.8-1.6,1.5-2.3,2.4c-1.7,2.1-3.8,3.4-6.7,3.5c-0.2-0.4,0.2-0.4,0.3-0.6c1.1-0.8,2.2-1.7,3-2.9c1-1,1.5-2.3,1.8-3.7
					c0.2-0.9,0.3-1.9,0.5-2.8c0.5-1.8,1.6-2.9,3.2-3.8c1.4-0.6,2.9-1.1,4.6-1.1C196.9,106.2,197.2,106.6,197.1,107.5z"/>
			</g>
			<g>
				<path d="M98.5,121.2c-2.8,0-4.9-1.4-6.7-3.4c-0.7-0.8-1.4-1.5-2.1-2.2c-1.1-1.2-2.6-1.8-4.2-2c-1.8-0.2-2.1-0.7-2.1-2.5
					c0-1.2,0.3-2.3,0.5-3.4c-0.1-1,0.2-1.3,1.1-1.3c1.6,0,3.2,0.4,4.7,1.2c1.5,0.8,2.6,1.9,3,3.7c0.3,0.9,0.4,1.8,0.6,2.7
					c0.3,1.5,1,2.8,1.9,4c0.8,1.1,1.8,1.9,2.9,2.7C98.4,120.7,98.7,120.8,98.5,121.2z"/>
			</g>
			<g>
				<path class="st4" d="M197.1,107.5c-0.4-1.2-0.4-1.2-1.6-1.1c-1.4,0.1-2.7,0.6-4,1.1c-2.1,0.9-4.4,1.3-6.5,2
					c-0.2,0.1-0.4,0.2-0.7,0c0-1.4,0.6-2.5,2-2.9c2.8-0.8,5.6-1.9,8.6-2.3c2.5-0.3,4.6,0.5,5.9,2.7c0.5,0.9,1.1,1.7,1.4,2.7
					C200.8,108.5,199.1,107.8,197.1,107.5z"/>
			</g>
			<g>
				<path class="st4" d="M89.7,107.6c-1.3-0.6-2.6-1.1-4.1-1.2c-1.3-0.1-1.3-0.1-1.7,1.1c-1.7,0.3-3.3,0.8-4.8,1.8
					c-0.1,0.1-0.2,0.1-0.3,0.1c0.5-1.2,1.1-2.3,1.9-3.3c1.2-1.5,2.8-1.9,4.7-1.9c0.7,0,1.4,0.1,2,0.3c2.3,0.7,4.8,1.3,7.1,2.1
					c1.5,0.5,2,1.3,2.1,2.9c-0.2,0.2-0.4,0-0.7,0C93.9,108.8,91.7,108.4,89.7,107.6z"/>
			</g>
			<g>
				<path d="M159.1,126c0.9,0,1.8-0.2,2.7-0.3c1.7,0,3.4,0.3,5,1.2c-3.9-0.7-7.5,0.2-10.6,2.7c-2.7,2.1-4.6,5-5.4,8.3
					c-0.4,0-0.1-0.3-0.2-0.5c0.3-5.5,3.1-9,8-11.1c0.1,0,0.2-0.1,0.2-0.2C158.8,126.1,158.9,125.9,159.1,126z"/>
			</g>
			<g>
				<path d="M119.2,125.7c0.9,0.1,1.8,0.3,2.7,0.3c0.3,0.3,0.7,0.3,1,0.5c4.5,2.2,7.3,5.7,7.5,10.8c0,0.2,0.2,0.4-0.1,0.5
					c-1.6-5.2-4.7-9-10-10.5c-1.8-0.5-3.7-0.9-5.7-0.3c-0.1,0-0.3,0-0.5,0C115.8,126,117.5,125.8,119.2,125.7z"/>
			</g>
			<g>
				<path class="st4" d="M183,120.7c-0.1,0.2-0.5,0.2-0.5,0.5c-0.1,0-0.1,0.1-0.2,0.1c-0.3,0-0.5,0.2-0.8,0.3
					c-0.2,0.1-0.4,0.2-0.6,0.3c-2.2,0-4.4-0.2-6.6-0.5c-3.1-0.4-6.1,0.2-8.9,1.5c-0.3,0.1-0.6,0.3-0.9,0.4c-0.1-0.3-0.3-0.5-0.4-0.8
					c2.1-1.3,4.5-1.8,6.8-2.3c1.4-0.3,2.8-0.1,4.2,0.3c3.1,0.8,6.1,0.4,8.7-1.3c0.2,0.4-0.2,0.7-0.4,1
					C183.4,120.3,183.1,120.4,183,120.7z"/>
			</g>
			<g>
				<path class="st4" d="M98.5,121.2c0-0.3-0.4-0.3-0.5-0.6c-0.2-0.4-0.6-0.5-0.8-0.9c-0.1-0.2-0.4-0.4-0.1-0.7
					c2.7,1.8,5.7,2.2,8.7,1.4c3.5-1,6.8,0.1,9.9,1.4c0.4,0.2,0.8,0.4,1.2,0.6c-0.1,0.3-0.3,0.6-0.5,0.8c-3.7-2.1-7.8-2.5-11.9-1.7
					c-1.4,0.3-2.9,0.3-4.5,0.3c-0.2-0.1-0.3-0.1-0.5-0.2C99.3,121.3,98.9,121.2,98.5,121.2C98.6,121.2,98.6,121.2,98.5,121.2z"/>
			</g>
			<g>
				<path d="M150.3,134.4c-2.3,1.6-4,3.5-5.3,6c-1.2,2.3-1.4,5-1.8,7.7C140.6,143,144.8,134.9,150.3,134.4z"/>
			</g>
			<g>
				<path d="M137.8,147.9c-0.4-2.7-0.6-5.4-1.9-7.8c-1.2-2.4-3-4.4-5.3-5.9C136.1,134.8,140.5,143,137.8,147.9z"/>
			</g>
			<g>
				<path class="st54" d="M159.1,126c-0.1,0.1-0.2,0.1-0.3,0.2c-1-0.5-2.2-0.5-3.3-0.7c-3.3-0.8-6.6-0.1-9.6,1.3
					c-0.5,0.3-1,0.7-1.5,1c-0.1,0.1-0.2,0-0.3,0c2.8-4.2,8.6-5.4,13-2.9C157.7,125.2,158.4,125.6,159.1,126z"/>
			</g>
			<g>
				<path d="M122.5,125.7c1.5-0.9,3-1.8,4.9-2c3.9-0.5,7.2,0.7,9.6,3.9c0,0.2,0,0.2-0.2,0.2c-3.4-2.4-7.3-3.2-11.3-2.3
					c-0.8,0.2-1.7,0.3-2.5,0.4C122.7,125.9,122.5,126,122.5,125.7z"/>
			</g>
			<g>
				<path class="st55" d="M82.3,148.5c0.1,0.3-0.1,0.6,0.2,0.8c0,0.3-0.1,0.5-0.2,0.8C82.2,149.5,82.1,149,82.3,148.5z"/>
			</g>
			<g>
				<path class="st56" d="M98.7,121.3c0.5-0.2,0.8,0,1,0.4C99.3,121.6,98.9,121.6,98.7,121.3z"/>
			</g>
			<g>
				<path class="st57" d="M205.6,118.5c0.2-0.2,0-0.5,0.1-0.8c0.2,0.5,0.1,0.9,0,1.4C205.7,118.9,205.6,118.7,205.6,118.5z"/>
			</g>
			<g>
				<path class="st58" d="M130.3,137.7c0-0.2,0.1-0.3,0.1-0.5c0.2,0.4,0.1,0.8,0,1.3C130.5,138.3,130.4,138,130.3,137.7z"/>
			</g>
			<g>
				<path class="st59" d="M75.2,118c0.1,0.2,0,0.4,0.2,0.6c0,0.2-0.1,0.4-0.2,0.5C75.1,118.7,75,118.4,75.2,118z"/>
			</g>
			<g>
				<path class="st60" d="M150.5,137.4c0.1,0.1,0,0.3,0.2,0.5c0,0.3-0.1,0.5-0.3,0.8C150.4,138.2,150.3,137.8,150.5,137.4z"/>
			</g>
			<g>
				<path class="st61" d="M75.4,145.5c-0.1,0.3-0.1,0.5-0.2,0.8c-0.1-0.3-0.2-0.6,0-0.9C75.3,145.3,75.3,145.4,75.4,145.5z"/>
			</g>
			<g>
				<path class="st62" d="M205.6,145.3c0.1,0,0.1,0,0.2,0c0.2,0.3,0.2,0.5,0.1,1C205.7,145.9,205.6,145.6,205.6,145.3z"/>
			</g>
			<g>
				<path class="st63" d="M181.6,121.6c0.2-0.1,0.4-0.6,0.8-0.3C182.1,121.5,181.9,121.6,181.6,121.6z"/>
			</g>
			<g>
				<path class="st64" d="M76.5,128.1c-0.1-0.2,0.1-0.5-0.2-0.6c0.1-0.1,0.1-0.2,0.2-0.5C76.7,127.4,76.7,127.8,76.5,128.1z"/>
			</g>
			<g>
				<path class="st65" d="M136.7,127.7c0.1-0.1,0.1-0.1,0.2-0.2c0.2,0.1,0.3,0.3,0.4,0.5C136.9,128.2,136.8,127.9,136.7,127.7z"/>
			</g>
			<g>
				<path class="st66" d="M75.4,145.5c-0.1,0-0.1-0.1-0.2-0.1c0-0.2,0-0.4,0.1-0.6c0.1,0,0.1,0,0.2,0
					C75.5,145,75.4,145.2,75.4,145.5z"/>
			</g>
			<g>
				<path class="st67" d="M122.5,125.7c0.1,0.1,0.2,0.1,0.4,0.2c-0.3,0.2-0.5,0.2-0.8,0.1C122.1,125.8,122.3,125.8,122.5,125.7z"/>
			</g>
			<g>
				<path class="st68" d="M144,127.7c0.1,0,0.2,0,0.3,0c-0.2,0.2-0.3,0.4-0.6,0.4C143.8,128,143.9,127.9,144,127.7z"/>
			</g>
			<g>
				<path class="st69" d="M206.8,103.9L206.8,103.9C206.7,103.9,206.7,103.9,206.8,103.9c-0.1-0.2-0.1-0.5-0.1-0.7
					C206.8,103.4,206.8,103.6,206.8,103.9z"/>
			</g>
			<g>
				<path d="M232.1,135.9c0,0.3,0,0.5,0,0.8c0.1,0.3,0,0.5,0.1,0.8c0,0.3,0,0.5,0,0.8c0.2,2.1,0.3,4.4,0.6,6.5
					c0,1.6,0.3,3.2,0.5,5.1c-1.5-2-2.6-3.9-4.1-5.7c-2.1,3.4-1,17.3,4,22.6c-2.2,0.3-4.2,0.8-6.3,1.5c-3.7,1.2-7.4,2.7-10.5,5.1
					c-0.5,0.3-1.2,0.7-1.2,1.1c0.1,0.5,1,0.4,1.5,0.5c3.1,0.6,6.3,0.9,9.3,1.6c0.5,0.1,0.9,0.2,1.6,0.4
					c-15.5,5.7-29.4,13.4-40.3,26.2c3.7,0.3,7.1,1,10.3,2.3c0,0.3-0.3,0.2-0.5,0.2c-0.7,0-1.3,0-2,0.1c-5.3,0.3-10.1,1.5-14.6,4.4
					c-1.1,0.7-2.1,1.6-3,2.6c-0.2,0.2-0.2,0.5-0.6,0.4c3.4-8.9,8.6-16.7,15-23.6c4.1-4.6,9-8.3,14.6-11c0.1-0.1,0.3-0.1,0.3-0.3
					c-1.6-0.3-3.2,0.1-5.1,0.2c5.6-6.5,11.9-11.4,20.2-13.8c-1.8-0.5-3.4-1.2-4.8-2.7c1.1,0.1,2.1,0.3,3.1,0.3
					c3.1,0.2,4.6-1,4.6-4.2c0-2.6-0.4-5.4-0.8-8c-0.5-3-0.7-6.2-0.9-9.3c-0.1-3.2-0.4-6.4-0.8-9.6c0-0.3,0-0.6-0.1-1.1
					c1.7,1.9,2.5,4,3.4,6.3c0.3-0.7,0.2-1.3,0.3-1.9c0.3-3.6,0.6-7.2-0.4-10.7c-1.1-3.5-3-6.7-5.2-9.6c-1.3-1.9-2.6-3.9-3.4-6.3
					c-0.5-1.4-0.6-2.9-0.2-4.5c0.1,0,0.1,0,0.2,0c1.6,3.2,4,5.9,6.5,8.4c1.8,1.9,3.5,3.9,5.2,6.1c1.2,2,2.3,4.1,2.9,6.4
					c0,0.1,0.1,0.2,0.1,0.4c0,0.1,0,0.3,0,0.5c-1.3-1.1-2.1-2.6-3.5-3.4c2.3,4.2,2.9,8.9,3.5,13.5
					C232.1,135.4,231.9,135.7,232.1,135.9z"/>
			</g>
			<g>
				<path d="M48.5,138.4c0.4-1,0.3-2.1,0.4-3.1c0.5-3.7,1-7.4,2.3-10.9c0.3-0.7,0.6-1.5,0.9-2.2c0.1-0.2,0-0.3-0.2-0.2
					c-1.2,0.9-2,2.1-3.2,3.1c0.7-2.5,1.7-5,3.1-7.2c0-0.1,0.1-0.1,0.1-0.2c1.8-2.4,3.8-4.7,5.9-6.8c2.2-2.3,4.4-4.7,5.8-7.8
					c0.5,1.5,0.4,2.8,0,4.2c-0.7,2.6-2.2,4.9-3.7,7c-1.2,1.8-2.3,3.6-3.3,5.6c-1.9,3.7-2.5,7.7-2.1,11.8c0.1,1.5,0.2,2.9,0.4,4.5
					c1-2.1,1.8-4.4,3.5-6.3c-0.2,2.3-0.4,4.5-0.6,6.6c-0.2,2.2-0.3,4.4-0.4,6.6c-0.1,3-0.6,6-1,8.9c-0.3,1.9-0.6,3.9-0.5,6
					c0,0.5,0.1,1.1,0.2,1.6c0.4,1.6,1.3,2.4,3,2.5c1.2,0.1,2.4-0.1,3.5-0.3c0.3,0,0.5-0.1,0.9-0.1c-1.3,1.5-2.9,2.2-4.8,2.7
					c8.3,2.3,14.7,7.3,20.2,13.8c-1.8-0.1-3.4-0.5-5.3-0.1c1.9,0.9,3.6,1.9,5.3,3c6.9,4.6,12.2,10.5,16.9,17.2
					c2.8,4,5.3,8.3,7.1,12.7c0.2,0.6,0.4,1.2,0.6,1.7c-0.1,0.1-0.2,0-0.2,0c-3.1-3.5-7.3-5.4-11.7-6.5c-2.9-0.7-5.9-1-8.8-0.9
					c3.2-1.4,6.7-2.1,10.3-2.4c-0.2-0.5-0.6-0.9-0.9-1.3c-4.1-5-9-9-14.3-12.5c-7.4-5.1-15.4-8.9-23.9-11.9
					c-0.3-0.1-0.6-0.1-0.8-0.4c2.1-0.7,4.4-1,6.6-1.3c1.8-0.3,3.5-0.5,5.4-0.9c0.2,0,0.4,0,0.5-0.2s-0.2-0.3-0.3-0.5
					c-2.1-1.9-4.7-3.1-7.2-4.2c-3.3-1.4-6.8-2.5-10.4-3l-0.1-0.1c4.8-4.9,6.1-18.3,3.9-22.5c-1.5,1.7-2.7,3.7-4.2,5.8
					c0.2-1.8,0.5-3.4,0.5-5.1c-0.1-0.3,0-0.5,0.1-0.8c0.2-1.7,0.3-3.3,0.5-5.1C48.7,138.7,48.8,138.5,48.5,138.4z"/>
			</g>
			<g>
				<path class="st70" d="M48.2,143.9c0,0.3,0.1,0.5-0.1,0.8c-0.1,0-0.1,0-0.2,0C47.9,144.4,47.9,144.1,48.2,143.9z"/>
			</g>
			<g>
				<path class="st71" d="M195.3,205.6c0.5-0.3,1.1-0.1,1.6-0.1c0.3,0,0.6,0.1,0.9-0.1c0.1,0,0.2,0.1,0.3,0.1v0.1
					C197.2,205.6,196.3,205.6,195.3,205.6z"/>
			</g>
			<g>
				<path class="st72" d="M155.1,176.2c-1.1,0.2-2.3,0.2-3.4,0C152.8,176.2,153.9,176.2,155.1,176.2z"/>
			</g>
			<g>
				<path class="st72" d="M157.2,176c-0.3,0.3-0.6,0.1-0.9,0.1C156.5,175.9,156.9,176,157.2,176z"/>
			</g>
			<g>
				<path class="st72" d="M171.9,171.8c0.2-0.2,0.5-0.1,0.8-0.1C172.4,172,172.1,171.8,171.9,171.8z"/>
			</g>
			<g>
				<path class="st72" d="M161.5,175.5c-0.2,0.2-0.5,0.1-0.8,0.1C161,175.4,161.3,175.6,161.5,175.5z"/>
			</g>
			<g>
				<path class="st72" d="M160.1,175.7c-0.2,0.2-0.5,0.1-0.8,0.1C159.6,175.6,159.9,175.7,160.1,175.7z"/>
			</g>
			<g>
				<path class="st72" d="M158.7,175.9c-0.2,0.2-0.5,0.1-0.8,0.1C158.2,175.7,158.5,175.9,158.7,175.9z"/>
			</g>
			<g>
				<path class="st73" d="M124.3,176.1c-0.3,0-0.6,0.1-0.8-0.1C123.8,176,124.1,175.9,124.3,176.1z"/>
			</g>
			<g>
				<path class="st4" d="M211.1,141c0.3,1.5,0.3,3,0.3,4.6c0.1,4.1-0.1,8.4-1.7,12.3c-0.2,0.6-0.5,1.1-0.9,1.7
					c-0.3-1.1-0.6-2.3-0.9-3.4c0.7-1.5,0.8-3.1,1.1-4.7c0.3-1.8,0.2-3.6,0.2-5.5c0-2.9-0.4-5.9-0.8-9.1
					C209.3,138.2,210.2,139.6,211.1,141z"/>
			</g>
			<g>
				<path class="st4" d="M73.3,155.9c-0.3,1.2-0.6,2.4-0.9,3.5c-3.1-6-2.9-12.2-2.3-18.5c0.9-1.3,1.8-2.6,2.8-4.1
					c-0.1,1.3-0.3,2.3-0.4,3.4c-0.4,3.3-0.6,6.7-0.3,10c0.1,1.6,0.4,3.2,0.8,4.8C73,155.3,73,155.6,73.3,155.9z"/>
			</g>
			<g>
				<path class="st74" d="M52.1,121.9c0.1-0.2,0.2-0.4,0.4-0.3c0.2,0.1-0.1,0.3-0.2,0.5C52.2,122,52.2,121.9,52.1,121.9z"/>
			</g>
			<g>
				<path class="st14" d="M232.1,135.9c-0.1-0.2-0.2-0.5-0.1-0.8C232.2,135.4,232.1,135.6,232.1,135.9z"/>
			</g>
			<g>
				<path class="st14" d="M232.2,137.5c-0.1-0.3-0.2-0.5-0.1-0.8C232.3,136.9,232.3,137.2,232.2,137.5z"/>
			</g>
			<g>
				<path class="st75" d="M127.4,227.6c0.1,1-0.1,1.9-0.6,2.7c-0.8,1.3-2.3,1.3-3.4,0.4c-1.8-1.5-2.3-3.7-2.8-5.9
					c-0.2-0.7-0.2-1.5-0.2-2.2c0-0.4,0-0.8,0.5-1s0.7,0.2,0.9,0.5c0.5,0.7,1.1,1.5,1.9,1.9c0.5,0.3,0.5,0.3,0.6-0.2
					c0.1-0.2,0.2-0.1,0.3-0.1c1.2-0.1,2.1,0.4,2.5,1.6C127.3,226.1,127.5,226.9,127.4,227.6z"/>
			</g>
			<g>
				<path class="st75" d="M156.3,223.7c0.3,0,0.5-0.1,0.4,0.4c-0.1,0.3,0.3,0.2,0.5,0.1c0.8-0.4,1.4-1.1,1.9-1.8
					c0.3-0.4,0.4-1.1,1.1-0.8c0.6,0.2,0.7,1,0.6,1.5c-0.4,2.5-0.7,5.1-2.4,7.1c-0.7,0.8-1.4,1.3-2.5,1.2c-1.1-0.2-1.6-0.9-2-2
					c-0.4-1.3-0.3-2.6,0.1-3.9C154.2,224.2,155.1,223.7,156.3,223.7z"/>
			</g>
			<g>
				<path class="st75" d="M154.9,185.8c-0.1,1.2-0.1,2.5-0.7,3.6c-0.3,0.5-0.6,0.5-0.9,0c-0.4-0.6-0.9-1.1-1.3-1.7
					c-0.4-0.6-0.3-1.2,0.2-1.7c0.6-0.5,1.1-1.1,1.9-1.5c0.5-0.3,0.8-0.2,0.8,0.5C154.9,185.3,154.9,185.5,154.9,185.8z"/>
			</g>
			<g>
				<path class="st75" d="M126,185.8C126,185.7,126,185.7,126,185.8c0.1-0.5-0.2-1.1,0.3-1.4c0.5-0.2,0.9,0.3,1.3,0.5
					c0.3,0.2,0.6,0.4,0.8,0.7c0.9,0.8,1,1.5,0.3,2.4c-0.3,0.5-0.7,0.9-1.1,1.4c-0.4,0.5-0.7,0.4-1-0.1
					C126.3,188.6,126,187.1,126,185.8z"/>
			</g>
			<g>
				<path class="st75" d="M132,234.6c-1-0.1-2-1.8-1.4-2.7c0.2-0.3,0.4-0.3,0.7-0.2c0.8,0.3,1.6,0.8,1.8,1.7
					C133.2,234.1,132.8,234.7,132,234.6z"/>
			</g>
			<g>
				<path class="st75" d="M150.6,232.5c0,1.2-0.7,2-1.6,2c-0.7,0-1.1-0.5-0.9-1.2c0.2-0.8,0.7-1.3,1.4-1.6
					C150.4,231.4,150.6,231.5,150.6,232.5z"/>
			</g>
			<g>
				<path class="st75" d="M148.2,187.7c1.3,0,1.3,0.1,1,1.1c-0.1,0.2-0.1,0.3-0.2,0.5c-0.2,0.4-0.4,1-1,1s-0.8-0.4-1.1-0.8
					c-0.6-0.9-0.4-1.4,0.7-1.7C147.9,187.7,148.2,187.7,148.2,187.7z"/>
			</g>
			<g>
				<path class="st75" d="M132.6,187.7c0.1,0,0.2,0,0.3,0c0.6,0.1,1.2,0.1,1.5,0.7c0.2,0.4-0.4,1.4-0.9,1.8
					c-0.3,0.2-0.7,0.2-0.9-0.1c-0.6-0.6-0.9-1.3-0.9-2C131.6,187.5,132.3,187.9,132.6,187.7z"/>
			</g>
			<g>
				<path class="st76" d="M137.8,188c0.6,0.2,1.2,0.1,1.5,0.8c0.1,0.3-0.4,1.4-0.8,1.7c-0.2,0.1-0.4,0.2-0.6,0
					c-0.6-0.4-1-1.1-1.1-1.8C136.7,188.1,137.5,188.3,137.8,188z"/>
			</g>
			<g>
				<path class="st76" d="M141.8,189c0-0.6,0.5-1,1.3-1c0.4,0,1,0,1.1,0.6s-0.8,1.9-1.3,1.9S141.8,189.7,141.8,189z"/>
			</g>
			<g>
				<path class="st76" d="M136,233.6c-0.5,0-1-0.1-1.1-0.7c-0.2-0.6,0-1.1,0.2-1.7c0.1-0.2,0.2-0.1,0.3,0c0.7,0.2,1.4,1.4,1.2,2.1
					C136.6,233.7,136.2,233.5,136,233.6z"/>
			</g>
			<g>
				<path class="st76" d="M146.1,232.3c0,1.1-0.7,1.6-1.6,1.3c-0.1,0-0.3-0.1-0.2-0.3c0.1-0.7,0.2-1.4,0.9-1.9
					c0.5-0.3,0.7-0.2,0.8,0.3C146.1,232,146.1,232.2,146.1,232.3z"/>
			</g>
			<g>
				<path class="st77" d="M138.7,231.3c0.3,0.4,0.5,0.8,0.7,1.1s0.1,0.6-0.1,0.9c-0.1,0.2-0.3,0.3-0.6,0.2s-0.6-0.3-0.6-0.7
					C138.1,232.2,138.1,231.7,138.7,231.3z"/>
			</g>
			<g>
				<path class="st76" d="M142.3,231.3c0.7,0.9,0.8,1.5,0.2,2c-0.2,0.2-0.5,0.4-0.8,0.1c-0.3-0.2-0.4-0.5-0.2-0.8
					C141.8,232.1,142,231.7,142.3,231.3z"/>
			</g>
			<g>
				<path class="st3" d="M166,107.4c0.1-0.1,0.2-0.3,0.2-0.4s0.1-0.1,0.1-0.2c0.7-1.1,1.4-2.2,2.1-3.3c0.4-0.7,1-1.2,1.6-1.7
					c2.4-1.9,4.1-4.4,4.7-7.5c0.9-2.2,1.5-4.5,1.4-6.9c-0.1-1.4-0.4-2.6-1-3.9c1.5,0.9,2.7,2.1,3.7,3.6c0.4,0.5,0.1,1.2,0.4,1.7
					c0.6,0.9,1,1.9,1.6,2.8c0.3,0.4-0.1,0.8-0.3,1.2c-0.9,1.3-1.9,2.3-3.1,3.2c-1.1,0.9-2.3,1.8-3.3,3c-0.7,0.8-1.6,1.5-2.6,2.2
					c0.9-0.1,1.5-0.4,2.1-0.8c0.9-0.5,1.7-1.1,2.6-1.7c2.3-1.5,4.9-2.1,7.6-2.3c1.7-0.2,3.4-0.2,5.2-0.4c0.7-0.1,0.7-0.2,0.4-0.8
					c-0.4-0.8-1-1.6-1.6-2.3c-0.2-0.2-0.6-0.4-0.5-0.8c0.3-1.6,0.4-3.1-0.8-4.6c0.2,0.1,0.4,0.2,0.6,0.4c2,1.9,4.1,3.9,5.4,6.6
					c0.7,1.6,0.9,3.2,0.5,5c-1,1.3-2.3,2.2-3.8,2.9c-1.1,0.6-2.2,1-3.4,1.5c-0.8,0.3-1.7,0-2.5-0.1c-2-0.3-3.9-0.6-6-0.3
					c-3.1,0.5-5.7,2.2-8,4.1c-1.6,1.3-2.7,2.9-3.8,4.8c-0.8,1.3-1.7,2.7-2.8,3.8c-0.3,0.3-0.7,0.7-1.2,0.9c-0.3,0-0.2-0.2-0.2-0.3
					c0.2-0.4,0.5-0.7,0.8-1c1.5-1.5,2.4-3.4,3.2-5.5C165.4,109.2,165.8,108.3,166,107.4z"/>
			</g>
			<g>
				<path class="st78" d="M175.3,118.8c-2.7,0-4.5-0.4-6.1-1.3c-1.8-1-2.5-2.4-2.1-4.4c1-5,6.5-8.5,11.7-6.4c2.3,1,3.2,2.8,3.4,5.3
					c0.2,2.3-0.7,4.1-2.6,5.4C178,118.4,176.3,118.8,175.3,118.8z"/>
			</g>
			<g>
				<path class="st3" d="M183,120.7c-0.1-0.5,0.4-0.5,0.5-0.8s0.4-0.4,0.4-0.7c0.7-0.8,1.4-1.6,2-2.8c-0.9,0.7-1.6,1.3-2.4,1.7
					c-0.8,0.4-1.7,0.8-2.7,0.8c2.9-2.2,3.4-5.4,3.6-8.6c0-0.2,0-0.4,0-0.6c2.2-0.7,4.5-1.3,6.7-2c0.1,0,0.3,0,0.5,0
					c-1.4,0.8-2.6,1.9-3,3.6c-1,1.3-1.5,2.8-1.7,4.5c-0.1,0.8-0.3,1.6-0.8,2.3C185.2,119,184.1,119.9,183,120.7z"/>
			</g>
			<g>
				<path class="st4" d="M165,110.1c-0.2,1.7-1.1,3-2,4.4c-0.5,0.7-1.1,1.3-1.7,2c-0.1,0.1-0.4,0.2-0.1,0.4c-0.3,0.3-0.6,0.5-1,0.8
					c-0.3,0.1-0.4,0.3-0.6,0.5c-0.3,0.1-0.5,0.4-0.8,0.7c0,0,0,0.1-0.1,0c-0.3,0.1-0.4,0.3-0.7,0.5s-0.7,0.4-0.9,0.6
					c-1.9,0.9-3.8,1.2-6,0.5c3.3-0.3,6.1-2,8.5-4.1C161.7,114.7,163.5,112.5,165,110.1z"/>
			</g>
			<g>
				<path class="st79" d="M159.5,118.2c0.2-0.2,0.2-0.6,0.6-0.4c0,0.1,0,0.1,0,0.2c-0.2,0.1-0.3,0.2-0.5,0.3
					C159.6,118.2,159.6,118.2,159.5,118.2z"/>
			</g>
			<g>
				<path class="st3" d="M114.9,107.2c0.1,0.2,0.2,0.3,0.2,0.5c0.2,0.8,0.6,1.5,0.8,2.3c0.8,2.3,2,4.4,3.7,6.1
					c0.2,0.2,0.5,0.4,0.6,0.7c0.1,0.1,0.1,0.3-0.2,0.3c-1.2-0.5-1.9-1.4-2.6-2.4c-1-1.3-1.8-2.8-2.8-4.1c-2.7-3.6-6.2-6.3-10.7-7.2
					c-2-0.4-4-0.1-6,0.3c-1.4,0.3-2.6,0.2-3.9-0.5c-1.7-0.8-3.4-1.6-4.9-2.9c-0.4-0.3-0.7-0.6-1-1.1c-0.5-2.7,0.3-5.1,2-7.2
					c1.1-1.4,2.3-2.7,3.6-3.9c0.1-0.1,0.2-0.3,0.5-0.2c-0.7,1-0.7,2.2-0.6,3.4c0,0.3,0,0.5,0.4,0.6c0,0.4-0.3,0.6-0.5,0.8
					c-0.7,0.7-1.3,1.6-1.8,2.5c-0.2,0.4-0.2,0.7,0.4,0.7c1.7,0.2,3.3,0.3,5.1,0.4c3,0.2,5.9,1,8.4,2.9c0.9,0.6,1.8,1.3,2.8,1.7
					c0.3,0.1,0.7,0.2,1.1,0.3c-2.2-1.7-3.9-3.8-6.1-5.5c-1.2-0.9-2.2-1.9-3-3.2c-0.2-0.3-0.4-0.7-0.1-1.1c0.8-1.1,1.3-2.3,1.7-3.6
					c0.2-1.1,1-1.9,1.7-2.7c0.5-0.5,1.1-1,1.7-1.4c0.1-0.1,0.3-0.3,0.5-0.1c-1.4,3.4-1.1,6.8,0.3,10.1c0.1,0.3,0.2,0.5,0.3,0.8
					c0.3,2,1.1,3.7,2.4,5.3c0.7,0.8,1.4,1.5,2.2,2.1c1.3,1.1,1.9,2.7,2.8,4C114.5,106.3,114.7,106.8,114.9,107.2z"/>
			</g>
			<g>
				<path class="st78" d="M106.8,118.8c-1.8,0-3.4-0.3-5-1.1c-2.1-1.1-3.1-2.9-3-5.4c0.1-2.7,1.2-4.8,3.9-5.8
					c5-1.7,10.6,1.7,11.3,6.9c0.2,1.6-0.4,2.9-1.7,3.8C110.7,118.3,108.7,118.8,106.8,118.8z"/>
			</g>
			<g>
				<path class="st3" d="M97.1,119.1c0.1,0.5,0.5,0.8,0.7,1.2c0.1,0.1,0.4,0.2,0.2,0.4c-1.1-0.7-2.1-1.5-2.8-2.6
					c-0.6-0.8-0.8-1.8-0.9-2.8c-0.2-1.5-0.7-2.9-1.7-4.1c-0.4-1.5-1.4-2.6-2.8-3.4c0.2-0.3,0.5,0,0.7,0c2,0.7,4.1,1,6.2,1.8
					c0.2,1.5,0.2,3,0.6,4.6c0.5,1.8,1.4,3.4,3.1,4.8c-2.1-0.1-3.6-1.2-5.1-2.3C95.7,117.5,96.5,118.3,97.1,119.1z"/>
			</g>
			<g>
				<path class="st4" d="M120.1,117.1c0.2-0.4-0.2-0.5-0.4-0.6c-1.5-1.5-2.8-3.2-3.5-5.3c-0.1-0.4-0.3-0.8-0.3-1.2
					c2,3.6,5,6.5,8.5,8.6c1.6,1,3.4,1.7,5.4,1.9c-2.1,0.8-4,0.4-6-0.5c-1-0.8-2-1.6-3-2.3C120.6,117.5,120.4,117.3,120.1,117.1z"/>
			</g>
			<g>
				<path class="st80" d="M120.8,117.7c0.8,0.3,1.3,1,2,1.4c0.4,0.3,0.9,0.4,1,0.9c-1.1-0.5-1.9-1.5-2.9-2.1
					C120.8,117.9,120.8,117.8,120.8,117.7z"/>
			</g>
			<g>
				<path class="st81" d="M159.5,118.2c0.1,0,0.1,0,0.2,0c-0.3,0.2-0.6,0.5-0.9,0.7C158.8,118.5,159.1,118.2,159.5,118.2z"/>
			</g>
			<g>
				<path class="st82" d="M157,120.1c0.2-0.4,0.5-0.6,0.9-0.7c0,0,0.1,0.1,0,0.1l0,0C157.7,119.8,157.4,120,157,120.1z"/>
			</g>
			<g>
				<path class="st83" d="M158,119.5v-0.1c0.2-0.3,0.3-0.5,0.7-0.4C158.5,119.2,158.2,119.4,158,119.5z"/>
			</g>
			<g>
				<path d="M101.9,87.7c0,1.4-0.6,2.5-1.4,3.5c-0.3,0.4-0.3,0.6,0,1c0.9,1.3,2,2.4,3.2,3.4s2.3,1.9,3.4,3.1c0.8,0.9,1.7,1.7,3,2.4
					c-0.7,0.2-1.2,0.1-1.7-0.1c-1-0.4-1.9-1-2.7-1.6c-2.5-1.9-5.4-2.8-8.5-3c-2-0.1-4-0.3-6.1-0.5c0.5-1.7,1.6-2.9,2.8-4.1
					c2.1-1.8,4.6-3,7.3-4C101.5,87.6,101.7,87.4,101.9,87.7z"/>
			</g>
			<g>
				<path d="M187.2,91.9c1.1,1.1,2.1,2.4,2.7,4c-1.5,0.1-3,0.2-4.6,0.3c-1.5,0.1-3,0.3-4.6,0.5c-2.1,0.4-3.9,1.5-5.8,2.7
					c-0.9,0.6-1.8,1.3-2.9,1.6c-0.4,0.1-0.8,0.1-1.2,0c0.7-0.4,1.4-0.9,1.9-1.5c2-2.2,4.6-3.9,6.6-6.1c0.1-0.2,0.3-0.3,0.4-0.5
					c1-1.2,1-1.2,0.1-2.5c-0.4-0.6-0.7-1.3-0.9-2c-0.1-1.1-0.1-1.1,1-0.7C182.7,88.9,185.1,90.1,187.2,91.9z"/>
			</g>
			<g>
				<path class="st20" d="M185.9,117.9c0.4-1.3,0.6-2.7,0.9-4.1c0.3-1,0.7-1.9,1.5-2.6c-0.4,2-0.5,4-1.7,5.9
					C186.5,117.3,186.3,117.7,185.9,117.9z"/>
			</g>
			<g>
				<path class="st20" d="M92.5,111.1c1,0.8,1.5,1.8,1.7,3c0.2,1.3,0.5,2.6,0.9,3.9c-1.1-1.2-1.8-2.7-2.1-4.5
					C92.9,112.7,92.7,111.9,92.5,111.1z"/>
			</g>
			<g>
				<path class="st84" d="M174,116.9c-1.1,0-2.2-0.1-3.2-0.7c-1.4-0.7-2-1.9-1.8-3.5c0.8-4.5,5.4-6.3,8.6-5.5c1.7,0.4,2.9,2,3,3.8
					c0.2,4.1-2.5,5.7-5.8,5.9C174.6,116.9,174.3,116.9,174,116.9z"/>
			</g>
			<g>
				<path class="st84" d="M107.4,116.9c-1.8,0-3.3-0.3-4.8-1.1c-1.6-1-2.1-2.7-2.1-4.5c0.1-2,1.3-3.6,2.9-4.1c1.5-0.4,3-0.2,4.6,0.4
					c2.5,1,3.8,2.9,4.2,5.6c0.2,1.2-0.8,2.6-2.1,3.1c-0.4,0.1-0.7,0.3-1.1,0.3C108.5,116.9,107.8,117,107.4,116.9z"/>
			</g>
			<g>
				<path d="M177.1,111.3c0,1.1-0.2,2-0.9,2.9c-0.9,1.1-2.4,1.2-3.3,0c-1.2-1.5-1.3-4.2-0.1-5.8c1-1.3,2.6-1.3,3.6,0.1
					C176.9,109.3,177.1,110.3,177.1,111.3z"/>
			</g>
			<g>
				<path d="M109.1,111.2c0,1.1-0.3,2.1-0.9,2.9c-1,1.2-2.5,1.2-3.4,0c-1.2-1.5-1.2-4.1,0-5.7c1-1.3,2.5-1.3,3.5,0
					C108.9,109.3,109.1,110.3,109.1,111.2z"/>
			</g>
			<g>
				<path class="st85" d="M174.7,108.1c0.6,0,1.1,0.5,1.1,1.1s-0.5,1.1-1.1,1.1s-1.1-0.5-1.1-1.1
					C173.5,108.6,174.1,108.1,174.7,108.1z"/>
			</g>
			<g>
				<path class="st85" d="M106.4,108.1c0.6,0,1.1,0.5,1.1,1.1s-0.5,1.1-1.1,1.2c-0.6,0-1.1-0.5-1.1-1.1
					C105.3,108.6,105.7,108.1,106.4,108.1z"/>
			</g>
		</g>
	</g>
</g>
</svg>
