<?xml version="1.0" encoding="UTF-8"?>
<svg id="Layer_1" xmlns="http://www.w3.org/2000/svg" version="1.1" viewBox="0 0 42.8 42.8">
  <!-- Generator: Adobe Illustrator 30.4.0, SVG Export Plug-In . SVG Version: 2.1.4 Build 226)  -->
  <path d="M21.4,4.2c5.6,0,6.3,0,8.5.1,5.7.3,8.3,3,8.6,8.6.1,2.2.1,2.9.1,8.5s0,6.3-.1,8.5c-.3,5.6-2.9,8.3-8.6,8.6-2.2.1-2.9.1-8.5.1s-6.3,0-8.5-.1c-5.7-.3-8.3-3-8.6-8.6-.1-2.2-.1-2.9-.1-8.5s0-6.3.1-8.5c.3-5.6,2.9-8.3,8.6-8.6,2.2,0,2.9-.1,8.5-.1ZM21.4.4c-5.7,0-6.4,0-8.7.1C5.1.9.9,5.1.5,12.7c-.1,2.2-.1,3-.1,8.7s0,6.4.1,8.7c.4,7.6,4.6,11.9,12.2,12.2,2.2.1,3,.1,8.7.1s6.4,0,8.7-.1c7.6-.4,11.9-4.6,12.2-12.2.1-2.2.1-3,.1-8.7s0-6.4-.1-8.7c-.3-7.6-4.6-11.9-12.2-12.2-2.2-.1-3-.1-8.7-.1ZM21.4,10.6c-6,0-10.8,4.8-10.8,10.8s4.8,10.8,10.8,10.8,10.8-4.8,10.8-10.8-4.8-10.8-10.8-10.8ZM21.4,28.4c-3.9,0-7-3.1-7-7s3.1-7,7-7,7,3.1,7,7-3.1,7-7,7ZM32.6,7.7c-1.4,0-2.5,1.1-2.5,2.5s1.1,2.5,2.5,2.5,2.5-1.1,2.5-2.5-1.1-2.5-2.5-2.5Z" fill="#fff"/>
</svg>