<?xml version="1.0" encoding="utf-8"?>
<!-- Generator: Adobe Illustrator 24.2.3, SVG Export Plug-In . SVG Version: 6.00 Build 0)  -->
<svg version="1.1" id="Layer_1" xmlns="http://www.w3.org/2000/svg" xmlns:xlink="http://www.w3.org/1999/xlink" x="0px" y="0px"
	 viewBox="0 0 697.1 124.8" style="enable-background:new 0 0 697.1 124.8;" xml:space="preserve">
<style type="text/css">
	.st0{fill:none;stroke:#A51E30;stroke-miterlimit:10;}
</style>
<g>
	<path class="st0" d="M73.2,93.1H49.4V51.4H21.1V32h80.5v19.4H73.2V93.1z"/>
	<path class="st0" d="M145.1,30.4c27.8,0,41.7,9.9,41.7,29.8v4.5c0,4.5-0.7,8.5-2.1,11.9c-1.4,3.5-3.4,6.3-5.9,8.5
		c-2.5,2.2-5.5,4-9.1,5.5c-3.6,1.4-7.4,2.4-11.4,3c-4,0.6-8.4,0.9-13.2,0.9c-3.4,0-6.6-0.1-9.6-0.4c-3-0.3-5.9-0.8-8.8-1.5
		s-5.5-1.5-7.8-2.6c-2.3-1-4.5-2.4-6.5-3.9c-2-1.6-3.6-3.4-5-5.4c-1.3-2-2.4-4.4-3.1-7.1c-0.7-2.7-1.1-5.7-1.1-8.9v-4.5
		c0-3.2,0.4-6.2,1.1-8.9c0.7-2.7,1.8-5.1,3.1-7.1c1.3-2,3-3.8,5-5.4c2-1.6,4.1-2.9,6.5-3.9s4.9-1.9,7.8-2.6c2.9-0.7,5.8-1.2,8.8-1.5
		C138.5,30.5,141.7,30.4,145.1,30.4z M163,63.2v-1.5c0-1.9-0.3-3.6-0.9-5c-0.6-1.4-1.5-2.6-2.5-3.4c-1-0.8-2.3-1.5-4-2.1
		c-1.6-0.5-3.2-0.9-4.9-1.1c-1.6-0.2-3.5-0.3-5.6-0.3c-2.2,0-4,0.1-5.7,0.3c-1.6,0.2-3.2,0.5-4.9,1.1c-1.6,0.5-2.9,1.2-4,2.1
		c-1,0.8-1.9,2-2.5,3.4c-0.6,1.4-0.9,3.1-0.9,5v1.5c0,1.9,0.3,3.6,0.9,5.1c0.6,1.4,1.5,2.6,2.5,3.4c1,0.8,2.4,1.5,4,2.1
		c1.6,0.5,3.2,0.9,4.9,1.1c1.6,0.2,3.5,0.3,5.7,0.3c2.1,0,4-0.1,5.6-0.3s3.3-0.5,4.9-1.1c1.6-0.5,2.9-1.2,4-2.1c1-0.8,1.9-2,2.5-3.4
		C162.7,66.8,163,65.1,163,63.2z"/>
	<path class="st0" d="M193.8,31.9h58.9c4.1,0,8,1,11.5,3.1c3.6,2.1,6.4,4.9,8.5,8.5c2.1,3.6,3.1,7.4,3,11.5c0,4.6-1.2,8.8-3.7,12.5
		c-2.4,3.7-5.6,6.5-9.6,8.4L275.8,93h-25.4l-11.5-14.9h-21.3V93h-23.8V31.9z M246.7,49.8h-29.1v10.4h29.1c1.5,0,2.7-0.5,3.7-1.5
		c1-1,1.5-2.3,1.5-3.7c0-1.5-0.5-2.7-1.5-3.7C249.4,50.3,248.2,49.8,246.7,49.8z"/>
	<path class="st0" d="M277.6,93.1L310.4,32h28.3l32.8,61.1h-26.8l-4.8-10.5h-30.6l-4.8,10.5H277.6z M324.6,49.7l-8.4,18H333
		L324.6,49.7z"/>
	<path class="st0" d="M394.4,52c0,1.2,1.3,2,4,2.5c2.7,0.4,7,0.8,13,1c9.9,0.5,17.2,1.2,21.9,2.1c11.2,2.2,17.5,6.4,18.8,12.6
		c0.2,0.8,0.3,1.7,0.3,2.7c0,3.4-0.8,6.4-2.3,8.9c-1.5,2.6-3.6,4.6-6.1,6.2c-2.5,1.6-5.6,2.9-9.3,3.9c-3.7,1-7.4,1.7-11.2,2
		c-3.8,0.4-8,0.5-12.6,0.5c-3.3,0-6.3-0.1-9-0.2c-2.6-0.1-5.4-0.4-8.2-0.8c-2.8-0.4-5.3-0.9-7.5-1.5c-2.1-0.6-4.2-1.5-6.3-2.6
		c-2-1.1-3.8-2.4-5.1-3.9c-1.4-1.5-2.5-3.3-3.5-5.4c-1-2.1-1.6-4.5-1.9-7.2h25c1.3,2.2,3.3,3.8,6.1,4.6c2.8,0.9,6.3,1.3,10.4,1.3
		c2,0,3.9-0.1,5.8-0.3c1.8-0.2,3.5-0.5,5.2-0.9c1.7-0.4,3-1,4-1.9s1.5-1.8,1.5-2.9c0-0.4-0.2-0.8-0.5-1.2s-1-0.6-1.8-0.9
		c-0.8-0.2-1.7-0.4-2.5-0.6c-0.8-0.2-2-0.3-3.5-0.4s-2.8-0.2-4-0.3s-2.7-0.1-4.7-0.2c-9.9-0.5-17.2-1.2-21.9-2.1
		c-11.2-2.2-17.5-6.4-18.8-12.6c-0.2-0.8-0.3-1.7-0.3-2.6c0-14.4,13.8-21.6,41.5-21.6c3.4,0,6.3,0.1,9,0.3c2.6,0.1,5.3,0.4,8.2,0.8
		c2.9,0.4,5.4,0.9,7.5,1.5c2.1,0.6,4.2,1.5,6.3,2.6c2,1.1,3.8,2.4,5.1,3.9c1.4,1.5,2.6,3.3,3.5,5.4c1,2.1,1.6,4.5,1.9,7.2h-25
		c-1.3-2.2-3.3-3.8-6.1-4.7c-2.8-0.9-6.3-1.3-10.4-1.3c-2.1,0-4,0.1-5.8,0.3c-1.8,0.2-3.5,0.5-5.2,0.9c-1.7,0.4-3.1,1-4,1.9
		S394.4,50.9,394.4,52z"/>
	<path class="st0" d="M518.3,72.1h-35.8V93h-23.8V31.9h23.8v20.9h35.8V31.9h23.9V93h-23.9V72.1z"/>
	<path class="st0" d="M556.1,31.9h23.8V93h-23.8V31.9z"/>
	<path class="st0" d="M652.1,64.3V31.9H676V93h-26.8l-32.8-37.3V93h-23.8V31.9h32.8L652.1,64.3z"/>
</g>
</svg>
