<?xml version="1.0" standalone="no"?>
<!DOCTYPE svg PUBLIC "-//W3C//DTD SVG 20010904//EN"
 "http://www.w3.org/TR/2001/REC-SVG-20010904/DTD/svg10.dtd">
<svg version="1.0" xmlns="http://www.w3.org/2000/svg"
 width="1200.000000pt" height="1200.000000pt" viewBox="0 0 1200.000000 1200.000000"
 preserveAspectRatio="xMidYMid meet">
<metadata>
Created by potrace 1.14, written by Peter Selinger 2001-2017
</metadata>
<g transform="translate(0.000000,1200.000000) scale(0.100000,-0.100000)"
fill="#000000" stroke="none">
<path d="M0 6000 l0 -6000 6000 0 6000 0 0 6000 0 6000 -6000 0 -6000 0 0
-6000z m9200 3669 c-10 -52 -42 -137 -67 -177 -30 -48 -74 -102 -83 -102 -5 0
-14 18 -20 40 -12 45 -17 49 -28 20 -4 -11 -57 -83 -117 -160 l-110 -140 -3
55 c-2 30 -5 55 -8 55 -2 0 -28 -16 -57 -35 -75 -50 -157 -80 -351 -131 -169
-44 -291 -92 -352 -139 l-31 -24 -27 62 c-14 34 -46 89 -71 122 -25 33 -45 63
-45 67 0 4 19 0 43 -8 54 -19 247 -32 357 -23 124 9 193 20 183 28 -4 4 -42
15 -83 25 -118 26 -119 36 -5 37 55 0 107 2 115 3 8 2 44 6 80 10 62 7 175 32
193 43 15 9 -16 23 -50 23 -18 0 -67 8 -110 17 l-78 18 140 12 c135 11 310 46
320 64 3 4 -9 10 -27 13 -18 3 -67 11 -108 17 l-75 12 96 17 c62 12 121 30
164 51 73 37 159 114 190 173 17 30 21 33 26 18 4 -10 3 -39 -1 -63z m-6273
-77 c67 -53 161 -91 259 -105 102 -15 95 -22 -39 -37 -50 -6 -93 -13 -96 -15
-9 -9 74 -37 153 -51 44 -8 132 -17 194 -21 62 -3 111 -8 109 -9 -4 -5 -132
-30 -191 -39 -29 -4 -45 -10 -39 -16 17 -17 188 -48 333 -59 80 -7 146 -13
148 -15 1 -1 -19 -8 -45 -14 -122 -30 -129 -33 -108 -41 11 -4 70 -13 130 -20
122 -14 285 -8 378 14 l58 14 -26 -32 c-38 -46 -83 -125 -102 -177 l-16 -45
-51 34 c-76 52 -139 77 -292 117 -240 63 -366 112 -421 164 -12 12 -25 21 -28
21 -3 0 -5 -28 -5 -62 -1 -73 13 -83 -115 81 -44 57 -90 121 -103 142 -27 45
-37 44 -46 -6 -6 -31 -9 -34 -26 -25 -55 29 -140 219 -140 312 l0 40 43 -59
c24 -32 62 -73 84 -91z m-257 -77 c42 -120 145 -261 255 -348 l50 -40 5 67 5
68 83 -94 c103 -115 224 -225 319 -289 40 -27 75 -49 78 -49 3 0 -2 14 -11 32
-14 27 -54 134 -54 145 0 2 24 -10 53 -27 59 -33 105 -51 227 -86 90 -27 229
-90 268 -122 l24 -19 -86 -41 c-70 -33 -213 -124 -347 -221 -25 -18 -25 -2 0
72 11 32 16 57 12 57 -12 0 -159 -110 -262 -196 -52 -44 -118 -99 -147 -123
l-53 -43 6 32 c3 17 19 61 35 97 17 37 29 67 28 69 -2 1 -27 -2 -56 -7 -97
-18 -221 22 -289 93 l-28 29 45 -2 c69 -4 140 0 140 9 0 4 -28 25 -63 47 -119
76 -267 246 -267 308 0 16 2 16 23 3 40 -26 99 -38 142 -29 l40 9 -40 27
c-117 78 -200 274 -212 498 -5 97 7 225 25 253 3 6 11 -19 18 -54 7 -36 22
-92 34 -125z m6741 76 c35 -249 -61 -541 -214 -652 l-39 -28 26 -7 c34 -8 104
2 140 21 16 9 31 13 34 11 2 -3 -8 -31 -22 -62 -32 -70 -149 -188 -250 -254
l-69 -45 34 -7 c19 -5 66 -6 104 -3 l70 5 -35 -31 c-82 -73 -233 -116 -322
-91 -21 6 -38 9 -38 7 0 -2 18 -45 40 -96 23 -50 39 -93 37 -95 -8 -9 -69 34
-159 114 -98 85 -290 233 -296 227 -2 -1 4 -28 13 -60 9 -31 15 -58 13 -60 -1
-2 -78 47 -170 108 -91 62 -189 121 -217 132 -28 11 -51 22 -51 25 1 9 103 67
166 93 33 14 101 37 151 51 104 29 173 57 215 87 16 12 31 19 34 16 3 -3 -8
-40 -25 -83 -17 -43 -28 -80 -26 -83 3 -2 38 18 78 45 83 56 253 217 335 318
l57 70 5 -75 5 -74 85 85 c47 47 99 108 114 135 16 28 37 58 47 67 23 23 74
157 90 236 15 77 23 67 40 -47z m-4044 -226 c187 -26 335 -72 453 -140 72 -41
65 -40 -60 4 -188 66 -431 91 -600 61 -231 -40 -458 -153 -660 -327 -142 -123
-322 -343 -280 -343 6 0 10 6 10 14 0 15 111 106 215 176 200 134 425 226 647
265 111 20 333 19 439 -1 88 -16 274 -72 266 -80 -2 -2 -39 1 -83 7 -96 14
-295 6 -417 -16 -193 -35 -400 -121 -577 -240 -116 -79 -135 -93 -129 -100 3
-2 30 5 60 16 186 72 414 124 605 139 287 24 558 -43 697 -170 l54 -49 44 45
c130 133 453 209 745 175 192 -22 495 -98 607 -151 61 -30 42 -5 -45 58 -284
204 -574 302 -898 302 -69 0 -152 -4 -184 -10 -33 -5 -62 -8 -64 -5 -7 6 187
64 271 80 48 9 136 15 224 15 230 0 410 -44 638 -155 142 -69 260 -144 373
-237 40 -33 75 -58 77 -56 9 8 -129 174 -214 258 -332 329 -741 466 -1140 384
-97 -20 -213 -57 -299 -95 -83 -36 -52 -8 52 47 173 92 405 144 641 144 173 0
246 -9 479 -61 170 -38 182 -43 255 -91 75 -50 241 -207 241 -228 0 -15 -16
-13 -132 24 -60 19 -108 31 -108 26 0 -19 93 -120 179 -195 50 -43 153 -124
229 -178 218 -157 270 -195 395 -295 65 -52 116 -96 113 -99 -2 -3 23 -28 56
-56 34 -28 92 -79 128 -114 37 -35 70 -63 74 -63 19 0 -39 145 -94 236 -22 36
-33 61 -25 57 36 -21 225 -196 318 -296 240 -258 251 -273 385 -538 67 -134
122 -248 122 -254 0 -5 -70 60 -156 145 l-157 155 62 -115 c176 -326 239 -499
296 -810 28 -150 52 -234 115 -393 23 -60 40 -111 37 -113 -7 -7 -155 125
-200 178 l-36 43 -1 -58 c-1 -179 154 -794 281 -1115 16 -40 29 -75 29 -77 0
-3 -24 9 -52 26 -60 35 -154 79 -168 79 -6 0 -10 -7 -10 -15 0 -18 84 -180
150 -290 28 -46 50 -87 50 -92 0 -5 -46 -15 -102 -22 -219 -27 -432 -77 -592
-138 -102 -39 -219 -93 -213 -99 2 -2 50 -18 108 -35 57 -17 158 -54 224 -82
136 -58 138 -53 -34 -77 -187 -26 -388 -91 -569 -185 -87 -46 -207 -123 -200
-130 2 -2 34 -9 72 -15 84 -13 244 -64 311 -98 l50 -26 -122 -17 c-324 -47
-558 -137 -797 -308 -165 -117 -365 -332 -493 -528 -30 -45 -58 -85 -64 -88
-5 -4 -28 4 -51 17 l-42 23 1 210 c1 236 12 321 84 613 72 294 171 567 254
697 67 106 169 245 180 245 5 0 5 4 -2 8 -8 5 1 29 32 82 23 41 42 76 40 78
-2 2 -16 -3 -32 -11 -15 -8 -57 -17 -92 -21 l-64 -7 17 23 c86 117 204 323
193 334 -2 3 -35 -11 -73 -31 -38 -19 -73 -35 -77 -35 -5 0 7 19 26 43 78 94
142 268 167 451 10 75 7 103 -8 80 -33 -49 -74 -91 -125 -129 -33 -25 -61 -44
-63 -42 -2 1 13 42 33 91 19 49 44 129 54 180 19 91 38 336 26 336 -4 0 -39
-44 -78 -97 -68 -93 -156 -193 -170 -193 -3 0 9 43 28 96 28 82 42 147 78 357
2 15 1 27 -4 27 -5 0 -46 -28 -92 -61 -92 -68 -150 -98 -191 -99 -26 0 -28 3
-28 38 0 104 -63 217 -142 256 -95 48 -265 28 -298 -34 -11 -20 -10 -21 12
-13 60 21 170 -5 185 -44 11 -28 -15 -124 -49 -181 -18 -30 -72 -96 -120 -147
-71 -75 -103 -101 -169 -135 l-82 -43 7 89 c4 49 10 124 14 167 4 43 5 80 1
83 -3 2 -16 -25 -27 -59 -30 -92 -103 -247 -116 -247 -6 0 -29 7 -51 15 -54
19 -115 19 -145 -2 -14 -9 -50 -40 -80 -68 -30 -29 -73 -58 -95 -65 -49 -16
-228 -17 -269 -1 -15 6 -56 35 -90 65 -33 29 -72 60 -86 69 -30 21 -91 21
-145 2 -22 -8 -45 -15 -51 -15 -6 0 -37 60 -68 133 -32 72 -62 141 -67 152
-10 21 -6 -109 7 -248 l7 -67 -79 42 c-87 48 -196 150 -270 254 -51 72 -74
130 -74 188 0 39 3 44 35 59 40 19 116 22 146 7 31 -17 24 15 -8 38 -48 33
-101 45 -171 39 -79 -8 -144 -38 -179 -83 -32 -43 -73 -154 -73 -199 0 -34 -1
-35 -37 -35 -48 0 -103 28 -186 95 -38 30 -73 55 -78 55 -32 0 38 -334 93
-442 10 -21 15 -38 10 -38 -16 0 -121 118 -187 210 l-67 95 5 -135 c7 -157 39
-311 86 -415 17 -37 31 -70 31 -72 0 -13 -56 31 -127 100 -95 92 -94 93 -68
-56 29 -165 79 -291 156 -394 45 -60 42 -60 -70 -3 -34 16 -61 28 -61 24 0
-18 111 -217 156 -280 30 -42 54 -78 54 -81 0 -10 -97 7 -135 23 -21 8 -38 14
-40 12 -5 -6 110 -197 193 -318 126 -185 174 -292 256 -570 123 -412 155 -626
143 -943 l-4 -119 -43 -24 c-24 -13 -44 -23 -46 -22 -1 2 -37 54 -79 117 -167
250 -382 463 -600 593 -211 126 -475 212 -718 234 -42 4 -77 10 -77 14 0 23
253 114 368 132 39 6 72 14 72 17 0 20 -249 152 -388 206 -154 59 -419 122
-533 125 -40 2 233 113 366 150 44 12 81 23 83 25 13 11 -297 130 -453 174
-110 31 -380 81 -436 81 -16 0 -29 2 -29 4 0 2 32 57 71 122 72 122 143 263
136 270 -9 9 -124 -39 -178 -75 -32 -22 -59 -38 -59 -37 0 1 12 31 26 66 25
63 104 302 143 436 75 255 141 575 141 681 l0 73 -42 -46 c-42 -45 -191 -174
-201 -174 -3 0 9 33 27 73 55 119 102 279 146 496 58 282 104 408 259 701 45
84 81 155 81 158 0 4 -70 -63 -155 -148 l-156 -155 27 60 c15 33 72 149 128
258 96 189 105 203 217 330 64 73 158 174 210 226 101 101 250 233 257 226 2
-2 -5 -16 -16 -32 -48 -69 -135 -273 -115 -273 7 0 208 182 247 224 16 17 26
25 22 19 -10 -18 -6 -17 91 28 48 22 126 54 172 69 46 16 91 36 100 45 15 16
13 17 -24 10 -37 -6 -106 -33 -260 -99 l-60 -26 30 25 c50 43 323 249 453 343
67 49 164 124 214 167 87 76 194 192 184 202 -2 2 -56 -11 -120 -30 -64 -19
-118 -32 -121 -27 -7 11 107 132 178 188 96 76 153 100 331 139 300 64 471 77
673 48z m-487 -3039 c0 -19 104 -167 171 -243 75 -85 179 -170 267 -220 35
-20 66 -41 68 -48 3 -6 1 -30 -5 -53 -5 -27 -5 -56 1 -80 13 -54 79 -128 120
-136 43 -9 136 -82 159 -126 11 -19 28 -60 40 -91 26 -75 67 -129 132 -178 50
-37 55 -43 61 -90 12 -90 -32 -151 -140 -195 -96 -39 -181 -50 -344 -43 -302
14 -643 93 -735 173 l-30 25 30 -5 c102 -18 206 -28 212 -21 5 4 3 10 -3 12
-34 12 -200 113 -264 161 -85 63 -196 173 -223 219 l-17 32 117 -56 c118 -56
172 -75 333 -114 47 -12 97 -25 113 -29 15 -5 27 -5 27 -1 0 10 -146 131 -157
131 -11 0 -178 151 -241 219 -97 103 -242 298 -242 325 0 3 34 -19 75 -49 113
-84 326 -212 454 -273 110 -52 292 -125 298 -118 2 1 -34 31 -79 67 -220 170
-434 421 -540 634 l-30 60 69 -66 c131 -127 274 -230 355 -260 42 -15 54 -9
39 18 -38 69 -103 291 -117 399 -6 54 -6 58 10 45 9 -7 16 -19 16 -25z m2255
-99 c-27 -135 -74 -267 -103 -295 -25 -23 -26 -24 -4 -18 17 6 22 3 22 -11 0
-11 -6 -25 -12 -32 -11 -11 -8 -12 12 -6 85 25 262 139 298 192 26 39 125 144
130 139 12 -13 -139 -260 -222 -361 -153 -188 -192 -221 -313 -267 -32 -12
-53 -23 -46 -25 6 -2 41 10 78 26 77 35 93 38 74 14 -18 -21 -154 -129 -171
-136 -7 -2 -10 -7 -7 -11 24 -26 564 267 638 347 41 43 150 122 158 113 10
-10 -84 -149 -168 -249 -77 -93 -215 -221 -392 -366 -43 -35 -77 -64 -75 -66
2 -2 30 1 63 6 104 17 266 69 384 125 63 30 116 52 119 50 2 -3 -38 -47 -89
-99 -102 -102 -223 -196 -336 -261 -40 -22 -73 -44 -73 -48 0 -12 69 -9 140 7
36 8 74 14 84 15 18 0 18 -1 2 -19 -71 -78 -516 -172 -831 -175 -134 -1 -169
2 -215 18 -123 43 -180 101 -180 183 0 29 8 43 43 77 23 22 59 53 79 68 25 19
48 52 73 105 20 43 46 98 58 122 25 51 120 131 156 131 15 0 40 16 66 43 54
54 72 111 57 182 -9 42 -8 52 5 60 156 99 210 141 283 214 86 86 195 235 185
252 -3 4 4 28 17 51 22 43 23 43 26 15 2 -16 -4 -65 -13 -110z m-1419 -360
c77 -86 259 -120 430 -82 72 16 84 22 129 67 l50 50 66 -4 c53 -3 75 -9 108
-32 97 -68 117 -187 44 -261 l-27 -27 -8 28 c-9 35 -24 44 -71 44 -51 0 -104
-29 -155 -84 -50 -54 -56 -77 -49 -167 9 -112 -19 -172 -114 -239 l-56 -39
-21 107 c-26 131 -41 182 -51 182 -9 0 -46 -157 -57 -237 -3 -29 -9 -53 -13
-53 -20 0 -115 80 -142 119 -31 45 -31 47 -25 138 8 115 -2 140 -78 210 -44
41 -66 53 -101 59 -66 9 -93 0 -103 -37 l-8 -31 -28 40 c-39 57 -44 109 -16
167 35 73 121 122 216 124 36 1 45 -4 80 -42z m-526 -1047 l115 -17 -1 -29 c0
-16 -17 -108 -37 -204 -20 -96 -53 -267 -73 -380 -40 -229 -56 -279 -78 -260
-16 12 -49 104 -66 185 -29 130 -70 523 -70 669 l0 68 48 -7 c26 -4 99 -15
162 -25z m1832 -42 c-18 -412 -91 -846 -143 -856 -19 -3 -30 46 -95 402 -24
136 -55 296 -68 355 -14 58 -21 109 -18 113 4 4 66 17 137 28 72 12 132 24
134 26 2 2 16 4 30 4 27 0 27 0 23 -72z m-2193 -68 c0 -10 -3 -8 -9 5 -12 27
-12 43 0 25 5 -8 9 -22 9 -30z m687 -6 c41 -20 114 -97 114 -121 0 -34 -91
-163 -114 -163 -29 0 -66 135 -66 241 0 65 8 70 66 43z m1034 -50 c0 -71 -24
-192 -43 -218 -8 -10 -19 -15 -29 -11 -18 7 -108 133 -108 150 0 39 118 145
162 145 16 0 18 -9 18 -66z m-753 -106 c32 -33 -22 -123 -69 -116 -27 4 -68
71 -68 112 l0 28 60 -4 c37 -3 67 -11 77 -20z m546 16 c9 -9 -20 -94 -39 -115
-28 -31 -60 -24 -89 18 -34 50 -32 71 8 88 32 14 109 20 120 9z m-381 -20 c9
-3 20 -14 23 -24 10 -33 -34 -100 -66 -100 -17 0 -79 82 -79 105 0 28 57 37
122 19z m191 -27 c-3 -37 -48 -97 -74 -97 -22 0 -59 54 -59 86 0 34 21 45 80
42 54 -3 55 -4 53 -31z m-176 -644 c-1 -49 -3 -9 -3 87 0 96 2 136 3 88 2 -49
2 -127 0 -175z m50 4 c-1 -45 -3 -5 -3 88 0 94 2 130 3 82 2 -48 2 -125 0
-170z m1010 121 c-3 -8 -6 -5 -6 6 -1 11 2 17 5 13 3 -3 4 -12 1 -19z m-60
-110 c-3 -8 -6 -5 -6 6 -1 11 2 17 5 13 3 -3 4 -12 1 -19z m-1940 -75 c-3 -10
-5 -4 -5 12 0 17 2 24 5 18 2 -7 2 -21 0 -30z m1930 -45 c-3 -8 -6 -5 -6 6 -1
11 2 17 5 13 3 -3 4 -12 1 -19z m-1706 -350 c9 -7 33 -34 53 -60 58 -72 135
-114 123 -67 -5 20 -3 21 35 16 23 -3 53 -14 67 -25 65 -48 87 -226 40 -319
-30 -59 -81 -89 -136 -78 -50 9 -123 81 -160 157 -56 115 -90 317 -63 369 12
22 21 24 41 7z m1520 -10 c24 -46 -14 -266 -64 -365 -72 -141 -152 -190 -242
-147 -79 37 -108 206 -56 327 24 56 56 78 119 83 26 2 41 1 35 -2 -17 -8 -16
-34 1 -34 15 0 106 67 106 79 0 12 67 81 78 81 6 0 17 -10 23 -22z m196 -60
c-3 -8 -6 -5 -6 6 -1 11 2 17 5 13 3 -3 4 -12 1 -19z m-1950 -50 c-3 -7 -5 -2
-5 12 0 14 2 19 5 13 2 -7 2 -19 0 -25z m1960 -110 c-2 -13 -4 -3 -4 22 0 25
2 35 4 23 2 -13 2 -33 0 -45z m-1957 -35 c0 -21 -3 -24 -9 -14 -5 8 -7 20 -4
28 8 21 13 15 13 -14z m1337 -45 c-3 -8 -6 -5 -6 6 -1 11 2 17 5 13 3 -3 4
-12 1 -19z m-1323 -34 c3 -8 2 -12 -4 -9 -6 3 -10 10 -10 16 0 14 7 11 14 -7z
m664 -101 c72 -54 66 -137 -9 -135 -51 1 -79 39 -79 106 0 29 3 56 7 59 10 11
44 -2 81 -30z m136 15 c15 -15 27 -39 31 -65 l7 -43 -35 0 c-58 0 -75 28 -61
99 8 37 24 39 58 9z m366 3 c5 -11 10 -36 10 -55 0 -40 -20 -56 -69 -56 -29 0
-31 3 -31 36 0 26 8 43 29 65 35 34 47 36 61 10z m176 -44 c-14 -83 -51 -118
-111 -103 -60 15 -32 104 44 143 57 29 76 17 67 -40z m-431 23 c32 -63 9 -104
-37 -63 -21 18 -22 31 -8 67 13 34 26 33 45 -4z m140 -14 c8 -34 7 -41 -14
-57 -17 -14 -27 -16 -42 -9 -25 14 -24 34 2 77 26 42 41 38 54 -11z m1145
-114 c124 -89 154 -272 75 -457 -15 -35 -103 -175 -110 -175 -2 0 -15 35 -30
78 -25 71 -51 122 -57 111 -2 -2 -18 -34 -36 -70 -42 -85 -108 -184 -186 -278
-61 -74 -61 -74 -67 -45 -4 16 -7 50 -8 75 0 25 -4 49 -7 52 -4 4 -28 -22 -54
-56 -53 -70 -201 -213 -249 -240 l-31 -18 0 80 c0 45 -1 81 -2 81 -2 0 -46
-42 -98 -93 -106 -103 -208 -175 -302 -214 -63 -25 -63 -25 -113 -8 -103 36
-238 130 -355 250 l-65 66 -5 -82 -5 -82 -75 60 c-80 64 -179 166 -220 226
-14 20 -28 37 -32 37 -5 0 -8 -17 -9 -37 0 -21 -3 -56 -7 -77 l-7 -39 -52 57
c-64 69 -158 209 -198 293 -17 35 -33 63 -37 63 -7 0 -68 -152 -68 -170 0 -39
-61 34 -111 132 -100 197 -71 384 75 489 21 16 45 29 52 29 8 0 27 -27 44 -60
38 -76 97 -135 164 -165 54 -25 181 -46 401 -65 339 -29 379 -38 492 -104 57
-33 58 -34 83 -16 93 65 200 94 406 110 207 16 403 39 459 55 100 28 182 100
225 197 10 24 22 47 26 50 9 9 50 -8 94 -40z m-1693 -88 c-3 -3 -12 -4 -19 -1
-8 3 -5 6 6 6 11 1 17 -2 13 -5z"/>
<path d="M4944 8586 c-184 -90 -219 -112 -271 -163 -32 -32 -43 -44 -24 -27
65 57 126 92 316 184 103 49 190 90 192 90 21 0 -97 -109 -197 -182 -73 -54
-135 -114 -170 -163 -30 -44 -60 -149 -60 -211 0 -55 26 -156 55 -217 24 -51
149 -187 160 -175 4 3 -7 38 -24 76 -34 78 -61 179 -61 232 0 56 24 136 55
180 39 57 112 103 150 95 40 -7 54 -24 62 -69 5 -33 -1 -53 -48 -142 -52 -101
-53 -107 -54 -187 0 -72 4 -90 32 -149 18 -38 36 -68 42 -68 6 0 7 28 4 73 -9
119 22 201 125 327 25 30 53 73 63 95 25 54 25 141 0 181 -35 57 -122 79 -214
53 -22 -6 -40 -9 -42 -7 -2 2 23 39 56 83 32 44 66 99 75 122 16 40 14 74 -3
73 -4 -1 -103 -47 -219 -104z"/>
<path d="M6820 8658 c1 -26 39 -95 98 -178 34 -46 60 -86 58 -87 -2 -2 -22 4
-46 12 -138 49 -248 -17 -236 -141 5 -63 27 -107 102 -204 89 -117 99 -145 99
-278 0 -124 1 -125 53 -27 22 43 26 63 27 140 0 89 -1 91 -53 192 -57 112 -63
147 -31 187 61 78 209 -34 240 -182 18 -89 -9 -220 -73 -346 l-20 -39 29 21
c39 28 124 120 150 162 53 88 69 265 33 363 -26 70 -101 152 -216 239 -52 38
-119 94 -151 124 -32 30 -59 54 -60 54 -2 0 -3 -6 -3 -12z"/>
<path d="M5951 8519 c-2 -25 -70 -98 -112 -120 -52 -26 -114 -33 -169 -19 -98
25 -96 26 -128 -19 -55 -76 -60 -136 -36 -452 9 -114 -14 -219 -62 -289 -19
-27 -32 -50 -29 -50 14 0 105 51 132 74 41 34 98 154 116 241 10 49 13 108 9
193 -4 103 -2 125 12 147 18 27 73 56 142 74 59 16 106 51 128 95 16 32 17 46
9 89 -6 29 -11 45 -12 36z"/>
<path d="M6037 8501 c-11 -52 -8 -80 10 -118 20 -42 57 -67 141 -93 82 -26
119 -48 131 -79 6 -15 10 -87 9 -166 -2 -111 1 -152 16 -200 25 -83 73 -170
112 -205 40 -34 123 -84 130 -78 2 3 -11 28 -30 57 -23 33 -40 77 -52 128 -17
79 -17 126 5 328 12 105 1 207 -28 264 -33 63 -41 66 -125 47 -79 -19 -127
-15 -187 15 -34 17 -92 75 -115 114 -10 17 -11 16 -17 -14z"/>
<path d="M8250 8370 c8 -5 20 -10 25 -10 6 0 3 5 -5 10 -8 5 -19 10 -25 10 -5
0 -3 -5 5 -10z"/>
<path d="M4180 8305 c-315 -63 -590 -299 -691 -594 -10 -29 -16 -58 -13 -63 4
-6 32 15 63 45 79 76 157 136 216 163 27 13 51 21 53 19 2 -2 -12 -30 -32 -62
-38 -63 -84 -179 -74 -189 4 -3 32 15 64 40 31 26 58 45 61 43 2 -3 -12 -40
-31 -83 -41 -95 -59 -147 -85 -250 -39 -153 -66 -359 -47 -359 5 0 28 56 51
125 105 307 128 347 217 385 57 23 117 18 251 -20 165 -48 206 -65 223 -90 7
-11 20 -68 27 -125 16 -117 44 -194 88 -236 16 -15 29 -31 29 -35 0 -13 -86
17 -120 41 -44 31 -46 20 -5 -28 63 -73 188 -104 315 -78 41 9 98 16 125 16
62 0 179 -31 248 -67 34 -17 52 -22 55 -14 6 19 82 114 109 137 l25 21 -27 19
c-64 46 -85 68 -148 161 -91 135 -145 194 -233 252 -127 85 -262 112 -408 82
-75 -16 -113 -9 -211 42 -206 106 -270 254 -187 430 36 77 165 236 202 249 13
4 13 7 1 21 -16 20 -23 20 -111 2z m703 -870 c110 -54 173 -152 165 -258 -4
-53 -8 -63 -40 -93 -46 -42 -121 -64 -218 -64 -105 0 -171 21 -224 73 -34 33
-46 53 -54 92 -22 109 20 210 107 255 76 39 177 37 264 -5z"/>
<path d="M4725 7390 c-54 -56 -44 -198 14 -230 52 -27 101 -2 126 65 49 127
-57 252 -140 165z m83 -2 c31 -31 -11 -88 -50 -67 -34 18 -17 79 22 79 9 0 21
-5 28 -12z"/>
<path d="M5975 8286 c-43 -43 -82 -139 -105 -261 -23 -116 -73 -189 -212 -309
-56 -49 -84 -81 -105 -124 -26 -52 -28 -66 -28 -167 0 -87 4 -118 19 -150 l19
-40 9 75 c11 109 41 199 81 245 22 25 64 55 113 79 61 30 98 58 163 124 l84
85 20 -29 c41 -59 135 -140 202 -174 144 -73 187 -142 204 -330 l7 -75 18 40
c27 58 33 205 12 279 -18 61 -32 77 -199 233 -89 83 -117 134 -142 257 -19 93
-38 143 -77 208 -35 57 -52 65 -83 34z"/>
<path d="M7716 8303 c-3 -3 22 -36 57 -72 162 -172 212 -319 149 -440 -11 -20
-27 -50 -36 -68 -26 -48 -82 -92 -176 -137 -77 -37 -91 -40 -145 -36 -33 2
-116 4 -185 4 -123 1 -126 0 -189 -33 -138 -71 -215 -144 -315 -298 -64 -98
-119 -158 -136 -148 -4 3 -13 -2 -20 -10 -10 -12 -6 -22 22 -53 19 -21 49 -59
66 -84 l32 -47 64 29 c35 16 102 37 149 47 82 16 90 16 169 0 108 -22 161 -22
242 3 64 20 121 64 148 114 9 17 7 17 -20 -3 -36 -25 -111 -60 -130 -61 -8 0
2 19 22 42 50 58 77 136 83 238 8 145 6 144 213 206 162 49 255 53 316 13 33
-22 121 -146 110 -156 -1 -2 -27 10 -57 26 -30 16 -68 32 -86 36 -19 4 -35 14
-38 26 -14 43 -151 11 -228 -53 -49 -41 -83 -104 -98 -181 -16 -86 -61 -169
-114 -213 -26 -21 -60 -49 -74 -62 l-26 -24 38 6 c79 10 142 50 238 150 95 98
112 108 222 137 61 15 71 33 65 125 l-5 72 37 -13 c108 -38 127 -60 181 -209
30 -83 45 -113 50 -100 4 14 8 7 14 -24 13 -79 25 -30 14 58 -21 175 -75 385
-129 504 -16 36 -26 66 -21 66 4 0 20 -14 36 -30 16 -17 34 -29 41 -26 6 2 17
-1 23 -7 31 -31 -18 120 -65 200 -28 48 -24 48 53 4 63 -36 75 -78 81 -283 2
-97 8 -168 14 -168 5 0 8 29 7 65 -3 81 6 94 15 21 16 -137 117 -424 232 -662
35 -72 64 -134 64 -138 0 -3 -14 1 -31 9 -17 9 -32 15 -34 13 -1 -2 13 -79 31
-173 27 -138 33 -190 31 -275 l-2 -105 -44 75 c-62 105 -123 201 -127 198 -1
-2 4 -57 13 -123 19 -153 13 -460 -12 -550 -22 -81 -55 -165 -66 -165 -5 0 -9
5 -9 12 0 25 -43 168 -50 168 -4 0 -11 -17 -15 -37 -18 -99 -117 -299 -220
-448 -89 -128 -268 -353 -318 -398 -23 -22 -32 -34 -21 -28 12 6 23 8 26 6 7
-7 142 98 285 222 137 118 199 185 255 278 18 30 35 55 38 55 3 0 13 -19 21
-42 9 -23 20 -43 25 -45 10 -3 68 106 103 194 47 119 91 341 91 461 l1 57 63
-70 c35 -38 68 -66 73 -62 4 5 8 93 8 195 0 194 -11 268 -55 398 -17 50 -18
53 -2 45 9 -5 30 -23 46 -40 17 -17 39 -31 49 -31 18 0 19 5 14 58 -10 94 -71
249 -192 492 -131 261 -199 420 -246 570 -18 58 -35 107 -39 110 -3 3 -13 29
-22 57 -20 65 -15 63 90 -32 40 -37 75 -65 78 -62 9 9 -17 90 -52 162 -38 77
-101 166 -166 233 -57 59 -199 152 -289 190 -101 42 -289 89 -303 75z m-373
-847 c94 -28 144 -90 154 -192 11 -103 -50 -193 -155 -228 -59 -21 -184 -20
-253 0 -73 22 -139 86 -139 137 0 188 208 339 393 283z"/>
<path d="M7165 7396 c-48 -48 -54 -139 -14 -205 36 -59 97 -59 137 -1 41 61
25 192 -27 220 -32 17 -71 11 -96 -14z m95 -16 c15 -28 -4 -60 -35 -60 -31 0
-50 32 -35 60 6 12 21 20 35 20 14 0 29 -8 35 -20z"/>
<path d="M4518 8229 c-10 -5 -43 -14 -75 -20 -64 -12 -183 -59 -183 -73 0 -4
8 -5 18 0 35 15 158 53 192 59 34 5 78 30 69 39 -2 3 -12 0 -21 -5z"/>
<path d="M7380 8116 c0 -13 13 -48 29 -78 l30 -55 -23 -34 c-13 -19 -57 -63
-97 -98 -104 -90 -221 -202 -217 -207 10 -10 69 17 141 64 127 83 201 104 420
118 69 4 107 11 107 18 0 16 -46 84 -84 124 -39 43 -155 115 -234 147 -34 14
-64 25 -67 25 -3 0 -5 -11 -5 -24z"/>
<path d="M4537 8104 c-129 -54 -249 -152 -290 -236 -9 -18 -14 -34 -13 -35 2
-2 72 -10 157 -18 179 -16 253 -38 344 -101 85 -58 119 -74 152 -73 l28 0 -25
17 c-45 31 -306 281 -320 306 -11 22 -11 28 3 44 19 21 47 85 47 107 0 20 -13
18 -83 -11z"/>
<path d="M3577 7552 c-50 -152 -103 -273 -249 -567 -118 -237 -170 -375 -184
-482 -8 -67 2 -68 68 -8 28 25 53 44 55 41 2 -2 -5 -33 -16 -69 -35 -113 -52
-218 -58 -347 -6 -124 2 -240 16 -240 3 0 34 31 67 69 l61 69 7 -90 c14 -197
80 -441 157 -575 28 -48 49 -67 49 -44 0 5 7 25 15 45 l16 37 48 -73 c62 -93
117 -151 262 -274 167 -143 279 -226 279 -208 0 5 -37 52 -81 104 -237 278
-382 508 -449 715 -35 108 -37 108 -60 -13 -7 -34 -16 -65 -20 -67 -10 -6 -46
78 -65 152 -29 108 -36 239 -25 444 5 107 10 201 10 209 0 8 -16 -9 -35 -37
-19 -29 -35 -55 -35 -58 0 -17 -83 -144 -91 -139 -21 12 -8 181 26 354 19 96
35 178 35 183 0 4 -13 1 -30 -8 -16 -8 -32 -15 -35 -15 -3 0 22 54 55 120 106
212 170 382 219 580 29 117 51 310 35 310 -5 0 -26 -53 -47 -118z"/>
<path d="M3214 7534 c-43 -74 -86 -129 -193 -244 -130 -140 -180 -203 -223
-280 -34 -62 -92 -209 -85 -216 2 -2 30 23 62 56 33 33 64 60 70 60 5 0 4 -4
-3 -8 -51 -33 -139 -466 -157 -777 -3 -49 -9 -117 -14 -150 -5 -33 -7 -61 -6
-63 1 -2 33 40 71 93 37 52 72 94 78 92 6 -2 16 -28 23 -58 39 -184 -20 -518
-119 -671 -22 -33 -38 -61 -36 -63 2 -1 32 -8 68 -14 142 -27 354 -111 470
-186 58 -38 112 -85 97 -85 -16 0 -376 -61 -402 -68 -36 -10 -35 -24 3 -36 54
-17 269 -105 357 -146 375 -175 755 -447 968 -695 l60 -69 -100 -17 c-101 -16
-225 -50 -253 -69 -11 -7 5 -10 55 -10 229 -2 490 -95 622 -223 24 -22 45 -39
48 -36 14 14 -99 251 -191 399 -204 331 -517 649 -791 803 l-68 39 88 -6 c48
-3 87 -1 87 3 0 17 -201 210 -279 269 -124 94 -293 185 -384 207 -38 10 -42
22 -10 30 33 8 113 62 113 76 0 7 -25 8 -75 4 -158 -15 -185 9 -185 170 0 55
11 179 24 275 14 96 29 261 35 365 6 105 14 224 17 265 l7 75 -26 -23 c-14
-13 -43 -59 -65 -102 l-40 -78 -7 106 c-18 263 15 371 205 662 107 164 130
220 130 309 0 84 -12 93 -46 35z"/>
<path d="M8730 7556 c-32 -85 10 -192 167 -423 152 -225 188 -361 168 -627
l-7 -96 -38 77 c-21 43 -50 92 -65 108 l-26 30 5 -55 c4 -30 11 -125 16 -210
17 -255 30 -396 46 -483 8 -45 17 -136 21 -202 5 -102 3 -126 -11 -154 -26
-49 -73 -65 -173 -57 -46 4 -83 3 -83 -2 0 -12 55 -51 103 -72 41 -18 41 -19
17 -28 -162 -63 -230 -98 -345 -176 -82 -55 -335 -289 -335 -309 0 -4 39 -5
88 -2 l87 6 -73 -40 c-336 -188 -674 -560 -882 -971 -56 -110 -110 -234 -105
-239 3 -2 31 21 63 51 130 120 341 197 588 214 81 6 94 9 80 20 -24 17 -158
52 -255 66 -49 7 -81 17 -81 24 0 19 238 253 348 341 256 207 574 385 937 528
66 26 124 50 128 54 8 8 -67 24 -290 62 -90 15 -133 26 -133 35 0 18 123 97
223 143 105 49 284 107 355 117 29 3 52 9 52 11 0 2 -14 24 -31 49 -86 125
-139 331 -140 542 -1 100 14 196 31 207 4 2 38 -38 75 -91 37 -52 69 -93 72
-90 3 2 0 51 -6 108 -18 167 -30 290 -35 343 -11 114 -58 340 -91 431 -19 55
-35 101 -35 104 1 3 26 -22 56 -55 l56 -60 -7 40 c-10 64 -85 214 -146 290
-31 38 -102 120 -158 180 -56 61 -129 150 -161 199 -59 87 -60 88 -70 62z"/>
<path d="M3970 7433 c-18 -40 -26 -189 -11 -207 7 -8 34 -19 60 -25 83 -18
101 -29 214 -139 110 -105 152 -132 213 -132 11 0 26 -5 34 -11 11 -8 -3 -9
-50 -5 -79 7 -180 53 -210 96 -12 17 -27 30 -35 30 -21 0 -205 -190 -268 -278
-115 -161 -206 -370 -242 -557 -12 -67 -21 -183 -10 -150 1 6 13 44 25 85 54
179 156 348 290 480 79 78 191 156 250 175 22 7 20 3 -16 -36 -170 -185 -288
-484 -300 -759 l-4 -105 25 89 c108 380 342 652 622 722 24 6 19 -2 -41 -67
-64 -70 -127 -171 -114 -185 4 -3 31 14 61 39 165 134 365 226 566 261 115 19
168 20 98 2 -65 -18 -88 -41 -32 -32 29 5 36 4 25 -3 -11 -8 -4 -11 30 -11 61
0 167 -30 224 -64 66 -39 144 -121 190 -199 21 -37 42 -64 47 -61 5 3 9 -3 9
-13 0 -10 5 -25 11 -33 8 -11 9 3 6 52 -9 127 -85 244 -209 320 l-53 33 85 14
c74 12 96 12 171 -2 113 -19 182 -55 274 -140 56 -51 79 -66 88 -59 6 6 39 37
72 68 74 70 173 119 272 134 58 9 92 8 169 -4 53 -8 99 -17 101 -19 2 -3 -15
-16 -39 -30 -120 -70 -218 -238 -218 -372 0 -39 18 -29 31 17 32 119 142 259
242 307 62 30 141 51 197 52 36 0 41 2 25 10 -14 6 -4 8 38 6 31 -2 57 -2 57
-1 0 2 -12 10 -27 19 -19 11 -21 14 -8 11 11 -3 47 -10 80 -17 76 -15 213 -63
290 -101 73 -37 222 -138 255 -173 29 -31 45 -33 29 -2 -11 22 -11 22 15 -2
77 -72 3 72 -87 166 -38 40 -66 73 -63 73 17 0 159 -71 209 -104 79 -52 190
-168 253 -262 59 -88 125 -230 145 -308 10 -39 14 -45 19 -30 6 15 11 9 23
-31 l17 -50 -5 86 c-15 265 -129 561 -284 732 -39 43 -35 46 17 13 182 -114
343 -305 426 -503 55 -130 57 -134 51 -93 -3 19 6 2 19 -38 30 -90 41 -103 32
-37 -33 244 -119 475 -249 664 -55 81 -257 291 -279 291 -7 0 -26 -16 -42 -36
-16 -21 -53 -48 -85 -62 -52 -25 -66 -27 -196 -26 -77 0 -205 4 -285 8 -121 7
-155 6 -206 -8 -81 -21 -165 -60 -220 -102 -60 -46 -99 -45 -200 4 -74 35 -85
37 -174 37 -85 0 -101 -3 -150 -29 -33 -17 -97 -70 -162 -133 l-106 -105 -51
47 c-28 26 -51 53 -51 60 0 7 -27 38 -60 68 -82 76 -147 100 -260 95 -75 -3
-94 -8 -158 -41 -96 -49 -125 -48 -204 7 -119 82 -260 123 -395 112 -43 -3
-126 -9 -184 -12 l-106 -6 -60 45 c-99 76 -144 149 -168 273 -8 41 -24 91 -36
111 -42 68 -149 123 -239 123 -30 0 -39 -5 -50 -27z"/>
<path d="M6880 7396 c-39 -69 -175 -211 -263 -275 -78 -57 -173 -100 -235
-108 -95 -11 -182 59 -214 172 -17 60 -28 65 -28 12 0 -107 70 -211 160 -238
81 -24 220 20 336 106 126 95 238 232 268 328 10 32 16 60 14 62 -2 2 -19 -25
-38 -59z"/>
<path d="M5080 7447 c0 -16 44 -126 62 -155 45 -73 122 -155 199 -212 162
-120 295 -158 389 -110 46 23 106 91 119 134 12 41 20 136 11 136 -4 0 -17
-28 -30 -62 -42 -118 -98 -168 -187 -168 -69 0 -131 25 -234 92 -139 90 -267
222 -305 313 -12 29 -24 45 -24 32z"/>
<path d="M8360 7300 c0 -5 5 -10 10 -10 6 0 10 5 10 10 0 6 -4 10 -10 10 -5 0
-10 -4 -10 -10z"/>
<path d="M8373 7150 c0 -36 2 -50 4 -32 2 17 2 47 0 65 -2 17 -4 3 -4 -33z"/>
<path d="M8377 7033 c19 -208 63 -507 71 -485 2 8 -4 61 -13 119 -9 57 -25
171 -34 253 -9 82 -19 151 -22 155 -4 3 -5 -16 -2 -42z"/>
<path d="M8301 6554 c0 -11 3 -14 6 -6 3 7 2 16 -1 19 -3 4 -6 -2 -5 -13z"/>
<path d="M8311 6522 c-1 -8 8 -50 20 -95 11 -45 27 -111 34 -147 13 -59 13
-60 9 -14 -5 52 -61 280 -63 256z"/>
<path d="M5718 6395 c106 -100 154 -201 177 -378 8 -60 20 -53 35 19 35 168
-97 390 -250 421 -33 6 -31 4 38 -62z"/>
<path d="M6295 6448 c-88 -31 -180 -139 -212 -247 -20 -69 -20 -154 0 -201 17
-41 14 -47 41 99 22 121 64 201 153 288 73 72 76 81 18 61z"/>
<path d="M8382 6185 c0 -16 2 -22 5 -12 2 9 2 23 0 30 -3 6 -5 -1 -5 -18z"/>
<path d="M8393 6085 c0 -27 2 -38 4 -22 2 15 2 37 0 50 -2 12 -4 0 -4 -28z"/>
<path d="M7118 5333 c7 -3 16 -2 19 1 4 3 -2 6 -13 5 -11 0 -14 -3 -6 -6z"/>
<path d="M7068 5323 c7 -3 16 -2 19 1 4 3 -2 6 -13 5 -11 0 -14 -3 -6 -6z"/>
<path d="M6050 5365 c0 -5 5 -17 10 -25 5 -8 10 -10 10 -5 0 6 -5 17 -10 25
-5 8 -10 11 -10 5z"/>
<path d="M6081 5268 c-1 -15 4 -30 9 -33 12 -7 12 12 0 40 -8 18 -9 17 -9 -7z"/>
</g>
</svg>
